<svg xmlns:xlink="http://www.w3.org/1999/xlink" width="55.833ex" height="2.5ex" style="vertical-align:-.667ex;margin:1px 0" viewBox="0 -771.9 24065.3 1043.9" xmlns="http://www.w3.org/2000/svg"><defs><path stroke-width="10" id="a" d="M848 143c0-8-37-154-131-154-47 0-82 35-82 82 0 20 4 31 13 55 20 53 62 167 62 224 0 36-11 70-54 70-109 0-162-120-165-133L431 46c-8-32-14-57-45-57-15 0-29 9-29 27 0 5 9 39 13 59 9 33 10 39 20 76l28 116c8 30 15 58 15 83 0 33-9 70-54 70-95 0-148-91-163-122l-13-50c-5-23-11-45-17-67l-22-90c-6-25-18-72-19-74-7-20-25-28-37-28-15 0-29 9-29 27 0 5 6 28 9 43l58 231c13 52 16 63 16 84 0 38-15 46-31 46-36 0-56-48-73-119-6-22-7-23-17-23 0 0-12 0-12 10 0 3 13 62 31 97 9 18 28 57 74 57 45 0 87-30 92-87 17 23 66 87 156 87 25 0 57-5 82-26 28-24 31-58 32-71 37 53 88 97 163 97s115-42 115-107c0-57-42-168-61-220-9-22-18-46-18-71 0-23 7-33 24-33 55 0 87 71 102 124 5 15 5 18 15 18 3 0 12 0 12-10z"/><path stroke-width="10" id="b" d="M722 347c0-11-9-20-20-20H76c-11 0-20 9-20 20s9 20 20 20h626c11 0 20-9 20-20zm0-194c0-11-9-20-20-20H76c-11 0-20 9-20 20s9 20 20 20h626c11 0 20-9 20-20z"/><path stroke-width="10" id="c" d="M498 143s-13-63-30-99c-16-32-39-55-74-55-48 0-83 33-91 75-60-71-110-75-130-75C95-11 40 55 40 149c0 146 124 293 241 293 45 0 74-27 92-64 3 22 18 44 42 44 17 0 29-10 29-27 0-4 0-6-7-34l-36-140-22-90c-11-44-13-52-13-74 0-20 3-46 30-46 41 0 59 59 76 124 3 14 4 18 14 18 3 0 12 0 12-10zM361 332c0 6-14 88-79 88-40 0-85-37-116-96-23-46-55-169-55-219 0-39 14-94 64-94 28 0 69 16 113 71 15 17 15 19 20 37l50 196c1 5 3 11 3 17z"/><path stroke-width="10" id="d" d="M192 250c0-29-24-53-53-53s-53 24-53 53 24 53 53 53 53-24 53-53z"/><path stroke-width="10" id="e" d="M468 372c0-52-57-383-225-383-46 0-134 16-134 124 0 43 13 89 57 205 7 18 17 45 17 70 0 32-17 32-25 32-29 0-72-23-101-124-5-16-6-18-16-18 0 0-12 0-12 10 0 9 38 154 132 154 50 0 82-37 82-82 0-19-5-33-12-50-31-83-58-156-58-212 0-52 23-87 74-87 117 0 178 229 178 271 0 36-13 62-34 82-11 11-16 17-16 30 0 22 24 48 49 48 18 0 44-16 44-70z"/><path stroke-width="10" id="f" d="M258 683L114 105c-5-19-6-24-6-48 0-14 0-46 30-46 40 0 59 59 76 124 3 14 4 18 14 18 3 0 12 0 12-10 0 0-12-60-30-98-17-36-42-56-75-56-47 0-91 35-91 92 0 16 2 23 5 34l126 500 3 20c0 8-1 17-49 17-15 0-25 0-25 11 0 19 11 20 19 21 26 2 99 10 122 10 13 0 13-11 13-11z"/><path stroke-width="10" id="g" d="M543 143s-13-63-30-99c-16-32-39-55-74-55-43 0-78 26-89 67-17-22-53-67-119-67-54 0-123 25-123 120 0 49 21 111 58 210 6 15 17 44 17 68 0 32-16 33-25 33-38 0-76-37-101-124-5-16-6-18-16-18 0 0-12 0-12 10 0 9 37 154 132 154 50 0 82-37 82-82 0-19-5-33-17-63-26-69-54-148-54-204 0-37 10-82 62-82 73 0 113 80 114 84l75 301c8 34 34 35 39 35 15 0 29-9 29-27 0-6-10-44-15-67-4-15-14-53-17-68l-28-108c-8-35-20-82-20-104 0-33 10-46 31-46 42 0 61 68 75 124 3 14 4 18 14 18 3 0 12 0 12-10z"/><path stroke-width="10" id="h" d="M430 107c0-12-84-118-227-118-98 0-157 79-157 181 0 175 151 272 262 272 69 0 107-41 107-85 0-14-5-73-75-103-50-21-124-23-153-23h-53c-15-61-16-92-16-104 0-32 9-116 87-116 12 0 121 0 200 99 6 8 8 10 13 10 6 0 12-7 12-13zm-48 250c0 34-27 63-74 63-26 0-129-15-168-167h41c41 0 201 0 201 104z"/><path stroke-width="10" id="i" d="M419 0c-35 3-122 3-162 3S130 3 95 0v31h32c90 0 93 12 93 48v518c-52-26-111-26-131-26v31c32 0 120 0 182 64 23 0 23-2 23-26V79c0-37 3-48 93-48h32V0z"/><path stroke-width="10" id="j" d="M722 250c0-11-9-20-20-20H409V-63c0-11-9-20-20-20s-20 9-20 20v293H76c-11 0-20 9-20 20s9 20 20 20h293v293c0 11 9 20 20 20s20-9 20-20V270h293c11 0 20-9 20-20z"/><path stroke-width="10" id="k" d="M552 636c0-38-29-60-55-60-19 0-37 12-37 35 0 15 10 50 54 54-19 18-45 18-49 18-21 0-38-15-47-34-6-12-20-83-24-104-11-58-10-56-21-114h83c17 0 27 0 27-11 0-20-10-20-30-20h-86L307 83c-1-7-24-128-56-191-18-38-58-97-113-97-41 0-85 24-85 69 0 38 29 60 55 60 19 0 37-12 37-35 0-15-9-51-55-54 19-18 44-18 48-18 52 0 69 91 87 188l75 395h-66c-19 0-28 0-28 12 0 19 11 19 30 19h69c24 126 27 136 33 157 30 99 93 117 127 117 41 0 87-23 87-69z"/><path stroke-width="10" id="l" d="M332-238c0-5-5-10-10-10-2 0-4 1-6 2-110 83-215 283-215 454v84c0 171 105 371 215 454 2 1 4 2 6 2 5 0 10-5 10-10 0-3-2-6-4-8-104-78-173-278-173-438v-84c0-160 69-360 173-438 2-2 4-5 4-8z"/><path stroke-width="10" id="m" d="M288 208c0-171-105-371-215-454-2-1-4-2-6-2-5 0-10 5-10 10 0 3 2 6 4 8 104 78 173 278 173 438v84c0 160-69 360-173 438-2 2-4 5-4 8 0 5 5 10 10 10 2 0 4-1 6-2 110-83 215-283 215-454v-84z"/><path stroke-width="10" id="n" d="M760 695l-63-255c-5-18-5-20-18-20-4 0-15 0-15 10s3 11 3 51c0 116-59 193-161 193-89 0-183-50-244-121-100-117-121-279-121-336C141 61 247 9 337 9c52 0 115 17 184 73 69 58 92 129 101 158 2 8 7 10 13 10 0 0 12 0 12-10 0-3-17-94-110-176-53-46-129-86-216-86C168-22 50 87 50 252c0 232 225 453 448 453 111 0 157-75 166-89l70 77c11 11 12 12 15 12 9 0 11-7 11-10z"/><path stroke-width="10" id="o" d="M722 250c0-11-9-20-20-20H76c-11 0-20 9-20 20s9 20 20 20h626c11 0 20-9 20-20z"/><path stroke-width="10" id="p" d="M449 174L421 0H50c0 24 0 26 11 37l192 214c55 62 105 141 105 221 0 82-43 163-134 163-58 0-112-37-135-102 3 1 5 1 13 1 35 0 53-26 53-52 0-41-35-53-52-53-3 0-53 0-53 56 0 89 74 181 187 181 122 0 212-80 212-194 0-100-60-154-216-292L127 77h180c22 0 88 0 95 8 10 15 17 59 22 89h25z"/><path stroke-width="10" id="q" d="M203 1c0-117-80-194-91-194-5 0-10 4-10 11 0 3 0 5 11 16 33 33 68 93 68 167 0 14-2 15-2 15s-2-1-5-3c-10-9-23-13-35-13-33 0-53 26-53 53 0 28 20 53 53 53 39 0 64-39 64-105z"/><path stroke-width="10" id="r" d="M430 107c0-12-84-118-227-118C99-11 41 68 41 158c0 141 133 284 268 284 71 0 118-37 118-86 0-40-27-64-56-64-19 0-37 11-37 35 0 7 2 24 18 39 14 14 28 14 44 14-14 27-52 40-86 40-55 0-110-43-141-100-34-62-54-159-54-200 0-60 27-109 90-109 12 0 121 0 200 99 6 8 8 10 13 10 6 0 12-7 12-13z"/><path stroke-width="10" id="s" d="M469 273c0-146-135-284-268-284-93 0-160 70-160 169 0 142 134 284 268 284 90 0 160-65 160-169zm-73 39c0 60-30 108-88 108-28 0-85-15-135-92-32-51-58-159-58-208 0-78 44-109 87-109 46 0 101 34 136 92 38 65 58 170 58 209z"/><path stroke-width="10" id="t" d="M571 143c0-8-37-154-131-154-47 0-82 35-82 82 0 11 1 23 10 46 16 43 65 171 65 233 0 33-9 70-54 70-95 0-148-91-163-122l-13-50c-5-23-11-45-17-67l-22-90c-6-25-18-72-19-74-7-20-25-28-37-28-15 0-29 9-29 27 0 5 6 28 9 43l58 231c13 52 16 63 16 84 0 33-11 46-31 46-36 0-56-48-73-119-6-22-7-23-17-23 0 0-12 0-12 10 0 4 14 63 30 97 10 18 29 57 75 57s87-31 92-87c17 23 66 87 156 87 72 0 115-40 115-107 0-57-42-167-61-220-9-22-18-46-18-71 0-23 7-33 24-33 49 0 82 56 102 124 5 15 5 18 15 18 3 0 12 0 12-10z"/><path stroke-width="10" id="u" d="M420 356c0-39-24-56-46-56s-31 15-31 29c0 22 20 44 48 45-15 39-65 46-90 46-88 0-112-61-112-90 0-45 40-52 76-60 44-9 73-14 100-42 12-12 31-37 31-73 0-45-39-166-201-166-86 0-143 40-143 97 0 45 30 66 56 66 21 0 37-12 37-35 0-28-25-58-63-53 23-53 100-53 114-53 120 0 143 84 143 110 0 55-52 66-104 76-29 6-103 21-103 99 0 44 37 146 169 146 76 0 119-41 119-86z"/><path stroke-width="10" id="v" d="M330 420c0-20-10-20-30-20h-94l-74-295c-4-17-6-24-6-48 0-33 10-46 31-46 34 0 87 24 130 128 5 11 6 14 15 14 4 0 12 0 12-10 0-8-57-154-159-154-54 0-92 38-92 92 0 18 4 35 76 319H51c-20 0-28 0-28 12 0 19 10 19 30 19h94l39 159c9 35 37 36 40 36 17 0 29-10 29-27 0-6-5-26-41-168h88c18 0 28 0 28-11z"/></defs><g stroke="currentColor" fill="currentColor" stroke-width="0" transform="scale(1 -1)"><use xlink:href="#a"/><use xlink:href="#b" x="1160"/><use xlink:href="#c" x="2221"/><use xlink:href="#d" x="2977"/><use xlink:href="#e" x="3483"/><use xlink:href="#c" x="3973"/><use xlink:href="#f" x="4507"/><use xlink:href="#g" x="4810"/><g transform="translate(5387)"><use xlink:href="#h"/><use transform="scale(.707)" xlink:href="#i" x="666" y="-213"/></g><use xlink:href="#j" x="6537"/><use xlink:href="#k" x="7542"/><use xlink:href="#l" x="8099"/><use xlink:href="#c" x="8493"/><use xlink:href="#m" x="9027"/><use xlink:href="#b" x="9699"/><use xlink:href="#l" x="10760"/><use xlink:href="#n" x="11154"/><use xlink:href="#o" x="12141"/><use xlink:href="#c" x="13146"/><use xlink:href="#m" x="13680"/><use xlink:href="#d" x="14296"/><use xlink:href="#e" x="14801"/><use xlink:href="#c" x="15291"/><use xlink:href="#f" x="15825"/><use xlink:href="#g" x="16128"/><g transform="translate(16705)"><use xlink:href="#h"/><use transform="scale(.707)" xlink:href="#p" x="666" y="-213"/></g><use xlink:href="#q" x="17634"/><use xlink:href="#n" x="18083"/><use xlink:href="#b" x="19126"/><use xlink:href="#r" x="20187"/><use xlink:href="#s" x="20625"/><use xlink:href="#t" x="21115"/><use xlink:href="#u" x="21720"/><use xlink:href="#v" x="22194"/><use xlink:href="#c" x="22560"/><use xlink:href="#t" x="23094"/><use xlink:href="#v" x="23699"/></g></svg>