<!--
\left.\begin{matrix}
v_1 = 18(-3a + 2b + 3c - d) \\
v_2 = 18(3a - b - 3c) \\
v_3 = 18(c - a)
\end{matrix}\right\}
\ C(t) = 0 \ \Rightarrow\ t = \frac{-v_2 \pm \sqrt{v_2^2 - 4v_1v_3}}{2v_1}
-->
<svg xmlns:xlink="http://www.w3.org/1999/xlink" width="70.333ex" height="9.667ex" style="vertical-align: -4.167ex; margin-bottom: 1px; margin-top: 1px;" viewBox="0 -2413.3 30312.1 4164.3" xmlns="http://www.w3.org/2000/svg">
<defs>
<path stroke-width="10" id="E1-LATINMODERNNORMAL-1D463" d="M468 372c0 -52 -57 -383 -225 -383c-46 0 -134 16 -134 124c0 43 13 89 57 205c7 18 17 45 17 70c0 32 -17 32 -25 32c-29 0 -72 -23 -101 -124c-5 -16 -6 -18 -16 -18c0 0 -12 0 -12 10c0 9 38 154 132 154c50 0 82 -37 82 -82c0 -19 -5 -33 -12 -50 c-31 -83 -58 -156 -58 -212c0 -52 23 -87 74 -87c117 0 178 229 178 271c0 36 -13 62 -34 82c-11 11 -16 17 -16 30c0 22 24 48 49 48c18 0 44 -16 44 -70Z"></path>
<path stroke-width="10" id="E1-LATINMODERNMAIN-31" d="M419 0c-35 3 -122 3 -162 3s-127 0 -162 -3v31h32c90 0 93 12 93 48v518c-52 -26 -111 -26 -131 -26v31c32 0 120 0 182 64c23 0 23 -2 23 -26v-561c0 -37 3 -48 93 -48h32v-31Z"></path>
<path stroke-width="10" id="E1-LATINMODERNMAIN-3D" d="M722 347c0 -11 -9 -20 -20 -20h-626c-11 0 -20 9 -20 20s9 20 20 20h626c11 0 20 -9 20 -20zM722 153c0 -11 -9 -20 -20 -20h-626c-11 0 -20 9 -20 20s9 20 20 20h626c11 0 20 -9 20 -20Z"></path>
<path stroke-width="10" id="E1-LATINMODERNMAIN-38" d="M457 168c0 -107 -95 -190 -208 -190c-105 0 -207 67 -207 173c0 99 86 155 144 184c-25 17 -62 42 -73 54c-42 47 -44 92 -44 110c0 93 81 167 181 167c91 0 180 -57 180 -149c0 -66 -49 -118 -121 -155c64 -40 80 -50 99 -71c38 -42 49 -87 49 -123zM386 517 c0 72 -64 124 -137 124c-71 0 -136 -42 -136 -103c0 -17 4 -51 50 -81l124 -80c60 35 99 83 99 140zM407 132c0 61 -47 91 -75 110l-123 78c-85 -47 -117 -111 -117 -169c0 -83 72 -145 158 -145c82 0 157 52 157 126Z"></path>
<path stroke-width="10" id="E1-LATINMODERNMAIN-28" d="M332 -238c0 -5 -5 -10 -10 -10c-2 0 -4 1 -6 2c-110 83 -215 283 -215 454v84c0 171 105 371 215 454c2 1 4 2 6 2c5 0 10 -5 10 -10c0 -3 -2 -6 -4 -8c-104 -78 -173 -278 -173 -438v-84c0 -160 69 -360 173 -438c2 -2 4 -5 4 -8Z"></path>
<path stroke-width="10" id="E1-LATINMODERNMAIN-2212" d="M722 250c0 -11 -9 -20 -20 -20h-626c-11 0 -20 9 -20 20s9 20 20 20h626c11 0 20 -9 20 -20Z"></path>
<path stroke-width="10" id="E1-LATINMODERNMAIN-33" d="M457 171c0 -102 -91 -193 -213 -193c-109 0 -202 66 -202 157c0 44 32 58 56 58c29 0 56 -20 56 -56c0 -38 -31 -60 -66 -55c35 -59 110 -76 153 -76c44 0 113 29 113 165c0 98 -37 166 -119 166h-44c-17 0 -24 0 -24 11c0 10 7 11 15 12c7 0 31 2 39 3c25 1 59 4 89 52 c26 44 28 102 28 114c0 90 -55 112 -96 112c-36 0 -102 -13 -133 -62c15 0 62 0 62 -50c0 -29 -20 -51 -51 -51c-29 0 -51 19 -51 52c0 76 76 136 177 136c96 0 184 -56 184 -138c0 -79 -58 -149 -140 -176c104 -21 167 -99 167 -181Z"></path>
<path stroke-width="10" id="E1-LATINMODERNNORMAL-1D44E" d="M498 143c0 0 -13 -63 -30 -99c-16 -32 -39 -55 -74 -55c-48 0 -83 33 -91 75c-60 -71 -110 -75 -130 -75c-78 0 -133 66 -133 160c0 146 124 293 241 293c45 0 74 -27 92 -64c3 22 18 44 42 44c17 0 29 -10 29 -27c0 -4 0 -6 -7 -34l-36 -140l-22 -90 c-11 -44 -13 -52 -13 -74c0 -20 3 -46 30 -46c41 0 59 59 76 124c3 14 4 18 14 18c3 0 12 0 12 -10zM361 332c0 6 -14 88 -79 88c-40 0 -85 -37 -116 -96c-23 -46 -55 -169 -55 -219c0 -39 14 -94 64 -94c28 0 69 16 113 71c15 17 15 19 20 37l50 196c1 5 3 11 3 17Z"></path>
<path stroke-width="10" id="E1-LATINMODERNMAIN-2B" d="M722 250c0 -11 -9 -20 -20 -20h-293v-293c0 -11 -9 -20 -20 -20s-20 9 -20 20v293h-293c-11 0 -20 9 -20 20s9 20 20 20h293v293c0 11 9 20 20 20s20 -9 20 -20v-293h293c11 0 20 -9 20 -20Z"></path>
<path stroke-width="10" id="E1-LATINMODERNMAIN-32" d="M449 174l-28 -174h-371c0 24 0 26 11 37l192 214c55 62 105 141 105 221c0 82 -43 163 -134 163c-58 0 -112 -37 -135 -102c3 1 5 1 13 1c35 0 53 -26 53 -52c0 -41 -35 -53 -52 -53c-3 0 -53 0 -53 56c0 89 74 181 187 181c122 0 212 -80 212 -194 c0 -100 -60 -154 -216 -292l-106 -103h180c22 0 88 0 95 8c10 15 17 59 22 89h25Z"></path>
<path stroke-width="10" id="E1-LATINMODERNNORMAL-1D44F" d="M415 282c0 -144 -123 -293 -241 -293c-74 0 -127 62 -127 157c0 35 4 51 16 101l82 326c5 21 14 55 14 62c0 10 -2 17 -50 17c-15 0 -24 0 -24 12c0 18 11 19 19 20c26 2 99 10 122 10c13 0 13 -11 13 -11l-74 -301c30 31 71 60 117 60c80 0 133 -69 133 -160zM343 326 c0 64 -27 94 -63 94c-26 0 -71 -15 -120 -80c-9 -11 -9 -13 -15 -35l-22 -92c-16 -63 -16 -82 -16 -101c0 -74 33 -101 67 -101c39 0 85 36 118 103c18 38 51 153 51 212Z"></path>
<path stroke-width="10" id="E1-LATINMODERNNORMAL-1D450" d="M430 107c0 -12 -84 -118 -227 -118c-104 0 -162 79 -162 169c0 141 133 284 268 284c71 0 118 -37 118 -86c0 -40 -27 -64 -56 -64c-19 0 -37 11 -37 35c0 7 2 24 18 39c14 14 28 14 44 14c-14 27 -52 40 -86 40c-55 0 -110 -43 -141 -100c-34 -62 -54 -159 -54 -200 c0 -60 27 -109 90 -109c12 0 121 0 200 99c6 8 8 10 13 10c6 0 12 -7 12 -13Z"></path>
<path stroke-width="10" id="E1-LATINMODERNNORMAL-1D451" d="M516 683l-144 -578c-4 -17 -6 -24 -6 -48c0 -20 3 -46 30 -46c41 0 59 59 76 124c3 14 4 18 14 18c3 0 12 0 12 -10c0 0 -13 -63 -30 -99c-16 -32 -39 -55 -74 -55c-48 0 -83 33 -91 75c-60 -71 -110 -75 -130 -75c-78 0 -133 66 -133 160c0 146 124 293 241 293 c45 0 74 -27 92 -64l60 237l3 20c0 10 -2 17 -50 17c-15 0 -24 0 -24 12c0 13 6 18 14 19c17 2 112 11 127 11c13 0 13 -11 13 -11zM361 332c0 6 -14 88 -79 88c-40 0 -85 -37 -116 -96c-23 -46 -55 -169 -55 -219c0 -39 14 -94 64 -94c28 0 69 16 113 71c15 17 15 19 20 37 l50 196c1 5 3 11 3 17Z"></path>
<path stroke-width="10" id="E1-LATINMODERNMAIN-29" d="M288 208c0 -171 -105 -371 -215 -454c-2 -1 -4 -2 -6 -2c-5 0 -10 5 -10 10c0 3 2 6 4 8c104 78 173 278 173 438v84c0 160 -69 360 -173 438c-2 2 -4 5 -4 8c0 5 5 10 10 10c2 0 4 -1 6 -2c110 -83 215 -283 215 -454v-84Z"></path>
<path stroke-width="10" id="E1-LATINMODERNMAIN-7D" d="M425 250c0 -7 -5 -12 -12 -12c-75 0 -130 -55 -130 -113v-250c0 -73 -91 -125 -196 -125c-7 0 -12 5 -12 12s5 12 12 12c75 0 130 49 130 101v250c0 58 48 104 115 125c-67 21 -115 67 -115 125v250c0 52 -55 101 -130 101c-7 0 -12 5 -12 12s5 12 12 12 c105 0 196 -52 196 -125v-250c0 -58 55 -113 130 -113c7 0 12 -5 12 -12Z"></path>
<path stroke-width="10" id="E1-LATINMODERNSYMBOLS-23AB" d="M502 0h-102v375c0 123 -98 274 -236 325c-10 3 -17 13 -17 24c0 14 12 26 26 26c3 0 6 -1 9 -2c169 -61 320 -222 320 -373v-375Z"></path>
<path stroke-width="10" id="E1-LATINMODERNSYMBOLS-23AD" d="M502 375c0 -151 -151 -312 -320 -373c-3 -1 -6 -2 -9 -2c-14 0 -26 12 -26 26c0 11 7 21 17 24c138 51 236 202 236 325v375h102v-375Z"></path>
<path stroke-width="10" id="E1-LATINMODERNSYMBOLS-23AC" d="M755 750c0 -11 -7 -21 -17 -24c-139 -51 -236 -214 -236 -351v-375h-102v375c0 147 120 300 265 375c-145 75 -265 228 -265 375v375h102v-375c0 -137 97 -300 236 -351c10 -3 17 -13 17 -24Z"></path>
<path stroke-width="10" id="E1-LATINMODERNSIZE7-E007" d="M502 0h-102v748h102v-748Z"></path>
<path stroke-width="10" id="E1-LATINMODERNNORMAL-1D436" d="M760 695l-63 -255c-5 -18 -5 -20 -18 -20c-4 0 -15 0 -15 10s3 11 3 51c0 116 -59 193 -161 193c-89 0 -183 -50 -244 -121c-100 -117 -121 -279 -121 -336c0 -156 106 -208 196 -208c52 0 115 17 184 73c69 58 92 129 101 158c2 8 7 10 13 10c0 0 12 0 12 -10 c0 -3 -17 -94 -110 -176c-53 -46 -129 -86 -216 -86c-153 0 -271 109 -271 274c0 232 225 453 448 453c111 0 157 -75 166 -89l70 77c11 11 12 12 15 12c9 0 11 -7 11 -10Z"></path>
<path stroke-width="10" id="E1-LATINMODERNNORMAL-1D461" d="M330 420c0 -20 -10 -20 -30 -20h-94l-74 -295c-4 -17 -6 -24 -6 -48c0 -33 10 -46 31 -46c34 0 87 24 130 128c5 11 6 14 15 14c4 0 12 0 12 -10c0 -8 -57 -154 -159 -154c-54 0 -92 38 -92 92c0 18 4 35 76 319h-88c-20 0 -28 0 -28 12c0 19 10 19 30 19h94l39 159 c9 35 37 36 40 36c17 0 29 -10 29 -27c0 -6 -5 -26 -41 -168h88c18 0 28 0 28 -11Z"></path>
<path stroke-width="10" id="E1-LATINMODERNMAIN-30" d="M460 320c0 -79 -5 -157 -37 -226c-44 -95 -120 -116 -174 -116c-49 0 -122 20 -165 101c-41 76 -45 166 -45 241c0 80 5 158 37 227c41 93 114 119 174 119c42 0 124 -16 170 -112c35 -74 40 -154 40 -234zM377 332c0 63 0 139 -10 195c-19 99 -85 117 -118 117 c-25 0 -100 -9 -119 -128c-8 -54 -8 -120 -8 -184c0 -59 0 -151 11 -211c18 -96 77 -121 116 -121c45 0 102 30 117 125c11 64 11 132 11 207Z"></path>
<path stroke-width="10" id="E1-LATINMODERNMAIN-21D2" d="M939 250c0 -6 -4 -11 -9 -13c-72 -19 -134 -60 -188 -107c-44 -39 -81 -86 -108 -139c-3 -7 -10 -11 -18 -11c-11 0 -20 9 -20 20c0 3 1 6 2 9c24 46 54 88 89 124h-607c-11 0 -20 9 -20 20s9 20 20 20h651c40 32 84 58 132 77c-48 19 -92 45 -132 77h-651 c-11 0 -20 9 -20 20s9 20 20 20h607c-35 36 -65 78 -89 124c-1 3 -2 6 -2 9c0 11 9 20 20 20c8 0 15 -4 18 -11c27 -53 64 -100 108 -139c54 -47 116 -88 188 -107c5 -2 9 -7 9 -13Z"></path>
<path stroke-width="10" id="E1-LATINMODERNMAIN-B1" d="M722 -64c0 -11 -9 -20 -20 -20h-626c-11 0 -20 9 -20 20s9 20 20 20h293v274h-293c-11 0 -20 9 -20 20s9 20 20 20h293v293c0 11 9 20 20 20s20 -9 20 -20v-293h293c11 0 20 -9 20 -20s-9 -20 -20 -20h-293v-274h293c11 0 20 -9 20 -20Z"></path>
<path stroke-width="10" id="E1-LATINMODERNMAIN-34" d="M471 165h-100v-87c0 -36 2 -47 76 -47h21v-31c-41 3 -94 3 -136 3s-94 0 -135 -3v31h21c74 0 76 11 76 47v87h-266v31l307 469c8 12 11 12 20 12c16 0 16 -6 16 -26v-455h100v-31zM300 196v373l-244 -373h244Z"></path>
<path stroke-width="10" id="E1-LATINMODERNSIZE2-221A" d="M1020 1130c0 0 0 -5 -5 -20l-549 -1736c-8 -24 -9 -24 -42 -24l-230 802l-68 -80l-16 15l139 163l215 -750l513 1624c4 13 8 26 23 26c12 0 20 -9 20 -20Z"></path>
</defs>
<g stroke="currentColor" fill="currentColor" stroke-width="0" transform="matrix(1 0 0 -1 0 0)">
<g transform="translate(167,0)">
<g transform="translate(-11,0)">
<g transform="translate(0,1437)">
 <use xlink:href="#E1-LATINMODERNNORMAL-1D463" x="0" y="0"></use>
 <use transform="scale(0.707)" xlink:href="#E1-LATINMODERNMAIN-31" x="692" y="-213"></use>
 <use xlink:href="#E1-LATINMODERNMAIN-3D" x="1224" y="0"></use>
<g transform="translate(2285,0)">
 <use xlink:href="#E1-LATINMODERNMAIN-31"></use>
 <use xlink:href="#E1-LATINMODERNMAIN-38" x="505" y="0"></use>
</g>
 <use xlink:href="#E1-LATINMODERNMAIN-28" x="3295" y="0"></use>
 <use xlink:href="#E1-LATINMODERNMAIN-2212" x="3689" y="0"></use>
 <use xlink:href="#E1-LATINMODERNMAIN-33" x="4472" y="0"></use>
 <use xlink:href="#E1-LATINMODERNNORMAL-1D44E" x="4977" y="0"></use>
 <use xlink:href="#E1-LATINMODERNMAIN-2B" x="5733" y="0"></use>
 <use xlink:href="#E1-LATINMODERNMAIN-32" x="6739" y="0"></use>
 <use xlink:href="#E1-LATINMODERNNORMAL-1D44F" x="7244" y="0"></use>
 <use xlink:href="#E1-LATINMODERNMAIN-2B" x="7900" y="0"></use>
 <use xlink:href="#E1-LATINMODERNMAIN-33" x="8905" y="0"></use>
 <use xlink:href="#E1-LATINMODERNNORMAL-1D450" x="9410" y="0"></use>
 <use xlink:href="#E1-LATINMODERNMAIN-2212" x="10070" y="0"></use>
 <use xlink:href="#E1-LATINMODERNNORMAL-1D451" x="11075" y="0"></use>
 <use xlink:href="#E1-LATINMODERNMAIN-29" x="11600" y="0"></use>
</g>
<g transform="translate(1520,-21)">
 <use xlink:href="#E1-LATINMODERNNORMAL-1D463" x="0" y="0"></use>
 <use transform="scale(0.707)" xlink:href="#E1-LATINMODERNMAIN-32" x="692" y="-213"></use>
 <use xlink:href="#E1-LATINMODERNMAIN-3D" x="1224" y="0"></use>
<g transform="translate(2285,0)">
 <use xlink:href="#E1-LATINMODERNMAIN-31"></use>
 <use xlink:href="#E1-LATINMODERNMAIN-38" x="505" y="0"></use>
</g>
 <use xlink:href="#E1-LATINMODERNMAIN-28" x="3295" y="0"></use>
 <use xlink:href="#E1-LATINMODERNMAIN-33" x="3689" y="0"></use>
 <use xlink:href="#E1-LATINMODERNNORMAL-1D44E" x="4194" y="0"></use>
 <use xlink:href="#E1-LATINMODERNMAIN-2212" x="4950" y="0"></use>
 <use xlink:href="#E1-LATINMODERNNORMAL-1D44F" x="5956" y="0"></use>
 <use xlink:href="#E1-LATINMODERNMAIN-2212" x="6612" y="0"></use>
 <use xlink:href="#E1-LATINMODERNMAIN-33" x="7617" y="0"></use>
 <use xlink:href="#E1-LATINMODERNNORMAL-1D450" x="8122" y="0"></use>
 <use xlink:href="#E1-LATINMODERNMAIN-29" x="8560" y="0"></use>
</g>
<g transform="translate(2855,-1479)">
 <use xlink:href="#E1-LATINMODERNNORMAL-1D463" x="0" y="0"></use>
 <use transform="scale(0.707)" xlink:href="#E1-LATINMODERNMAIN-33" x="692" y="-213"></use>
 <use xlink:href="#E1-LATINMODERNMAIN-3D" x="1224" y="0"></use>
<g transform="translate(2285,0)">
 <use xlink:href="#E1-LATINMODERNMAIN-31"></use>
 <use xlink:href="#E1-LATINMODERNMAIN-38" x="505" y="0"></use>
</g>
 <use xlink:href="#E1-LATINMODERNMAIN-28" x="3295" y="0"></use>
 <use xlink:href="#E1-LATINMODERNNORMAL-1D450" x="3689" y="0"></use>
 <use xlink:href="#E1-LATINMODERNMAIN-2212" x="4349" y="0"></use>
 <use xlink:href="#E1-LATINMODERNNORMAL-1D44E" x="5355" y="0"></use>
 <use xlink:href="#E1-LATINMODERNMAIN-29" x="5889" y="0"></use>
</g>
</g>
</g>
<g transform="translate(12318,2237)">
 <use xlink:href="#E1-LATINMODERNSYMBOLS-23AB" x="0" y="-760"></use>
<g transform="translate(0,-1269.7473958333333) scale(1,0.7252604166666666)">
 <use xlink:href="#E1-LATINMODERNSIZE7-E007"></use>
</g>
 <use xlink:href="#E1-LATINMODERNSYMBOLS-23AC" x="0" y="-2737"></use>
<g transform="translate(0,-3246.747395833333) scale(1,0.7252604166666666)">
 <use xlink:href="#E1-LATINMODERNSIZE7-E007"></use>
</g>
 <use xlink:href="#E1-LATINMODERNSYMBOLS-23AD" x="0" y="-3964"></use>
</g>
 <use xlink:href="#E1-LATINMODERNNORMAL-1D436" x="13724" y="0"></use>
 <use xlink:href="#E1-LATINMODERNMAIN-28" x="14489" y="0"></use>
 <use xlink:href="#E1-LATINMODERNNORMAL-1D461" x="14883" y="0"></use>
 <use xlink:href="#E1-LATINMODERNMAIN-29" x="15249" y="0"></use>
 <use xlink:href="#E1-LATINMODERNMAIN-3D" x="15920" y="0"></use>
 <use xlink:href="#E1-LATINMODERNMAIN-30" x="16981" y="0"></use>
 <use xlink:href="#E1-LATINMODERNMAIN-21D2" x="18096" y="0"></use>
 <use xlink:href="#E1-LATINMODERNNORMAL-1D461" x="19711" y="0"></use>
 <use xlink:href="#E1-LATINMODERNMAIN-3D" x="20355" y="0"></use>
<g transform="translate(21138,0)">
<g transform="translate(397,0)">
<rect stroke="none" width="8656" height="60" x="0" y="220"></rect>
<g transform="translate(60,1168)">
 <use xlink:href="#E1-LATINMODERNMAIN-2212" x="0" y="0"></use>
<g transform="translate(783,0)">
 <use xlink:href="#E1-LATINMODERNNORMAL-1D463" x="0" y="0"></use>
 <use transform="scale(0.707)" xlink:href="#E1-LATINMODERNMAIN-32" x="692" y="-213"></use>
</g>
 <use xlink:href="#E1-LATINMODERNMAIN-B1" x="1952" y="0"></use>
<g transform="translate(2957,0)">
 <use xlink:href="#E1-LATINMODERNSIZE2-221A" x="0" y="10"></use>
<rect stroke="none" width="4573" height="60" x="1005" y="1110"></rect>
<g transform="translate(1005,0)">
 <use xlink:href="#E1-LATINMODERNNORMAL-1D463" x="0" y="0"></use>
 <use transform="scale(0.707)" xlink:href="#E1-LATINMODERNMAIN-32" x="692" y="497"></use>
 <use transform="scale(0.707)" xlink:href="#E1-LATINMODERNMAIN-32" x="692" y="-444"></use>
 <use xlink:href="#E1-LATINMODERNMAIN-2212" x="1169" y="0"></use>
 <use xlink:href="#E1-LATINMODERNMAIN-34" x="2174" y="0"></use>
<g transform="translate(2679,0)">
 <use xlink:href="#E1-LATINMODERNNORMAL-1D463" x="0" y="0"></use>
 <use transform="scale(0.707)" xlink:href="#E1-LATINMODERNMAIN-31" x="692" y="-213"></use>
</g>
<g transform="translate(3626,0)">
 <use xlink:href="#E1-LATINMODERNNORMAL-1D463" x="0" y="0"></use>
 <use transform="scale(0.707)" xlink:href="#E1-LATINMODERNMAIN-33" x="692" y="-213"></use>
</g>
</g>
</g>
</g>
<g transform="translate(3602,-696)">
 <use xlink:href="#E1-LATINMODERNMAIN-32" x="0" y="0"></use>
<g transform="translate(505,0)">
 <use xlink:href="#E1-LATINMODERNNORMAL-1D463" x="0" y="0"></use>
 <use transform="scale(0.707)" xlink:href="#E1-LATINMODERNMAIN-31" x="692" y="-213"></use>
</g>
</g>
</g>
</g>
</g>
</svg>