<svg xmlns:xlink="http://www.w3.org/1999/xlink" width="70.333ex" height="9.667ex" style="vertical-align:-4.167ex;margin-bottom:1px;margin-top:1px" viewBox="0 -2413.3 30312.1 4164.3" xmlns="http://www.w3.org/2000/svg"><defs><path stroke-width="10" id="a" d="M468 372c0-52-57-383-225-383-46 0-134 16-134 124 0 43 13 89 57 205 7 18 17 45 17 70 0 32-17 32-25 32-29 0-72-23-101-124-5-16-6-18-16-18 0 0-12 0-12 10 0 9 38 154 132 154 50 0 82-37 82-82 0-19-5-33-12-50-31-83-58-156-58-212 0-52 23-87 74-87 117 0 178 229 178 271 0 36-13 62-34 82-11 11-16 17-16 30 0 22 24 48 49 48 18 0 44-16 44-70z"/><path stroke-width="10" id="b" d="M419 0c-35 3-122 3-162 3S130 3 95 0v31h32c90 0 93 12 93 48v518c-52-26-111-26-131-26v31c32 0 120 0 182 64 23 0 23-2 23-26V79c0-37 3-48 93-48h32V0z"/><path stroke-width="10" id="c" d="M722 347c0-11-9-20-20-20H76c-11 0-20 9-20 20s9 20 20 20h626c11 0 20-9 20-20zm0-194c0-11-9-20-20-20H76c-11 0-20 9-20 20s9 20 20 20h626c11 0 20-9 20-20z"/><path stroke-width="10" id="d" d="M457 168c0-107-95-190-208-190C144-22 42 45 42 151c0 99 86 155 144 184-25 17-62 42-73 54-42 47-44 92-44 110 0 93 81 167 181 167 91 0 180-57 180-149 0-66-49-118-121-155 64-40 80-50 99-71 38-42 49-87 49-123zm-71 349c0 72-64 124-137 124-71 0-136-42-136-103 0-17 4-51 50-81l124-80c60 35 99 83 99 140zm21-385c0 61-47 91-75 110l-123 78C124 273 92 209 92 151 92 68 164 6 250 6c82 0 157 52 157 126z"/><path stroke-width="10" id="e" d="M332-238c0-5-5-10-10-10-2 0-4 1-6 2-110 83-215 283-215 454v84c0 171 105 371 215 454 2 1 4 2 6 2 5 0 10-5 10-10 0-3-2-6-4-8-104-78-173-278-173-438v-84c0-160 69-360 173-438 2-2 4-5 4-8z"/><path stroke-width="10" id="f" d="M722 250c0-11-9-20-20-20H76c-11 0-20 9-20 20s9 20 20 20h626c11 0 20-9 20-20z"/><path stroke-width="10" id="g" d="M457 171c0-102-91-193-213-193C135-22 42 44 42 135c0 44 32 58 56 58 29 0 56-20 56-56 0-38-31-60-66-55C123 23 198 6 241 6c44 0 113 29 113 165 0 98-37 166-119 166h-44c-17 0-24 0-24 11 0 10 7 11 15 12 7 0 31 2 39 3 25 1 59 4 89 52 26 44 28 102 28 114 0 90-55 112-96 112-36 0-102-13-133-62 15 0 62 0 62-50 0-29-20-51-51-51-29 0-51 19-51 52 0 76 76 136 177 136 96 0 184-56 184-138 0-79-58-149-140-176 104-21 167-99 167-181z"/><path stroke-width="10" id="h" d="M498 143s-13-63-30-99c-16-32-39-55-74-55-48 0-83 33-91 75-60-71-110-75-130-75C95-11 40 55 40 149c0 146 124 293 241 293 45 0 74-27 92-64 3 22 18 44 42 44 17 0 29-10 29-27 0-4 0-6-7-34l-36-140-22-90c-11-44-13-52-13-74 0-20 3-46 30-46 41 0 59 59 76 124 3 14 4 18 14 18 3 0 12 0 12-10zM361 332c0 6-14 88-79 88-40 0-85-37-116-96-23-46-55-169-55-219 0-39 14-94 64-94 28 0 69 16 113 71 15 17 15 19 20 37l50 196c1 5 3 11 3 17z"/><path stroke-width="10" id="i" d="M722 250c0-11-9-20-20-20H409V-63c0-11-9-20-20-20s-20 9-20 20v293H76c-11 0-20 9-20 20s9 20 20 20h293v293c0 11 9 20 20 20s20-9 20-20V270h293c11 0 20-9 20-20z"/><path stroke-width="10" id="j" d="M449 174L421 0H50c0 24 0 26 11 37l192 214c55 62 105 141 105 221 0 82-43 163-134 163-58 0-112-37-135-102 3 1 5 1 13 1 35 0 53-26 53-52 0-41-35-53-52-53-3 0-53 0-53 56 0 89 74 181 187 181 122 0 212-80 212-194 0-100-60-154-216-292L127 77h180c22 0 88 0 95 8 10 15 17 59 22 89h25z"/><path stroke-width="10" id="k" d="M415 282c0-144-123-293-241-293-74 0-127 62-127 157 0 35 4 51 16 101l82 326c5 21 14 55 14 62 0 10-2 17-50 17-15 0-24 0-24 12 0 18 11 19 19 20 26 2 99 10 122 10 13 0 13-11 13-11l-74-301c30 31 71 60 117 60 80 0 133-69 133-160zm-72 44c0 64-27 94-63 94-26 0-71-15-120-80-9-11-9-13-15-35l-22-92c-16-63-16-82-16-101 0-74 33-101 67-101 39 0 85 36 118 103 18 38 51 153 51 212z"/><path stroke-width="10" id="l" d="M430 107c0-12-84-118-227-118C99-11 41 68 41 158c0 141 133 284 268 284 71 0 118-37 118-86 0-40-27-64-56-64-19 0-37 11-37 35 0 7 2 24 18 39 14 14 28 14 44 14-14 27-52 40-86 40-55 0-110-43-141-100-34-62-54-159-54-200 0-60 27-109 90-109 12 0 121 0 200 99 6 8 8 10 13 10 6 0 12-7 12-13z"/><path stroke-width="10" id="m" d="M516 683L372 105c-4-17-6-24-6-48 0-20 3-46 30-46 41 0 59 59 76 124 3 14 4 18 14 18 3 0 12 0 12-10 0 0-13-63-30-99-16-32-39-55-74-55-48 0-83 33-91 75-60-71-110-75-130-75C95-11 40 55 40 149c0 146 124 293 241 293 45 0 74-27 92-64l60 237 3 20c0 10-2 17-50 17-15 0-24 0-24 12 0 13 6 18 14 19 17 2 112 11 127 11 13 0 13-11 13-11zM361 332c0 6-14 88-79 88-40 0-85-37-116-96-23-46-55-169-55-219 0-39 14-94 64-94 28 0 69 16 113 71 15 17 15 19 20 37l50 196c1 5 3 11 3 17z"/><path stroke-width="10" id="n" d="M288 208c0-171-105-371-215-454-2-1-4-2-6-2-5 0-10 5-10 10 0 3 2 6 4 8 104 78 173 278 173 438v84c0 160-69 360-173 438-2 2-4 5-4 8 0 5 5 10 10 10 2 0 4-1 6-2 110-83 215-283 215-454v-84z"/><path stroke-width="10" id="o" d="M502 0H400v375c0 123-98 274-236 325-10 3-17 13-17 24 0 14 12 26 26 26 3 0 6-1 9-2 169-61 320-222 320-373V0z"/><path stroke-width="10" id="r" d="M502 375C502 224 351 63 182 2c-3-1-6-2-9-2-14 0-26 12-26 26 0 11 7 21 17 24 138 51 236 202 236 325v375h102V375z"/><path stroke-width="10" id="q" d="M755 750c0-11-7-21-17-24-139-51-236-214-236-351V0H400v375c0 147 120 300 265 375-145 75-265 228-265 375v375h102v-375c0-137 97-300 236-351 10-3 17-13 17-24z"/><path stroke-width="10" id="p" d="M502 0H400v748h102V0z"/><path stroke-width="10" id="s" d="M760 695l-63-255c-5-18-5-20-18-20-4 0-15 0-15 10s3 11 3 51c0 116-59 193-161 193-89 0-183-50-244-121-100-117-121-279-121-336C141 61 247 9 337 9c52 0 115 17 184 73 69 58 92 129 101 158 2 8 7 10 13 10 0 0 12 0 12-10 0-3-17-94-110-176-53-46-129-86-216-86C168-22 50 87 50 252c0 232 225 453 448 453 111 0 157-75 166-89l70 77c11 11 12 12 15 12 9 0 11-7 11-10z"/><path stroke-width="10" id="t" d="M330 420c0-20-10-20-30-20h-94l-74-295c-4-17-6-24-6-48 0-33 10-46 31-46 34 0 87 24 130 128 5 11 6 14 15 14 4 0 12 0 12-10 0-8-57-154-159-154-54 0-92 38-92 92 0 18 4 35 76 319H51c-20 0-28 0-28 12 0 19 10 19 30 19h94l39 159c9 35 37 36 40 36 17 0 29-10 29-27 0-6-5-26-41-168h88c18 0 28 0 28-11z"/><path stroke-width="10" id="u" d="M460 320c0-79-5-157-37-226C379-1 303-22 249-22 200-22 127-2 84 79c-41 76-45 166-45 241 0 80 5 158 37 227 41 93 114 119 174 119 42 0 124-16 170-112 35-74 40-154 40-234zm-83 12c0 63 0 139-10 195-19 99-85 117-118 117-25 0-100-9-119-128-8-54-8-120-8-184 0-59 0-151 11-211C151 25 210 0 249 0c45 0 102 30 117 125 11 64 11 132 11 207z"/><path stroke-width="10" id="v" d="M939 250c0-6-4-11-9-13-72-19-134-60-188-107-44-39-81-86-108-139-3-7-10-11-18-11-11 0-20 9-20 20 0 3 1 6 2 9 24 46 54 88 89 124H80c-11 0-20 9-20 20s9 20 20 20h651c40 32 84 58 132 77-48 19-92 45-132 77H80c-11 0-20 9-20 20s9 20 20 20h607c-35 36-65 78-89 124-1 3-2 6-2 9 0 11 9 20 20 20 8 0 15-4 18-11 27-53 64-100 108-139 54-47 116-88 188-107 5-2 9-7 9-13z"/><path stroke-width="10" id="w" d="M722-64c0-11-9-20-20-20H76c-11 0-20 9-20 20s9 20 20 20h293v274H76c-11 0-20 9-20 20s9 20 20 20h293v293c0 11 9 20 20 20s20-9 20-20V270h293c11 0 20-9 20-20s-9-20-20-20H409V-44h293c11 0 20-9 20-20z"/><path stroke-width="10" id="y" d="M471 165H371V78c0-36 2-47 76-47h21V0c-41 3-94 3-136 3s-94 0-135-3v31h21c74 0 76 11 76 47v87H28v31l307 469c8 12 11 12 20 12 16 0 16-6 16-26V196h100v-31zm-171 31v373L56 196h244z"/><path stroke-width="10" id="x" d="M1020 1130s0-5-5-20L466-626c-8-24-9-24-42-24L194 152l-68-80-16 15 139 163 215-750 513 1624c4 13 8 26 23 26 12 0 20-9 20-20z"/></defs><g stroke="currentColor" fill="currentColor" stroke-width="0" transform="scale(1 -1)"><g transform="translate(156 1437)"><use xlink:href="#a"/><use transform="scale(.707)" xlink:href="#b" x="692" y="-213"/><use xlink:href="#c" x="1224"/><g transform="translate(2285)"><use xlink:href="#b"/><use xlink:href="#d" x="505"/></g><use xlink:href="#e" x="3295"/><use xlink:href="#f" x="3689"/><use xlink:href="#g" x="4472"/><use xlink:href="#h" x="4977"/><use xlink:href="#i" x="5733"/><use xlink:href="#j" x="6739"/><use xlink:href="#k" x="7244"/><use xlink:href="#i" x="7900"/><use xlink:href="#g" x="8905"/><use xlink:href="#l" x="9410"/><use xlink:href="#f" x="10070"/><use xlink:href="#m" x="11075"/><use xlink:href="#n" x="11600"/></g><g transform="translate(1676 -21)"><use xlink:href="#a"/><use transform="scale(.707)" xlink:href="#j" x="692" y="-213"/><use xlink:href="#c" x="1224"/><g transform="translate(2285)"><use xlink:href="#b"/><use xlink:href="#d" x="505"/></g><use xlink:href="#e" x="3295"/><use xlink:href="#g" x="3689"/><use xlink:href="#h" x="4194"/><use xlink:href="#f" x="4950"/><use xlink:href="#k" x="5956"/><use xlink:href="#f" x="6612"/><use xlink:href="#g" x="7617"/><use xlink:href="#l" x="8122"/><use xlink:href="#n" x="8560"/></g><g transform="translate(3011 -1479)"><use xlink:href="#a"/><use transform="scale(.707)" xlink:href="#g" x="692" y="-213"/><use xlink:href="#c" x="1224"/><g transform="translate(2285)"><use xlink:href="#b"/><use xlink:href="#d" x="505"/></g><use xlink:href="#e" x="3295"/><use xlink:href="#l" x="3689"/><use xlink:href="#f" x="4349"/><use xlink:href="#h" x="5355"/><use xlink:href="#n" x="5889"/></g><g transform="translate(12318 2237)"><use xlink:href="#o" y="-760"/><use xlink:href="#p" transform="matrix(1 0 0 .72526 0 -1269.747)"/><use xlink:href="#q" y="-2737"/><use xlink:href="#p" transform="matrix(1 0 0 .72526 0 -3246.747)"/><use xlink:href="#r" y="-3964"/></g><use xlink:href="#s" x="13724"/><use xlink:href="#e" x="14489"/><use xlink:href="#t" x="14883"/><use xlink:href="#n" x="15249"/><use xlink:href="#c" x="15920"/><use xlink:href="#u" x="16981"/><use xlink:href="#v" x="18096"/><use xlink:href="#t" x="19711"/><use xlink:href="#c" x="20355"/><g><path stroke="none" d="M21535 220h8656v60h-8656z"/><g transform="translate(21595 1168)"><use xlink:href="#f"/><g transform="translate(783)"><use xlink:href="#a"/><use transform="scale(.707)" xlink:href="#j" x="692" y="-213"/></g><use xlink:href="#w" x="1952"/><g transform="translate(2957)"><use xlink:href="#x" y="10"/><path stroke="none" d="M1005 1110h4573v60H1005z"/><g transform="translate(1005)"><use xlink:href="#a"/><use transform="scale(.707)" xlink:href="#j" x="692" y="497"/><use transform="scale(.707)" xlink:href="#j" x="692" y="-444"/><use xlink:href="#f" x="1169"/><use xlink:href="#y" x="2174"/><g transform="translate(2679)"><use xlink:href="#a"/><use transform="scale(.707)" xlink:href="#b" x="692" y="-213"/></g><g transform="translate(3626)"><use xlink:href="#a"/><use transform="scale(.707)" xlink:href="#g" x="692" y="-213"/></g></g></g></g><g transform="translate(25137 -696)"><use xlink:href="#j"/><g transform="translate(505)"><use xlink:href="#a"/><use transform="scale(.707)" xlink:href="#b" x="692" y="-213"/></g></g></g></g></svg>