<!--
\begin{align*}
Bézier(t) &= x_1(1-t)^3 + 3x_2(1-t)^2t + 3x_3(1-t)t^2 + x_4t^3 \\
Bézier^\prime(t) &= a(1-t)^2 + 2b(1-t)^t + ct^2\  \left\{ a=3(x_2-x_1),b=3(x_3-x_2),c=3(x_4-x_3) \right\} \\
Bézier^{\prime\prime}(t) &= u(1-t) + vt\ \left\{ u=2(b-a),v=2(c-b) \right\}\
\end{align*}
-->
<svg xmlns:xlink="http://www.w3.org/1999/xlink" width="92.167ex" height="9.667ex" style="vertical-align: -4.333ex; margin-bottom: 1px; margin-top: 1px;" viewBox="0 -2347.3 39698.3 4194.5" xmlns="http://www.w3.org/2000/svg">
<defs>
<path stroke-width="10" id="E1-LATINMODERNNORMAL-1D435" d="M756 545c0 -95 -105 -169 -209 -188c97 -11 155 -69 155 -141c0 -98 -118 -216 -276 -216h-357c-18 0 -27 0 -27 11c0 20 10 20 27 20c79 0 81 8 91 47l134 537c3 12 4 15 4 19c0 13 -9 14 -27 16c-17 2 -38 2 -38 2c-19 0 -28 0 -28 11c0 20 10 20 29 20h336 c120 0 186 -64 186 -138zM665 549c0 44 -21 103 -109 103h-129c-43 0 -45 -3 -54 -38l-62 -248h146c122 0 208 95 208 183zM609 227c0 43 -19 117 -115 117h-189l-69 -279c-5 -18 -5 -20 -5 -23c0 -8 3 -9 13 -10c6 -1 8 -1 22 -1h136c118 0 207 97 207 196Z"></path>
<path stroke-width="10" id="E1-LATINMODERNLATIN-E9" d="M415 119c0 -19 -45 -130 -167 -130c-115 0 -220 97 -220 231c0 125 92 228 208 228c125 0 179 -97 179 -196c0 -21 -3 -21 -25 -21h-279c0 -36 0 -102 30 -150c23 -37 63 -67 113 -67c10 0 100 0 135 103c2 8 4 14 13 14c5 0 13 -2 13 -12zM349 252 c0 39 -10 174 -113 174c-34 0 -118 -25 -124 -174h237zM346 662c0 -12 -8 -23 -17 -30l-152 -122l-17 18l120 153c4 6 15 17 30 17c18 0 36 -18 36 -36Z"></path>
<path stroke-width="10" id="E1-LATINMODERNNORMAL-1D467" d="M467 432c0 -4 -22 -52 -117 -145c-36 -36 -98 -90 -98 -90c-36 -31 -65 -56 -119 -114c9 3 27 3 27 3c21 0 36 -4 70 -17c21 -7 39 -13 59 -13c33 0 97 19 120 84c3 7 5 13 14 13c8 0 12 -5 12 -10c0 -27 -58 -154 -157 -154c-29 0 -47 16 -64 37c-25 29 -35 38 -58 38 c-32 0 -62 -27 -85 -62c-6 -11 -8 -13 -16 -13c0 0 -12 0 -12 10c0 7 35 64 103 131l90 84c19 16 103 88 139 131c-26 0 -37 0 -77 15c-23 8 -42 15 -63 15c-8 0 -66 -1 -85 -47c-2 -6 -4 -11 -13 -11s-12 6 -12 11c0 21 46 114 121 114c33 0 50 -20 69 -43 c15 -17 27 -32 51 -32s45 16 75 64c5 9 8 11 15 11c0 0 11 0 11 -10Z"></path>
<path stroke-width="10" id="E1-LATINMODERNNORMAL-1D456" d="M284 625c0 -30 -30 -53 -53 -53c-24 0 -38 17 -38 36c0 27 27 53 54 53c23 0 37 -16 37 -36zM293 143c0 -9 -37 -154 -131 -154c-48 0 -82 35 -82 82c0 21 13 54 23 80c16 43 61 159 69 185c4 10 11 31 11 52c0 32 -17 32 -25 32c-34 0 -74 -30 -101 -124 c-5 -16 -6 -18 -16 -18c0 0 -12 0 -12 10c0 9 38 154 132 154c50 0 82 -37 82 -82c0 -19 -5 -33 -13 -53c-10 -27 -10 -29 -22 -58l-39 -105c-23 -61 -29 -75 -29 -100c0 -23 7 -33 24 -33c51 0 84 61 102 124c5 15 5 18 15 18c3 0 12 0 12 -10Z"></path>
<path stroke-width="10" id="E1-LATINMODERNNORMAL-1D452" d="M430 107c0 -12 -84 -118 -227 -118c-98 0 -157 79 -157 181c0 175 151 272 262 272c69 0 107 -41 107 -85c0 -14 -5 -73 -75 -103c-50 -21 -124 -23 -153 -23h-53c-15 -61 -16 -92 -16 -104c0 -32 9 -116 87 -116c12 0 121 0 200 99c6 8 8 10 13 10c6 0 12 -7 12 -13z M382 357c0 34 -27 63 -74 63c-26 0 -129 -15 -168 -167h41c41 0 201 0 201 104Z"></path>
<path stroke-width="10" id="E1-LATINMODERNNORMAL-1D45F" d="M436 377c0 -36 -28 -59 -55 -59s-38 19 -38 35c0 26 22 50 52 55c0 0 -16 12 -42 12c-43 0 -72 -26 -80 -33c-24 -22 -52 -69 -56 -82l-32 -130c-4 -18 -38 -154 -40 -158c-7 -20 -25 -28 -37 -28c-15 0 -29 9 -29 27c0 5 6 28 9 43l58 231c13 52 16 63 16 84 c0 38 -14 46 -31 46c-36 0 -56 -48 -73 -119c-6 -22 -7 -23 -17 -23c0 0 -12 0 -12 10c0 3 13 63 31 97c9 18 28 57 74 57c47 0 83 -32 91 -77c19 28 63 77 128 77c51 0 83 -30 83 -65Z"></path>
<path stroke-width="10" id="E1-LATINMODERNMAIN-28" d="M332 -238c0 -5 -5 -10 -10 -10c-2 0 -4 1 -6 2c-110 83 -215 283 -215 454v84c0 171 105 371 215 454c2 1 4 2 6 2c5 0 10 -5 10 -10c0 -3 -2 -6 -4 -8c-104 -78 -173 -278 -173 -438v-84c0 -160 69 -360 173 -438c2 -2 4 -5 4 -8Z"></path>
<path stroke-width="10" id="E1-LATINMODERNNORMAL-1D461" d="M330 420c0 -20 -10 -20 -30 -20h-94l-74 -295c-4 -17 -6 -24 -6 -48c0 -33 10 -46 31 -46c34 0 87 24 130 128c5 11 6 14 15 14c4 0 12 0 12 -10c0 -8 -57 -154 -159 -154c-54 0 -92 38 -92 92c0 18 4 35 76 319h-88c-20 0 -28 0 -28 12c0 19 10 19 30 19h94l39 159 c9 35 37 36 40 36c17 0 29 -10 29 -27c0 -6 -5 -26 -41 -168h88c18 0 28 0 28 -11Z"></path>
<path stroke-width="10" id="E1-LATINMODERNMAIN-29" d="M288 208c0 -171 -105 -371 -215 -454c-2 -1 -4 -2 -6 -2c-5 0 -10 5 -10 10c0 3 2 6 4 8c104 78 173 278 173 438v84c0 160 -69 360 -173 438c-2 2 -4 5 -4 8c0 5 5 10 10 10c2 0 4 -1 6 -2c110 -83 215 -283 215 -454v-84Z"></path>
<path stroke-width="10" id="E1-LATINMODERNMAIN-3D" d="M722 347c0 -11 -9 -20 -20 -20h-626c-11 0 -20 9 -20 20s9 20 20 20h626c11 0 20 -9 20 -20zM722 153c0 -11 -9 -20 -20 -20h-626c-11 0 -20 9 -20 20s9 20 20 20h626c11 0 20 -9 20 -20Z"></path>
<path stroke-width="10" id="E1-LATINMODERNNORMAL-1D465" d="M527 376c0 -40 -32 -58 -54 -58c-27 0 -38 19 -38 35c0 24 20 49 48 54c-21 13 -45 13 -50 13c-70 0 -93 -92 -99 -118l-34 -137c-11 -44 -17 -66 -17 -88c0 -34 16 -66 55 -66c32 0 100 24 133 131c2 7 4 11 13 11c3 0 12 0 12 -10c0 -25 -57 -154 -160 -154 c-60 0 -96 39 -108 76c-3 -6 -39 -76 -105 -76c-44 0 -94 20 -94 66c0 32 25 58 55 58c15 0 37 -8 37 -35c0 -28 -22 -49 -47 -54c21 -13 44 -13 50 -13c44 0 79 42 95 104c37 140 54 207 54 238c0 58 -35 67 -54 67c-34 0 -100 -25 -134 -131c-2 -9 -5 -11 -13 -11 c0 0 -12 0 -12 10c0 25 57 154 161 154c29 0 83 -10 108 -76c12 23 47 76 105 76c34 0 93 -14 93 -66Z"></path>
<path stroke-width="10" id="E1-LATINMODERNMAIN-31" d="M419 0c-35 3 -122 3 -162 3s-127 0 -162 -3v31h32c90 0 93 12 93 48v518c-52 -26 -111 -26 -131 -26v31c32 0 120 0 182 64c23 0 23 -2 23 -26v-561c0 -37 3 -48 93 -48h32v-31Z"></path>
<path stroke-width="10" id="E1-LATINMODERNMAIN-2212" d="M722 250c0 -11 -9 -20 -20 -20h-626c-11 0 -20 9 -20 20s9 20 20 20h626c11 0 20 -9 20 -20Z"></path>
<path stroke-width="10" id="E1-LATINMODERNMAIN-33" d="M457 171c0 -102 -91 -193 -213 -193c-109 0 -202 66 -202 157c0 44 32 58 56 58c29 0 56 -20 56 -56c0 -38 -31 -60 -66 -55c35 -59 110 -76 153 -76c44 0 113 29 113 165c0 98 -37 166 -119 166h-44c-17 0 -24 0 -24 11c0 10 7 11 15 12c7 0 31 2 39 3c25 1 59 4 89 52 c26 44 28 102 28 114c0 90 -55 112 -96 112c-36 0 -102 -13 -133 -62c15 0 62 0 62 -50c0 -29 -20 -51 -51 -51c-29 0 -51 19 -51 52c0 76 76 136 177 136c96 0 184 -56 184 -138c0 -79 -58 -149 -140 -176c104 -21 167 -99 167 -181Z"></path>
<path stroke-width="10" id="E1-LATINMODERNMAIN-2B" d="M722 250c0 -11 -9 -20 -20 -20h-293v-293c0 -11 -9 -20 -20 -20s-20 9 -20 20v293h-293c-11 0 -20 9 -20 20s9 20 20 20h293v293c0 11 9 20 20 20s20 -9 20 -20v-293h293c11 0 20 -9 20 -20Z"></path>
<path stroke-width="10" id="E1-LATINMODERNMAIN-32" d="M449 174l-28 -174h-371c0 24 0 26 11 37l192 214c55 62 105 141 105 221c0 82 -43 163 -134 163c-58 0 -112 -37 -135 -102c3 1 5 1 13 1c35 0 53 -26 53 -52c0 -41 -35 -53 -52 -53c-3 0 -53 0 -53 56c0 89 74 181 187 181c122 0 212 -80 212 -194 c0 -100 -60 -154 -216 -292l-106 -103h180c22 0 88 0 95 8c10 15 17 59 22 89h25Z"></path>
<path stroke-width="10" id="E1-LATINMODERNMAIN-34" d="M471 165h-100v-87c0 -36 2 -47 76 -47h21v-31c-41 3 -94 3 -136 3s-94 0 -135 -3v31h21c74 0 76 11 76 47v87h-266v31l307 469c8 12 11 12 20 12c16 0 16 -6 16 -26v-455h100v-31zM300 196v373l-244 -373h244Z"></path>
<path stroke-width="10" id="E1-LATINMODERNMAIN-2032" d="M251 710c0 -7 -2 -14 -6 -19l-158 -261h-27l120 297c4 11 18 21 33 21c21 0 38 -17 38 -38Z"></path>
<path stroke-width="10" id="E1-LATINMODERNNORMAL-1D44E" d="M498 143c0 0 -13 -63 -30 -99c-16 -32 -39 -55 -74 -55c-48 0 -83 33 -91 75c-60 -71 -110 -75 -130 -75c-78 0 -133 66 -133 160c0 146 124 293 241 293c45 0 74 -27 92 -64c3 22 18 44 42 44c17 0 29 -10 29 -27c0 -4 0 -6 -7 -34l-36 -140l-22 -90 c-11 -44 -13 -52 -13 -74c0 -20 3 -46 30 -46c41 0 59 59 76 124c3 14 4 18 14 18c3 0 12 0 12 -10zM361 332c0 6 -14 88 -79 88c-40 0 -85 -37 -116 -96c-23 -46 -55 -169 -55 -219c0 -39 14 -94 64 -94c28 0 69 16 113 71c15 17 15 19 20 37l50 196c1 5 3 11 3 17Z"></path>
<path stroke-width="10" id="E1-LATINMODERNNORMAL-1D44F" d="M415 282c0 -144 -123 -293 -241 -293c-74 0 -127 62 -127 157c0 35 4 51 16 101l82 326c5 21 14 55 14 62c0 10 -2 17 -50 17c-15 0 -24 0 -24 12c0 18 11 19 19 20c26 2 99 10 122 10c13 0 13 -11 13 -11l-74 -301c30 31 71 60 117 60c80 0 133 -69 133 -160zM343 326 c0 64 -27 94 -63 94c-26 0 -71 -15 -120 -80c-9 -11 -9 -13 -15 -35l-22 -92c-16 -63 -16 -82 -16 -101c0 -74 33 -101 67 -101c39 0 85 36 118 103c18 38 51 153 51 212Z"></path>
<path stroke-width="10" id="E1-LATINMODERNNORMAL-1D450" d="M430 107c0 -12 -84 -118 -227 -118c-104 0 -162 79 -162 169c0 141 133 284 268 284c71 0 118 -37 118 -86c0 -40 -27 -64 -56 -64c-19 0 -37 11 -37 35c0 7 2 24 18 39c14 14 28 14 44 14c-14 27 -52 40 -86 40c-55 0 -110 -43 -141 -100c-34 -62 -54 -159 -54 -200 c0 -60 27 -109 90 -109c12 0 121 0 200 99c6 8 8 10 13 10c6 0 12 -7 12 -13Z"></path>
<path stroke-width="10" id="E1-LATINMODERNMAIN-7B" d="M425 -238c0 -7 -5 -12 -12 -12c-105 0 -196 52 -196 125v250c0 58 -55 113 -130 113c-7 0 -12 5 -12 12s5 12 12 12c75 0 130 55 130 113v250c0 73 91 125 196 125c7 0 12 -5 12 -12s-5 -12 -12 -12c-75 0 -130 -49 -130 -101v-250c0 -58 -48 -104 -115 -125 c67 -21 115 -67 115 -125v-250c0 -52 55 -101 130 -101c7 0 12 -5 12 -12Z"></path>
<path stroke-width="10" id="E1-LATINMODERNMAIN-2C" d="M203 1c0 -117 -80 -194 -91 -194c-5 0 -10 4 -10 11c0 3 0 5 11 16c33 33 68 93 68 167c0 14 -2 15 -2 15s-2 -1 -5 -3c-10 -9 -23 -13 -35 -13c-33 0 -53 26 -53 53c0 28 20 53 53 53c39 0 64 -39 64 -105Z"></path>
<path stroke-width="10" id="E1-LATINMODERNMAIN-7D" d="M425 250c0 -7 -5 -12 -12 -12c-75 0 -130 -55 -130 -113v-250c0 -73 -91 -125 -196 -125c-7 0 -12 5 -12 12s5 12 12 12c75 0 130 49 130 101v250c0 58 48 104 115 125c-67 21 -115 67 -115 125v250c0 52 -55 101 -130 101c-7 0 -12 5 -12 12s5 12 12 12 c105 0 196 -52 196 -125v-250c0 -58 55 -113 130 -113c7 0 12 -5 12 -12Z"></path>
<path stroke-width="10" id="E1-LATINMODERNNORMAL-1D462" d="M543 143c0 0 -13 -63 -30 -99c-16 -32 -39 -55 -74 -55c-43 0 -78 26 -89 67c-17 -22 -53 -67 -119 -67c-54 0 -123 25 -123 120c0 49 21 111 58 210c6 15 17 44 17 68c0 32 -16 33 -25 33c-38 0 -76 -37 -101 -124c-5 -16 -6 -18 -16 -18c0 0 -12 0 -12 10 c0 9 37 154 132 154c50 0 82 -37 82 -82c0 -19 -5 -33 -17 -63c-26 -69 -54 -148 -54 -204c0 -37 10 -82 62 -82c73 0 113 80 114 84l75 301c8 34 34 35 39 35c15 0 29 -9 29 -27c0 -6 -10 -44 -15 -67c-4 -15 -14 -53 -17 -68l-28 -108c-8 -35 -20 -82 -20 -104 c0 -33 10 -46 31 -46c42 0 61 68 75 124c3 14 4 18 14 18c3 0 12 0 12 -10Z"></path>
<path stroke-width="10" id="E1-LATINMODERNNORMAL-1D463" d="M468 372c0 -52 -57 -383 -225 -383c-46 0 -134 16 -134 124c0 43 13 89 57 205c7 18 17 45 17 70c0 32 -17 32 -25 32c-29 0 -72 -23 -101 -124c-5 -16 -6 -18 -16 -18c0 0 -12 0 -12 10c0 9 38 154 132 154c50 0 82 -37 82 -82c0 -19 -5 -33 -12 -50 c-31 -83 -58 -156 -58 -212c0 -52 23 -87 74 -87c117 0 178 229 178 271c0 36 -13 62 -34 82c-11 11 -16 17 -16 30c0 22 24 48 49 48c18 0 44 -16 44 -70Z"></path>
</defs>
<g stroke="currentColor" fill="currentColor" stroke-width="0" transform="matrix(1 0 0 -1 0 0)">
<g transform="translate(167,0)">
<g transform="translate(-11,0)">
<g transform="translate(546,1442)">
 <use xlink:href="#E1-LATINMODERNNORMAL-1D435" x="0" y="0"></use>
 <use xlink:href="#E1-LATINMODERNLATIN-E9" x="764" y="0"></use>
 <use xlink:href="#E1-LATINMODERNNORMAL-1D467" x="1213" y="0"></use>
 <use xlink:href="#E1-LATINMODERNNORMAL-1D456" x="1685" y="0"></use>
 <use xlink:href="#E1-LATINMODERNNORMAL-1D452" x="2035" y="0"></use>
 <use xlink:href="#E1-LATINMODERNNORMAL-1D45F" x="2506" y="0"></use>
 <use xlink:href="#E1-LATINMODERNMAIN-28" x="2962" y="0"></use>
 <use xlink:href="#E1-LATINMODERNNORMAL-1D461" x="3356" y="0"></use>
 <use xlink:href="#E1-LATINMODERNMAIN-29" x="3722" y="0"></use>
</g>
<g transform="translate(223,-65)">
 <use xlink:href="#E1-LATINMODERNNORMAL-1D435" x="0" y="0"></use>
 <use xlink:href="#E1-LATINMODERNLATIN-E9" x="764" y="0"></use>
 <use xlink:href="#E1-LATINMODERNNORMAL-1D467" x="1213" y="0"></use>
 <use xlink:href="#E1-LATINMODERNNORMAL-1D456" x="1685" y="0"></use>
 <use xlink:href="#E1-LATINMODERNNORMAL-1D452" x="2035" y="0"></use>
<g transform="translate(2506,0)">
 <use xlink:href="#E1-LATINMODERNNORMAL-1D45F" x="0" y="0"></use>
 <use transform="scale(0.707)" xlink:href="#E1-LATINMODERNMAIN-2032" x="644" y="583"></use>
</g>
 <use xlink:href="#E1-LATINMODERNMAIN-28" x="3285" y="0"></use>
 <use xlink:href="#E1-LATINMODERNNORMAL-1D461" x="3679" y="0"></use>
 <use xlink:href="#E1-LATINMODERNMAIN-29" x="4045" y="0"></use>
</g>
<g transform="translate(0,-1574)">
 <use xlink:href="#E1-LATINMODERNNORMAL-1D435" x="0" y="0"></use>
 <use xlink:href="#E1-LATINMODERNLATIN-E9" x="764" y="0"></use>
 <use xlink:href="#E1-LATINMODERNNORMAL-1D467" x="1213" y="0"></use>
 <use xlink:href="#E1-LATINMODERNNORMAL-1D456" x="1685" y="0"></use>
 <use xlink:href="#E1-LATINMODERNNORMAL-1D452" x="2035" y="0"></use>
<g transform="translate(2506,0)">
 <use xlink:href="#E1-LATINMODERNNORMAL-1D45F" x="0" y="0"></use>
<g transform="translate(456,412)">
 <use transform="scale(0.707)" xlink:href="#E1-LATINMODERNMAIN-2032" x="0" y="0"></use>
 <use transform="scale(0.707)" xlink:href="#E1-LATINMODERNMAIN-2032" x="316" y="0"></use>
</g>
</g>
 <use xlink:href="#E1-LATINMODERNMAIN-28" x="3508" y="0"></use>
 <use xlink:href="#E1-LATINMODERNNORMAL-1D461" x="3902" y="0"></use>
 <use xlink:href="#E1-LATINMODERNMAIN-29" x="4268" y="0"></use>
</g>
</g>
<g transform="translate(4652,0)">
<g transform="translate(0,1442)">
 <use xlink:href="#E1-LATINMODERNMAIN-3D" x="277" y="0"></use>
<g transform="translate(1338,0)">
 <use xlink:href="#E1-LATINMODERNNORMAL-1D465" x="0" y="0"></use>
 <use transform="scale(0.707)" xlink:href="#E1-LATINMODERNMAIN-31" x="816" y="-213"></use>
</g>
 <use xlink:href="#E1-LATINMODERNMAIN-28" x="2372" y="0"></use>
 <use xlink:href="#E1-LATINMODERNMAIN-31" x="2766" y="0"></use>
 <use xlink:href="#E1-LATINMODERNMAIN-2212" x="3493" y="0"></use>
 <use xlink:href="#E1-LATINMODERNNORMAL-1D461" x="4499" y="0"></use>
<g transform="translate(4865,0)">
 <use xlink:href="#E1-LATINMODERNMAIN-29" x="0" y="0"></use>
 <use transform="scale(0.707)" xlink:href="#E1-LATINMODERNMAIN-33" x="557" y="583"></use>
</g>
 <use xlink:href="#E1-LATINMODERNMAIN-2B" x="5938" y="0"></use>
 <use xlink:href="#E1-LATINMODERNMAIN-33" x="6943" y="0"></use>
<g transform="translate(7448,0)">
 <use xlink:href="#E1-LATINMODERNNORMAL-1D465" x="0" y="0"></use>
 <use transform="scale(0.707)" xlink:href="#E1-LATINMODERNMAIN-32" x="816" y="-213"></use>
</g>
 <use xlink:href="#E1-LATINMODERNMAIN-28" x="8482" y="0"></use>
 <use xlink:href="#E1-LATINMODERNMAIN-31" x="8876" y="0"></use>
 <use xlink:href="#E1-LATINMODERNMAIN-2212" x="9603" y="0"></use>
 <use xlink:href="#E1-LATINMODERNNORMAL-1D461" x="10609" y="0"></use>
<g transform="translate(10975,0)">
 <use xlink:href="#E1-LATINMODERNMAIN-29" x="0" y="0"></use>
 <use transform="scale(0.707)" xlink:href="#E1-LATINMODERNMAIN-32" x="557" y="583"></use>
</g>
 <use xlink:href="#E1-LATINMODERNNORMAL-1D461" x="11826" y="0"></use>
 <use xlink:href="#E1-LATINMODERNMAIN-2B" x="12414" y="0"></use>
 <use xlink:href="#E1-LATINMODERNMAIN-33" x="13419" y="0"></use>
<g transform="translate(13924,0)">
 <use xlink:href="#E1-LATINMODERNNORMAL-1D465" x="0" y="0"></use>
 <use transform="scale(0.707)" xlink:href="#E1-LATINMODERNMAIN-33" x="816" y="-213"></use>
</g>
 <use xlink:href="#E1-LATINMODERNMAIN-28" x="14958" y="0"></use>
 <use xlink:href="#E1-LATINMODERNMAIN-31" x="15352" y="0"></use>
 <use xlink:href="#E1-LATINMODERNMAIN-2212" x="16080" y="0"></use>
 <use xlink:href="#E1-LATINMODERNNORMAL-1D461" x="17085" y="0"></use>
 <use xlink:href="#E1-LATINMODERNMAIN-29" x="17451" y="0"></use>
<g transform="translate(17845,0)">
 <use xlink:href="#E1-LATINMODERNNORMAL-1D461" x="0" y="0"></use>
 <use transform="scale(0.707)" xlink:href="#E1-LATINMODERNMAIN-32" x="517" y="583"></use>
</g>
 <use xlink:href="#E1-LATINMODERNMAIN-2B" x="18890" y="0"></use>
<g transform="translate(19895,0)">
 <use xlink:href="#E1-LATINMODERNNORMAL-1D465" x="0" y="0"></use>
 <use transform="scale(0.707)" xlink:href="#E1-LATINMODERNMAIN-34" x="816" y="-213"></use>
</g>
<g transform="translate(20929,0)">
 <use xlink:href="#E1-LATINMODERNNORMAL-1D461" x="0" y="0"></use>
 <use transform="scale(0.707)" xlink:href="#E1-LATINMODERNMAIN-33" x="517" y="583"></use>
</g>
</g>
<g transform="translate(0,-65)">
 <use xlink:href="#E1-LATINMODERNMAIN-3D" x="277" y="0"></use>
 <use xlink:href="#E1-LATINMODERNNORMAL-1D44E" x="1338" y="0"></use>
 <use xlink:href="#E1-LATINMODERNMAIN-28" x="1872" y="0"></use>
 <use xlink:href="#E1-LATINMODERNMAIN-31" x="2266" y="0"></use>
 <use xlink:href="#E1-LATINMODERNMAIN-2212" x="2993" y="0"></use>
 <use xlink:href="#E1-LATINMODERNNORMAL-1D461" x="3999" y="0"></use>
<g transform="translate(4365,0)">
 <use xlink:href="#E1-LATINMODERNMAIN-29" x="0" y="0"></use>
 <use transform="scale(0.707)" xlink:href="#E1-LATINMODERNMAIN-32" x="557" y="583"></use>
</g>
 <use xlink:href="#E1-LATINMODERNMAIN-2B" x="5438" y="0"></use>
 <use xlink:href="#E1-LATINMODERNMAIN-32" x="6443" y="0"></use>
 <use xlink:href="#E1-LATINMODERNNORMAL-1D44F" x="6948" y="0"></use>
 <use xlink:href="#E1-LATINMODERNMAIN-28" x="7382" y="0"></use>
 <use xlink:href="#E1-LATINMODERNMAIN-31" x="7776" y="0"></use>
 <use xlink:href="#E1-LATINMODERNMAIN-2212" x="8503" y="0"></use>
 <use xlink:href="#E1-LATINMODERNNORMAL-1D461" x="9508" y="0"></use>
<g transform="translate(9874,0)">
 <use xlink:href="#E1-LATINMODERNMAIN-29" x="0" y="0"></use>
 <use transform="scale(0.707)" xlink:href="#E1-LATINMODERNNORMAL-1D461" x="557" y="583"></use>
</g>
 <use xlink:href="#E1-LATINMODERNMAIN-2B" x="10850" y="0"></use>
 <use xlink:href="#E1-LATINMODERNNORMAL-1D450" x="11855" y="0"></use>
<g transform="translate(12293,0)">
 <use xlink:href="#E1-LATINMODERNNORMAL-1D461" x="0" y="0"></use>
 <use transform="scale(0.707)" xlink:href="#E1-LATINMODERNMAIN-32" x="517" y="583"></use>
</g>
<g transform="translate(13614,0)">
 <use xlink:href="#E1-LATINMODERNMAIN-7B" x="0" y="0"></use>
 <use xlink:href="#E1-LATINMODERNNORMAL-1D44E" x="505" y="0"></use>
 <use xlink:href="#E1-LATINMODERNMAIN-3D" x="1316" y="0"></use>
 <use xlink:href="#E1-LATINMODERNMAIN-33" x="2377" y="0"></use>
 <use xlink:href="#E1-LATINMODERNMAIN-28" x="2882" y="0"></use>
<g transform="translate(3276,0)">
 <use xlink:href="#E1-LATINMODERNNORMAL-1D465" x="0" y="0"></use>
 <use transform="scale(0.707)" xlink:href="#E1-LATINMODERNMAIN-32" x="816" y="-213"></use>
</g>
 <use xlink:href="#E1-LATINMODERNMAIN-2212" x="4532" y="0"></use>
<g transform="translate(5538,0)">
 <use xlink:href="#E1-LATINMODERNNORMAL-1D465" x="0" y="0"></use>
 <use transform="scale(0.707)" xlink:href="#E1-LATINMODERNMAIN-31" x="816" y="-213"></use>
</g>
 <use xlink:href="#E1-LATINMODERNMAIN-29" x="6572" y="0"></use>
 <use xlink:href="#E1-LATINMODERNMAIN-2C" x="6966" y="0"></use>
 <use xlink:href="#E1-LATINMODERNNORMAL-1D44F" x="7415" y="0"></use>
 <use xlink:href="#E1-LATINMODERNMAIN-3D" x="8127" y="0"></use>
 <use xlink:href="#E1-LATINMODERNMAIN-33" x="9188" y="0"></use>
 <use xlink:href="#E1-LATINMODERNMAIN-28" x="9693" y="0"></use>
<g transform="translate(10087,0)">
 <use xlink:href="#E1-LATINMODERNNORMAL-1D465" x="0" y="0"></use>
 <use transform="scale(0.707)" xlink:href="#E1-LATINMODERNMAIN-33" x="816" y="-213"></use>
</g>
 <use xlink:href="#E1-LATINMODERNMAIN-2212" x="11343" y="0"></use>
<g transform="translate(12348,0)">
 <use xlink:href="#E1-LATINMODERNNORMAL-1D465" x="0" y="0"></use>
 <use transform="scale(0.707)" xlink:href="#E1-LATINMODERNMAIN-32" x="816" y="-213"></use>
</g>
 <use xlink:href="#E1-LATINMODERNMAIN-29" x="13383" y="0"></use>
 <use xlink:href="#E1-LATINMODERNMAIN-2C" x="13777" y="0"></use>
 <use xlink:href="#E1-LATINMODERNNORMAL-1D450" x="14226" y="0"></use>
 <use xlink:href="#E1-LATINMODERNMAIN-3D" x="14942" y="0"></use>
 <use xlink:href="#E1-LATINMODERNMAIN-33" x="16003" y="0"></use>
 <use xlink:href="#E1-LATINMODERNMAIN-28" x="16508" y="0"></use>
<g transform="translate(16902,0)">
 <use xlink:href="#E1-LATINMODERNNORMAL-1D465" x="0" y="0"></use>
 <use transform="scale(0.707)" xlink:href="#E1-LATINMODERNMAIN-34" x="816" y="-213"></use>
</g>
 <use xlink:href="#E1-LATINMODERNMAIN-2212" x="18158" y="0"></use>
<g transform="translate(19163,0)">
 <use xlink:href="#E1-LATINMODERNNORMAL-1D465" x="0" y="0"></use>
 <use transform="scale(0.707)" xlink:href="#E1-LATINMODERNMAIN-33" x="816" y="-213"></use>
</g>
 <use xlink:href="#E1-LATINMODERNMAIN-29" x="20197" y="0"></use>
 <use xlink:href="#E1-LATINMODERNMAIN-7D" x="20591" y="0"></use>
</g>
</g>
<g transform="translate(0,-1574)">
 <use xlink:href="#E1-LATINMODERNMAIN-3D" x="277" y="0"></use>
 <use xlink:href="#E1-LATINMODERNNORMAL-1D462" x="1338" y="0"></use>
 <use xlink:href="#E1-LATINMODERNMAIN-28" x="1915" y="0"></use>
 <use xlink:href="#E1-LATINMODERNMAIN-31" x="2309" y="0"></use>
 <use xlink:href="#E1-LATINMODERNMAIN-2212" x="3036" y="0"></use>
 <use xlink:href="#E1-LATINMODERNNORMAL-1D461" x="4042" y="0"></use>
 <use xlink:href="#E1-LATINMODERNMAIN-29" x="4408" y="0"></use>
 <use xlink:href="#E1-LATINMODERNMAIN-2B" x="5024" y="0"></use>
 <use xlink:href="#E1-LATINMODERNNORMAL-1D463" x="6029" y="0"></use>
 <use xlink:href="#E1-LATINMODERNNORMAL-1D461" x="6519" y="0"></use>
<g transform="translate(7384,0)">
 <use xlink:href="#E1-LATINMODERNMAIN-7B" x="0" y="0"></use>
 <use xlink:href="#E1-LATINMODERNNORMAL-1D462" x="505" y="0"></use>
 <use xlink:href="#E1-LATINMODERNMAIN-3D" x="1359" y="0"></use>
 <use xlink:href="#E1-LATINMODERNMAIN-32" x="2420" y="0"></use>
 <use xlink:href="#E1-LATINMODERNMAIN-28" x="2925" y="0"></use>
 <use xlink:href="#E1-LATINMODERNNORMAL-1D44F" x="3319" y="0"></use>
 <use xlink:href="#E1-LATINMODERNMAIN-2212" x="3975" y="0"></use>
 <use xlink:href="#E1-LATINMODERNNORMAL-1D44E" x="4981" y="0"></use>
 <use xlink:href="#E1-LATINMODERNMAIN-29" x="5515" y="0"></use>
 <use xlink:href="#E1-LATINMODERNMAIN-2C" x="5909" y="0"></use>
 <use xlink:href="#E1-LATINMODERNNORMAL-1D463" x="6358" y="0"></use>
 <use xlink:href="#E1-LATINMODERNMAIN-3D" x="7126" y="0"></use>
 <use xlink:href="#E1-LATINMODERNMAIN-32" x="8187" y="0"></use>
 <use xlink:href="#E1-LATINMODERNMAIN-28" x="8692" y="0"></use>
 <use xlink:href="#E1-LATINMODERNNORMAL-1D450" x="9086" y="0"></use>
 <use xlink:href="#E1-LATINMODERNMAIN-2212" x="9746" y="0"></use>
 <use xlink:href="#E1-LATINMODERNNORMAL-1D44F" x="10751" y="0"></use>
 <use xlink:href="#E1-LATINMODERNMAIN-29" x="11185" y="0"></use>
 <use xlink:href="#E1-LATINMODERNMAIN-7D" x="11579" y="0"></use>
</g>
</g>
</g>
</g>
</g>
</svg>