<!--
C(t) = Bézier_x^\prime(t) * Bézier_y^{\prime\prime}(t) - Bézier_y^\prime(t) * Bézier_x^{\prime\prime}(t)
-->
<svg xmlns:xlink="http://www.w3.org/1999/xlink" width="57.833ex" height="2.833ex" style="vertical-align: -1ex; margin-bottom: 1px; margin-top: 1px;" viewBox="0 -771.9 24899.7 1185.1" xmlns="http://www.w3.org/2000/svg">
<defs>
<path stroke-width="10" id="E1-LATINMODERNNORMAL-1D436" d="M760 695l-63 -255c-5 -18 -5 -20 -18 -20c-4 0 -15 0 -15 10s3 11 3 51c0 116 -59 193 -161 193c-89 0 -183 -50 -244 -121c-100 -117 -121 -279 -121 -336c0 -156 106 -208 196 -208c52 0 115 17 184 73c69 58 92 129 101 158c2 8 7 10 13 10c0 0 12 0 12 -10 c0 -3 -17 -94 -110 -176c-53 -46 -129 -86 -216 -86c-153 0 -271 109 -271 274c0 232 225 453 448 453c111 0 157 -75 166 -89l70 77c11 11 12 12 15 12c9 0 11 -7 11 -10Z"></path>
<path stroke-width="10" id="E1-LATINMODERNMAIN-28" d="M332 -238c0 -5 -5 -10 -10 -10c-2 0 -4 1 -6 2c-110 83 -215 283 -215 454v84c0 171 105 371 215 454c2 1 4 2 6 2c5 0 10 -5 10 -10c0 -3 -2 -6 -4 -8c-104 -78 -173 -278 -173 -438v-84c0 -160 69 -360 173 -438c2 -2 4 -5 4 -8Z"></path>
<path stroke-width="10" id="E1-LATINMODERNNORMAL-1D461" d="M330 420c0 -20 -10 -20 -30 -20h-94l-74 -295c-4 -17 -6 -24 -6 -48c0 -33 10 -46 31 -46c34 0 87 24 130 128c5 11 6 14 15 14c4 0 12 0 12 -10c0 -8 -57 -154 -159 -154c-54 0 -92 38 -92 92c0 18 4 35 76 319h-88c-20 0 -28 0 -28 12c0 19 10 19 30 19h94l39 159 c9 35 37 36 40 36c17 0 29 -10 29 -27c0 -6 -5 -26 -41 -168h88c18 0 28 0 28 -11Z"></path>
<path stroke-width="10" id="E1-LATINMODERNMAIN-29" d="M288 208c0 -171 -105 -371 -215 -454c-2 -1 -4 -2 -6 -2c-5 0 -10 5 -10 10c0 3 2 6 4 8c104 78 173 278 173 438v84c0 160 -69 360 -173 438c-2 2 -4 5 -4 8c0 5 5 10 10 10c2 0 4 -1 6 -2c110 -83 215 -283 215 -454v-84Z"></path>
<path stroke-width="10" id="E1-LATINMODERNMAIN-3D" d="M722 347c0 -11 -9 -20 -20 -20h-626c-11 0 -20 9 -20 20s9 20 20 20h626c11 0 20 -9 20 -20zM722 153c0 -11 -9 -20 -20 -20h-626c-11 0 -20 9 -20 20s9 20 20 20h626c11 0 20 -9 20 -20Z"></path>
<path stroke-width="10" id="E1-LATINMODERNNORMAL-1D435" d="M756 545c0 -95 -105 -169 -209 -188c97 -11 155 -69 155 -141c0 -98 -118 -216 -276 -216h-357c-18 0 -27 0 -27 11c0 20 10 20 27 20c79 0 81 8 91 47l134 537c3 12 4 15 4 19c0 13 -9 14 -27 16c-17 2 -38 2 -38 2c-19 0 -28 0 -28 11c0 20 10 20 29 20h336 c120 0 186 -64 186 -138zM665 549c0 44 -21 103 -109 103h-129c-43 0 -45 -3 -54 -38l-62 -248h146c122 0 208 95 208 183zM609 227c0 43 -19 117 -115 117h-189l-69 -279c-5 -18 -5 -20 -5 -23c0 -8 3 -9 13 -10c6 -1 8 -1 22 -1h136c118 0 207 97 207 196Z"></path>
<path stroke-width="10" id="E1-LATINMODERNLATIN-E9" d="M415 119c0 -19 -45 -130 -167 -130c-115 0 -220 97 -220 231c0 125 92 228 208 228c125 0 179 -97 179 -196c0 -21 -3 -21 -25 -21h-279c0 -36 0 -102 30 -150c23 -37 63 -67 113 -67c10 0 100 0 135 103c2 8 4 14 13 14c5 0 13 -2 13 -12zM349 252 c0 39 -10 174 -113 174c-34 0 -118 -25 -124 -174h237zM346 662c0 -12 -8 -23 -17 -30l-152 -122l-17 18l120 153c4 6 15 17 30 17c18 0 36 -18 36 -36Z"></path>
<path stroke-width="10" id="E1-LATINMODERNNORMAL-1D467" d="M467 432c0 -4 -22 -52 -117 -145c-36 -36 -98 -90 -98 -90c-36 -31 -65 -56 -119 -114c9 3 27 3 27 3c21 0 36 -4 70 -17c21 -7 39 -13 59 -13c33 0 97 19 120 84c3 7 5 13 14 13c8 0 12 -5 12 -10c0 -27 -58 -154 -157 -154c-29 0 -47 16 -64 37c-25 29 -35 38 -58 38 c-32 0 -62 -27 -85 -62c-6 -11 -8 -13 -16 -13c0 0 -12 0 -12 10c0 7 35 64 103 131l90 84c19 16 103 88 139 131c-26 0 -37 0 -77 15c-23 8 -42 15 -63 15c-8 0 -66 -1 -85 -47c-2 -6 -4 -11 -13 -11s-12 6 -12 11c0 21 46 114 121 114c33 0 50 -20 69 -43 c15 -17 27 -32 51 -32s45 16 75 64c5 9 8 11 15 11c0 0 11 0 11 -10Z"></path>
<path stroke-width="10" id="E1-LATINMODERNNORMAL-1D456" d="M284 625c0 -30 -30 -53 -53 -53c-24 0 -38 17 -38 36c0 27 27 53 54 53c23 0 37 -16 37 -36zM293 143c0 -9 -37 -154 -131 -154c-48 0 -82 35 -82 82c0 21 13 54 23 80c16 43 61 159 69 185c4 10 11 31 11 52c0 32 -17 32 -25 32c-34 0 -74 -30 -101 -124 c-5 -16 -6 -18 -16 -18c0 0 -12 0 -12 10c0 9 38 154 132 154c50 0 82 -37 82 -82c0 -19 -5 -33 -13 -53c-10 -27 -10 -29 -22 -58l-39 -105c-23 -61 -29 -75 -29 -100c0 -23 7 -33 24 -33c51 0 84 61 102 124c5 15 5 18 15 18c3 0 12 0 12 -10Z"></path>
<path stroke-width="10" id="E1-LATINMODERNNORMAL-1D452" d="M430 107c0 -12 -84 -118 -227 -118c-98 0 -157 79 -157 181c0 175 151 272 262 272c69 0 107 -41 107 -85c0 -14 -5 -73 -75 -103c-50 -21 -124 -23 -153 -23h-53c-15 -61 -16 -92 -16 -104c0 -32 9 -116 87 -116c12 0 121 0 200 99c6 8 8 10 13 10c6 0 12 -7 12 -13z M382 357c0 34 -27 63 -74 63c-26 0 -129 -15 -168 -167h41c41 0 201 0 201 104Z"></path>
<path stroke-width="10" id="E1-LATINMODERNNORMAL-1D45F" d="M436 377c0 -36 -28 -59 -55 -59s-38 19 -38 35c0 26 22 50 52 55c0 0 -16 12 -42 12c-43 0 -72 -26 -80 -33c-24 -22 -52 -69 -56 -82l-32 -130c-4 -18 -38 -154 -40 -158c-7 -20 -25 -28 -37 -28c-15 0 -29 9 -29 27c0 5 6 28 9 43l58 231c13 52 16 63 16 84 c0 38 -14 46 -31 46c-36 0 -56 -48 -73 -119c-6 -22 -7 -23 -17 -23c0 0 -12 0 -12 10c0 3 13 63 31 97c9 18 28 57 74 57c47 0 83 -32 91 -77c19 28 63 77 128 77c51 0 83 -30 83 -65Z"></path>
<path stroke-width="10" id="E1-LATINMODERNMAIN-2032" d="M251 710c0 -7 -2 -14 -6 -19l-158 -261h-27l120 297c4 11 18 21 33 21c21 0 38 -17 38 -38Z"></path>
<path stroke-width="10" id="E1-LATINMODERNNORMAL-1D465" d="M527 376c0 -40 -32 -58 -54 -58c-27 0 -38 19 -38 35c0 24 20 49 48 54c-21 13 -45 13 -50 13c-70 0 -93 -92 -99 -118l-34 -137c-11 -44 -17 -66 -17 -88c0 -34 16 -66 55 -66c32 0 100 24 133 131c2 7 4 11 13 11c3 0 12 0 12 -10c0 -25 -57 -154 -160 -154 c-60 0 -96 39 -108 76c-3 -6 -39 -76 -105 -76c-44 0 -94 20 -94 66c0 32 25 58 55 58c15 0 37 -8 37 -35c0 -28 -22 -49 -47 -54c21 -13 44 -13 50 -13c44 0 79 42 95 104c37 140 54 207 54 238c0 58 -35 67 -54 67c-34 0 -100 -25 -134 -131c-2 -9 -5 -11 -13 -11 c0 0 -12 0 -12 10c0 25 57 154 161 154c29 0 83 -10 108 -76c12 23 47 76 105 76c34 0 93 -14 93 -66Z"></path>
<path stroke-width="10" id="E1-LATINMODERNMAIN-2217" d="M433 144c-9 -15 -29 -19 -43 -9l-128 94l17 -158c2 -17 -11 -32 -29 -32s-31 15 -29 32l17 158l-128 -94c-14 -10 -34 -6 -43 9c-9 16 -3 35 14 42l145 64l-145 64c-17 7 -23 26 -14 42c9 15 29 19 43 9l128 -94l-17 158c-2 17 11 33 29 33s31 -16 29 -33l-17 -158 l128 94c14 10 34 6 43 -9c9 -16 3 -35 -14 -42l-145 -64l145 -64c17 -7 23 -26 14 -42Z"></path>
<path stroke-width="10" id="E1-LATINMODERNNORMAL-1D466" d="M490 404c0 -7 0 -9 -4 -23l-96 -382c-28 -113 -131 -204 -234 -204c-62 0 -106 37 -106 87c0 49 33 65 56 65c10 0 37 -4 37 -35c0 -19 -10 -32 -20 -41c-14 -12 -27 -12 -43 -12c17 -39 62 -42 76 -42c46 0 84 29 110 63c40 53 52 102 65 154c-28 -28 -62 -45 -101 -45 c-59 0 -122 30 -122 119c0 47 18 104 58 210c7 19 17 45 17 70c0 32 -17 32 -25 32c-34 0 -74 -30 -101 -124c-5 -16 -6 -18 -16 -18c0 0 -12 0 -12 10c0 9 37 154 132 154c50 0 82 -37 82 -82c0 -20 -4 -31 -20 -72c-34 -88 -51 -150 -51 -196c0 -37 11 -81 62 -81 c66 0 109 70 113 85l45 180l20 80c4 18 12 49 14 54c9 15 25 21 35 21c15 0 29 -9 29 -27Z"></path>
<path stroke-width="10" id="E1-LATINMODERNMAIN-2212" d="M722 250c0 -11 -9 -20 -20 -20h-626c-11 0 -20 9 -20 20s9 20 20 20h626c11 0 20 -9 20 -20Z"></path>
</defs>
<g stroke="currentColor" fill="currentColor" stroke-width="0" transform="matrix(1 0 0 -1 0 0)">
 <use xlink:href="#E1-LATINMODERNNORMAL-1D436" x="0" y="0"></use>
 <use xlink:href="#E1-LATINMODERNMAIN-28" x="765" y="0"></use>
 <use xlink:href="#E1-LATINMODERNNORMAL-1D461" x="1159" y="0"></use>
 <use xlink:href="#E1-LATINMODERNMAIN-29" x="1525" y="0"></use>
 <use xlink:href="#E1-LATINMODERNMAIN-3D" x="2196" y="0"></use>
 <use xlink:href="#E1-LATINMODERNNORMAL-1D435" x="3257" y="0"></use>
 <use xlink:href="#E1-LATINMODERNLATIN-E9" x="4021" y="0"></use>
 <use xlink:href="#E1-LATINMODERNNORMAL-1D467" x="4470" y="0"></use>
 <use xlink:href="#E1-LATINMODERNNORMAL-1D456" x="4942" y="0"></use>
 <use xlink:href="#E1-LATINMODERNNORMAL-1D452" x="5292" y="0"></use>
<g transform="translate(5763,0)">
 <use xlink:href="#E1-LATINMODERNNORMAL-1D45F" x="0" y="0"></use>
 <use transform="scale(0.707)" xlink:href="#E1-LATINMODERNMAIN-2032" x="644" y="0"></use>
 <use transform="scale(0.707)" xlink:href="#E1-LATINMODERNNORMAL-1D465" x="644" y="-350"></use>
</g>
 <use xlink:href="#E1-LATINMODERNMAIN-28" x="6727" y="0"></use>
 <use xlink:href="#E1-LATINMODERNNORMAL-1D461" x="7121" y="0"></use>
 <use xlink:href="#E1-LATINMODERNMAIN-29" x="7487" y="0"></use>
 <use xlink:href="#E1-LATINMODERNMAIN-2217" x="8103" y="0"></use>
 <use xlink:href="#E1-LATINMODERNNORMAL-1D435" x="8831" y="0"></use>
 <use xlink:href="#E1-LATINMODERNLATIN-E9" x="9595" y="0"></use>
 <use xlink:href="#E1-LATINMODERNNORMAL-1D467" x="10044" y="0"></use>
 <use xlink:href="#E1-LATINMODERNNORMAL-1D456" x="10516" y="0"></use>
 <use xlink:href="#E1-LATINMODERNNORMAL-1D452" x="10866" y="0"></use>
<g transform="translate(11337,0)">
 <use xlink:href="#E1-LATINMODERNNORMAL-1D45F" x="0" y="0"></use>
<g transform="translate(456,0)">
 <use transform="scale(0.707)" xlink:href="#E1-LATINMODERNMAIN-2032" x="0" y="0"></use>
 <use transform="scale(0.707)" xlink:href="#E1-LATINMODERNMAIN-2032" x="316" y="0"></use>
</g>
 <use transform="scale(0.707)" xlink:href="#E1-LATINMODERNNORMAL-1D466" x="644" y="-350"></use>
</g>
 <use xlink:href="#E1-LATINMODERNMAIN-28" x="12339" y="0"></use>
 <use xlink:href="#E1-LATINMODERNNORMAL-1D461" x="12733" y="0"></use>
 <use xlink:href="#E1-LATINMODERNMAIN-29" x="13099" y="0"></use>
 <use xlink:href="#E1-LATINMODERNMAIN-2212" x="13716" y="0"></use>
 <use xlink:href="#E1-LATINMODERNNORMAL-1D435" x="14721" y="0"></use>
 <use xlink:href="#E1-LATINMODERNLATIN-E9" x="15485" y="0"></use>
 <use xlink:href="#E1-LATINMODERNNORMAL-1D467" x="15934" y="0"></use>
 <use xlink:href="#E1-LATINMODERNNORMAL-1D456" x="16406" y="0"></use>
 <use xlink:href="#E1-LATINMODERNNORMAL-1D452" x="16756" y="0"></use>
<g transform="translate(17227,0)">
 <use xlink:href="#E1-LATINMODERNNORMAL-1D45F" x="0" y="0"></use>
 <use transform="scale(0.707)" xlink:href="#E1-LATINMODERNMAIN-2032" x="644" y="0"></use>
 <use transform="scale(0.707)" xlink:href="#E1-LATINMODERNNORMAL-1D466" x="644" y="-350"></use>
</g>
 <use xlink:href="#E1-LATINMODERNMAIN-28" x="18133" y="0"></use>
 <use xlink:href="#E1-LATINMODERNNORMAL-1D461" x="18527" y="0"></use>
 <use xlink:href="#E1-LATINMODERNMAIN-29" x="18893" y="0"></use>
 <use xlink:href="#E1-LATINMODERNMAIN-2217" x="19509" y="0"></use>
 <use xlink:href="#E1-LATINMODERNNORMAL-1D435" x="20236" y="0"></use>
 <use xlink:href="#E1-LATINMODERNLATIN-E9" x="21000" y="0"></use>
 <use xlink:href="#E1-LATINMODERNNORMAL-1D467" x="21449" y="0"></use>
 <use xlink:href="#E1-LATINMODERNNORMAL-1D456" x="21921" y="0"></use>
 <use xlink:href="#E1-LATINMODERNNORMAL-1D452" x="22271" y="0"></use>
<g transform="translate(22742,0)">
 <use xlink:href="#E1-LATINMODERNNORMAL-1D45F" x="0" y="0"></use>
<g transform="translate(456,0)">
 <use transform="scale(0.707)" xlink:href="#E1-LATINMODERNMAIN-2032" x="0" y="0"></use>
 <use transform="scale(0.707)" xlink:href="#E1-LATINMODERNMAIN-2032" x="316" y="0"></use>
</g>
 <use transform="scale(0.707)" xlink:href="#E1-LATINMODERNNORMAL-1D465" x="644" y="-350"></use>
</g>
 <use xlink:href="#E1-LATINMODERNMAIN-28" x="23745" y="0"></use>
 <use xlink:href="#E1-LATINMODERNNORMAL-1D461" x="24139" y="0"></use>
 <use xlink:href="#E1-LATINMODERNMAIN-29" x="24505" y="0"></use>
</g>
</svg>