<!--
C(t) = 0
-->
<svg xmlns:xlink="http://www.w3.org/1999/xlink" width="8.667ex" height="2.5ex" style="vertical-align: -0.667ex; margin-bottom: 1px; margin-top: 1px;" viewBox="0 -771.9 3762.6 1043.9" xmlns="http://www.w3.org/2000/svg">
<defs>
<path stroke-width="10" id="E1-LATINMODERNNORMAL-1D436" d="M760 695l-63 -255c-5 -18 -5 -20 -18 -20c-4 0 -15 0 -15 10s3 11 3 51c0 116 -59 193 -161 193c-89 0 -183 -50 -244 -121c-100 -117 -121 -279 -121 -336c0 -156 106 -208 196 -208c52 0 115 17 184 73c69 58 92 129 101 158c2 8 7 10 13 10c0 0 12 0 12 -10 c0 -3 -17 -94 -110 -176c-53 -46 -129 -86 -216 -86c-153 0 -271 109 -271 274c0 232 225 453 448 453c111 0 157 -75 166 -89l70 77c11 11 12 12 15 12c9 0 11 -7 11 -10Z"></path>
<path stroke-width="10" id="E1-LATINMODERNMAIN-28" d="M332 -238c0 -5 -5 -10 -10 -10c-2 0 -4 1 -6 2c-110 83 -215 283 -215 454v84c0 171 105 371 215 454c2 1 4 2 6 2c5 0 10 -5 10 -10c0 -3 -2 -6 -4 -8c-104 -78 -173 -278 -173 -438v-84c0 -160 69 -360 173 -438c2 -2 4 -5 4 -8Z"></path>
<path stroke-width="10" id="E1-LATINMODERNNORMAL-1D461" d="M330 420c0 -20 -10 -20 -30 -20h-94l-74 -295c-4 -17 -6 -24 -6 -48c0 -33 10 -46 31 -46c34 0 87 24 130 128c5 11 6 14 15 14c4 0 12 0 12 -10c0 -8 -57 -154 -159 -154c-54 0 -92 38 -92 92c0 18 4 35 76 319h-88c-20 0 -28 0 -28 12c0 19 10 19 30 19h94l39 159 c9 35 37 36 40 36c17 0 29 -10 29 -27c0 -6 -5 -26 -41 -168h88c18 0 28 0 28 -11Z"></path>
<path stroke-width="10" id="E1-LATINMODERNMAIN-29" d="M288 208c0 -171 -105 -371 -215 -454c-2 -1 -4 -2 -6 -2c-5 0 -10 5 -10 10c0 3 2 6 4 8c104 78 173 278 173 438v84c0 160 -69 360 -173 438c-2 2 -4 5 -4 8c0 5 5 10 10 10c2 0 4 -1 6 -2c110 -83 215 -283 215 -454v-84Z"></path>
<path stroke-width="10" id="E1-LATINMODERNMAIN-3D" d="M722 347c0 -11 -9 -20 -20 -20h-626c-11 0 -20 9 -20 20s9 20 20 20h626c11 0 20 -9 20 -20zM722 153c0 -11 -9 -20 -20 -20h-626c-11 0 -20 9 -20 20s9 20 20 20h626c11 0 20 -9 20 -20Z"></path>
<path stroke-width="10" id="E1-LATINMODERNMAIN-30" d="M460 320c0 -79 -5 -157 -37 -226c-44 -95 -120 -116 -174 -116c-49 0 -122 20 -165 101c-41 76 -45 166 -45 241c0 80 5 158 37 227c41 93 114 119 174 119c42 0 124 -16 170 -112c35 -74 40 -154 40 -234zM377 332c0 63 0 139 -10 195c-19 99 -85 117 -118 117 c-25 0 -100 -9 -119 -128c-8 -54 -8 -120 -8 -184c0 -59 0 -151 11 -211c18 -96 77 -121 116 -121c45 0 102 30 117 125c11 64 11 132 11 207Z"></path>
</defs>
<g stroke="currentColor" fill="currentColor" stroke-width="0" transform="matrix(1 0 0 -1 0 0)">
 <use xlink:href="#E1-LATINMODERNNORMAL-1D436" x="0" y="0"></use>
 <use xlink:href="#E1-LATINMODERNMAIN-28" x="765" y="0"></use>
 <use xlink:href="#E1-LATINMODERNNORMAL-1D461" x="1159" y="0"></use>
 <use xlink:href="#E1-LATINMODERNMAIN-29" x="1525" y="0"></use>
 <use xlink:href="#E1-LATINMODERNMAIN-3D" x="2196" y="0"></use>
 <use xlink:href="#E1-LATINMODERNMAIN-30" x="3257" y="0"></use>
</g>
</svg>