<!--
18 \left ( (3 x_3 y_2+2 x_4 y_2+3 x_2 y_3-x_4 y_3)t^2 + (3 x_3 y_2-x_4 y_2-3 x_2 y_3)t + (x_2 y_3-x_3 y_2) \right )
-->
<svg xmlns:xlink="http://www.w3.org/1999/xlink" width="83.333ex" height="3ex" style="vertical-align: -0.833ex; margin-bottom: 1px; margin-top: 1px;" viewBox="0 -904.8 35875.9 1275.8" xmlns="http://www.w3.org/2000/svg">
<defs>
<path stroke-width="10" id="E1-LATINMODERNMAIN-31" d="M419 0c-35 3 -122 3 -162 3s-127 0 -162 -3v31h32c90 0 93 12 93 48v518c-52 -26 -111 -26 -131 -26v31c32 0 120 0 182 64c23 0 23 -2 23 -26v-561c0 -37 3 -48 93 -48h32v-31Z"></path>
<path stroke-width="10" id="E1-LATINMODERNMAIN-38" d="M457 168c0 -107 -95 -190 -208 -190c-105 0 -207 67 -207 173c0 99 86 155 144 184c-25 17 -62 42 -73 54c-42 47 -44 92 -44 110c0 93 81 167 181 167c91 0 180 -57 180 -149c0 -66 -49 -118 -121 -155c64 -40 80 -50 99 -71c38 -42 49 -87 49 -123zM386 517 c0 72 -64 124 -137 124c-71 0 -136 -42 -136 -103c0 -17 4 -51 50 -81l124 -80c60 35 99 83 99 140zM407 132c0 61 -47 91 -75 110l-123 78c-85 -47 -117 -111 -117 -169c0 -83 72 -145 158 -145c82 0 157 52 157 126Z"></path>
<path stroke-width="10" id="E1-LATINMODERNMAIN-28" d="M332 -238c0 -5 -5 -10 -10 -10c-2 0 -4 1 -6 2c-110 83 -215 283 -215 454v84c0 171 105 371 215 454c2 1 4 2 6 2c5 0 10 -5 10 -10c0 -3 -2 -6 -4 -8c-104 -78 -173 -278 -173 -438v-84c0 -160 69 -360 173 -438c2 -2 4 -5 4 -8Z"></path>
<path stroke-width="10" id="E1-LATINMODERNMAIN-33" d="M457 171c0 -102 -91 -193 -213 -193c-109 0 -202 66 -202 157c0 44 32 58 56 58c29 0 56 -20 56 -56c0 -38 -31 -60 -66 -55c35 -59 110 -76 153 -76c44 0 113 29 113 165c0 98 -37 166 -119 166h-44c-17 0 -24 0 -24 11c0 10 7 11 15 12c7 0 31 2 39 3c25 1 59 4 89 52 c26 44 28 102 28 114c0 90 -55 112 -96 112c-36 0 -102 -13 -133 -62c15 0 62 0 62 -50c0 -29 -20 -51 -51 -51c-29 0 -51 19 -51 52c0 76 76 136 177 136c96 0 184 -56 184 -138c0 -79 -58 -149 -140 -176c104 -21 167 -99 167 -181Z"></path>
<path stroke-width="10" id="E1-LATINMODERNNORMAL-1D465" d="M527 376c0 -40 -32 -58 -54 -58c-27 0 -38 19 -38 35c0 24 20 49 48 54c-21 13 -45 13 -50 13c-70 0 -93 -92 -99 -118l-34 -137c-11 -44 -17 -66 -17 -88c0 -34 16 -66 55 -66c32 0 100 24 133 131c2 7 4 11 13 11c3 0 12 0 12 -10c0 -25 -57 -154 -160 -154 c-60 0 -96 39 -108 76c-3 -6 -39 -76 -105 -76c-44 0 -94 20 -94 66c0 32 25 58 55 58c15 0 37 -8 37 -35c0 -28 -22 -49 -47 -54c21 -13 44 -13 50 -13c44 0 79 42 95 104c37 140 54 207 54 238c0 58 -35 67 -54 67c-34 0 -100 -25 -134 -131c-2 -9 -5 -11 -13 -11 c0 0 -12 0 -12 10c0 25 57 154 161 154c29 0 83 -10 108 -76c12 23 47 76 105 76c34 0 93 -14 93 -66Z"></path>
<path stroke-width="10" id="E1-LATINMODERNNORMAL-1D466" d="M490 404c0 -7 0 -9 -4 -23l-96 -382c-28 -113 -131 -204 -234 -204c-62 0 -106 37 -106 87c0 49 33 65 56 65c10 0 37 -4 37 -35c0 -19 -10 -32 -20 -41c-14 -12 -27 -12 -43 -12c17 -39 62 -42 76 -42c46 0 84 29 110 63c40 53 52 102 65 154c-28 -28 -62 -45 -101 -45 c-59 0 -122 30 -122 119c0 47 18 104 58 210c7 19 17 45 17 70c0 32 -17 32 -25 32c-34 0 -74 -30 -101 -124c-5 -16 -6 -18 -16 -18c0 0 -12 0 -12 10c0 9 37 154 132 154c50 0 82 -37 82 -82c0 -20 -4 -31 -20 -72c-34 -88 -51 -150 -51 -196c0 -37 11 -81 62 -81 c66 0 109 70 113 85l45 180l20 80c4 18 12 49 14 54c9 15 25 21 35 21c15 0 29 -9 29 -27Z"></path>
<path stroke-width="10" id="E1-LATINMODERNMAIN-32" d="M449 174l-28 -174h-371c0 24 0 26 11 37l192 214c55 62 105 141 105 221c0 82 -43 163 -134 163c-58 0 -112 -37 -135 -102c3 1 5 1 13 1c35 0 53 -26 53 -52c0 -41 -35 -53 -52 -53c-3 0 -53 0 -53 56c0 89 74 181 187 181c122 0 212 -80 212 -194 c0 -100 -60 -154 -216 -292l-106 -103h180c22 0 88 0 95 8c10 15 17 59 22 89h25Z"></path>
<path stroke-width="10" id="E1-LATINMODERNMAIN-2B" d="M722 250c0 -11 -9 -20 -20 -20h-293v-293c0 -11 -9 -20 -20 -20s-20 9 -20 20v293h-293c-11 0 -20 9 -20 20s9 20 20 20h293v293c0 11 9 20 20 20s20 -9 20 -20v-293h293c11 0 20 -9 20 -20Z"></path>
<path stroke-width="10" id="E1-LATINMODERNMAIN-34" d="M471 165h-100v-87c0 -36 2 -47 76 -47h21v-31c-41 3 -94 3 -136 3s-94 0 -135 -3v31h21c74 0 76 11 76 47v87h-266v31l307 469c8 12 11 12 20 12c16 0 16 -6 16 -26v-455h100v-31zM300 196v373l-244 -373h244Z"></path>
<path stroke-width="10" id="E1-LATINMODERNMAIN-2212" d="M722 250c0 -11 -9 -20 -20 -20h-626c-11 0 -20 9 -20 20s9 20 20 20h626c11 0 20 -9 20 -20Z"></path>
<path stroke-width="10" id="E1-LATINMODERNMAIN-29" d="M288 208c0 -171 -105 -371 -215 -454c-2 -1 -4 -2 -6 -2c-5 0 -10 5 -10 10c0 3 2 6 4 8c104 78 173 278 173 438v84c0 160 -69 360 -173 438c-2 2 -4 5 -4 8c0 5 5 10 10 10c2 0 4 -1 6 -2c110 -83 215 -283 215 -454v-84Z"></path>
<path stroke-width="10" id="E1-LATINMODERNNORMAL-1D461" d="M330 420c0 -20 -10 -20 -30 -20h-94l-74 -295c-4 -17 -6 -24 -6 -48c0 -33 10 -46 31 -46c34 0 87 24 130 128c5 11 6 14 15 14c4 0 12 0 12 -10c0 -8 -57 -154 -159 -154c-54 0 -92 38 -92 92c0 18 4 35 76 319h-88c-20 0 -28 0 -28 12c0 19 10 19 30 19h94l39 159 c9 35 37 36 40 36c17 0 29 -10 29 -27c0 -6 -5 -26 -41 -168h88c18 0 28 0 28 -11Z"></path>
<path stroke-width="10" id="E1-LATINMODERNSIZE2-28" d="M395 -336c0 -6 -5 -11 -11 -11c-3 0 -5 1 -7 2c-127 96 -246 330 -246 531v128c0 201 119 435 246 531c2 1 4 2 7 2c6 0 11 -5 11 -11c0 -4 -2 -7 -4 -9c-120 -90 -202 -324 -202 -513v-128c0 -189 82 -423 202 -513c2 -2 4 -5 4 -9Z"></path>
<path stroke-width="10" id="E1-LATINMODERNSIZE2-29" d="M327 186c0 -201 -119 -435 -246 -531c-2 -1 -4 -2 -7 -2c-6 0 -11 5 -11 11c0 4 2 7 4 9c120 90 202 324 202 513v128c0 189 -82 423 -202 513c-2 2 -4 5 -4 9c0 6 5 11 11 11c3 0 5 -1 7 -2c127 -96 246 -330 246 -531v-128Z"></path>
</defs>
<g stroke="currentColor" fill="currentColor" stroke-width="0" transform="matrix(1 0 0 -1 0 0)">
 <use xlink:href="#E1-LATINMODERNMAIN-31"></use>
 <use xlink:href="#E1-LATINMODERNMAIN-38" x="505" y="0"></use>
<g transform="translate(1176,0)">
 <use xlink:href="#E1-LATINMODERNSIZE2-28"></use>
 <use xlink:href="#E1-LATINMODERNMAIN-28" x="463" y="0"></use>
 <use xlink:href="#E1-LATINMODERNMAIN-33" x="857" y="0"></use>
<g transform="translate(1362,0)">
 <use xlink:href="#E1-LATINMODERNNORMAL-1D465" x="0" y="0"></use>
 <use transform="scale(0.707)" xlink:href="#E1-LATINMODERNMAIN-33" x="816" y="-213"></use>
</g>
<g transform="translate(2396,0)">
 <use xlink:href="#E1-LATINMODERNNORMAL-1D466" x="0" y="0"></use>
 <use transform="scale(0.707)" xlink:href="#E1-LATINMODERNMAIN-32" x="700" y="-213"></use>
</g>
 <use xlink:href="#E1-LATINMODERNMAIN-2B" x="3570" y="0"></use>
 <use xlink:href="#E1-LATINMODERNMAIN-32" x="4575" y="0"></use>
<g transform="translate(5080,0)">
 <use xlink:href="#E1-LATINMODERNNORMAL-1D465" x="0" y="0"></use>
 <use transform="scale(0.707)" xlink:href="#E1-LATINMODERNMAIN-34" x="816" y="-213"></use>
</g>
<g transform="translate(6114,0)">
 <use xlink:href="#E1-LATINMODERNNORMAL-1D466" x="0" y="0"></use>
 <use transform="scale(0.707)" xlink:href="#E1-LATINMODERNMAIN-32" x="700" y="-213"></use>
</g>
 <use xlink:href="#E1-LATINMODERNMAIN-2B" x="7289" y="0"></use>
 <use xlink:href="#E1-LATINMODERNMAIN-33" x="8294" y="0"></use>
<g transform="translate(8799,0)">
 <use xlink:href="#E1-LATINMODERNNORMAL-1D465" x="0" y="0"></use>
 <use transform="scale(0.707)" xlink:href="#E1-LATINMODERNMAIN-32" x="816" y="-213"></use>
</g>
<g transform="translate(9833,0)">
 <use xlink:href="#E1-LATINMODERNNORMAL-1D466" x="0" y="0"></use>
 <use transform="scale(0.707)" xlink:href="#E1-LATINMODERNMAIN-33" x="700" y="-213"></use>
</g>
 <use xlink:href="#E1-LATINMODERNMAIN-2212" x="11007" y="0"></use>
<g transform="translate(12012,0)">
 <use xlink:href="#E1-LATINMODERNNORMAL-1D465" x="0" y="0"></use>
 <use transform="scale(0.707)" xlink:href="#E1-LATINMODERNMAIN-34" x="816" y="-213"></use>
</g>
<g transform="translate(13046,0)">
 <use xlink:href="#E1-LATINMODERNNORMAL-1D466" x="0" y="0"></use>
 <use transform="scale(0.707)" xlink:href="#E1-LATINMODERNMAIN-33" x="700" y="-213"></use>
</g>
 <use xlink:href="#E1-LATINMODERNMAIN-29" x="13999" y="0"></use>
<g transform="translate(14393,0)">
 <use xlink:href="#E1-LATINMODERNNORMAL-1D461" x="0" y="0"></use>
 <use transform="scale(0.707)" xlink:href="#E1-LATINMODERNMAIN-32" x="517" y="583"></use>
</g>
 <use xlink:href="#E1-LATINMODERNMAIN-2B" x="15438" y="0"></use>
 <use xlink:href="#E1-LATINMODERNMAIN-28" x="16443" y="0"></use>
 <use xlink:href="#E1-LATINMODERNMAIN-33" x="16837" y="0"></use>
<g transform="translate(17342,0)">
 <use xlink:href="#E1-LATINMODERNNORMAL-1D465" x="0" y="0"></use>
 <use transform="scale(0.707)" xlink:href="#E1-LATINMODERNMAIN-33" x="816" y="-213"></use>
</g>
<g transform="translate(18376,0)">
 <use xlink:href="#E1-LATINMODERNNORMAL-1D466" x="0" y="0"></use>
 <use transform="scale(0.707)" xlink:href="#E1-LATINMODERNMAIN-32" x="700" y="-213"></use>
</g>
 <use xlink:href="#E1-LATINMODERNMAIN-2212" x="19550" y="0"></use>
<g transform="translate(20556,0)">
 <use xlink:href="#E1-LATINMODERNNORMAL-1D465" x="0" y="0"></use>
 <use transform="scale(0.707)" xlink:href="#E1-LATINMODERNMAIN-34" x="816" y="-213"></use>
</g>
<g transform="translate(21590,0)">
 <use xlink:href="#E1-LATINMODERNNORMAL-1D466" x="0" y="0"></use>
 <use transform="scale(0.707)" xlink:href="#E1-LATINMODERNMAIN-32" x="700" y="-213"></use>
</g>
 <use xlink:href="#E1-LATINMODERNMAIN-2212" x="22764" y="0"></use>
 <use xlink:href="#E1-LATINMODERNMAIN-33" x="23769" y="0"></use>
<g transform="translate(24274,0)">
 <use xlink:href="#E1-LATINMODERNNORMAL-1D465" x="0" y="0"></use>
 <use transform="scale(0.707)" xlink:href="#E1-LATINMODERNMAIN-32" x="816" y="-213"></use>
</g>
<g transform="translate(25308,0)">
 <use xlink:href="#E1-LATINMODERNNORMAL-1D466" x="0" y="0"></use>
 <use transform="scale(0.707)" xlink:href="#E1-LATINMODERNMAIN-33" x="700" y="-213"></use>
</g>
 <use xlink:href="#E1-LATINMODERNMAIN-29" x="26261" y="0"></use>
 <use xlink:href="#E1-LATINMODERNNORMAL-1D461" x="26655" y="0"></use>
 <use xlink:href="#E1-LATINMODERNMAIN-2B" x="27243" y="0"></use>
 <use xlink:href="#E1-LATINMODERNMAIN-28" x="28248" y="0"></use>
<g transform="translate(28642,0)">
 <use xlink:href="#E1-LATINMODERNNORMAL-1D465" x="0" y="0"></use>
 <use transform="scale(0.707)" xlink:href="#E1-LATINMODERNMAIN-32" x="816" y="-213"></use>
</g>
<g transform="translate(29676,0)">
 <use xlink:href="#E1-LATINMODERNNORMAL-1D466" x="0" y="0"></use>
 <use transform="scale(0.707)" xlink:href="#E1-LATINMODERNMAIN-33" x="700" y="-213"></use>
</g>
 <use xlink:href="#E1-LATINMODERNMAIN-2212" x="30850" y="0"></use>
<g transform="translate(31856,0)">
 <use xlink:href="#E1-LATINMODERNNORMAL-1D465" x="0" y="0"></use>
 <use transform="scale(0.707)" xlink:href="#E1-LATINMODERNMAIN-33" x="816" y="-213"></use>
</g>
<g transform="translate(32890,0)">
 <use xlink:href="#E1-LATINMODERNNORMAL-1D466" x="0" y="0"></use>
 <use transform="scale(0.707)" xlink:href="#E1-LATINMODERNMAIN-32" x="700" y="-213"></use>
</g>
 <use xlink:href="#E1-LATINMODERNMAIN-29" x="33842" y="0"></use>
 <use xlink:href="#E1-LATINMODERNSIZE2-29" x="34236" y="0"></use>
</g>
</g>
</svg>