<svg xmlns="http://www.w3.org/2000/svg" xmlns:xlink="http://www.w3.org/1999/xlink" width="356" height="263px" viewBox="0 0 267 197"><svg overflow="visible" x=".605" y="9.396"><path d="M5.656-2.813c0-.562-.281-1.171-.703-1.468-.297-.219-.672-.344-.953-.407.734-.562 1.125-1.203 1.125-1.906 0-1.062-1.016-1.906-2.344-1.906-.812 0-1.453.266-2.047.86L.328-5.954h.64l.266-.797c.125-.406.75-.688 1.375-.688.766 0 1.266.5 1.266 1.25 0 .907-.563 1.532-1.406 1.532-.11 0-.469.187-.469.187l-.25-.093-.14.671.202.188C2.297-3.938 2.516-4 2.845-4c1 0 1.422.516 1.422 1.594 0 1.219-.579 1.89-1.704 1.89-.546 0-.937-.14-1.296-.468C.984-1.25.859-1.438.578-2.25l-.562.219C.28-1.234.375-.797.469-.11c.765.25 1.281.343 1.734.343.953 0 2.14-.562 2.813-1.375.406-.484.64-1.109.64-1.671zm0 0"/></svg><svg overflow="visible" x="6.583" y="9.396"><path d="M4.75-5.703c-.297-.188-.797-.328-1.25-.328-.531 0-1.484.468-2.172 1.062C.641-4.375.156-3.03.156-1.75.156-.61.796.125 1.75.125c.656 0 1.328-.266 1.984-.813l.657-.53-.204-.485-.343.219c-.86.578-1.203.75-1.625.75-.672 0-.875-.36-.875-1.297 0-1.266.36-2.406.937-2.875.25-.203.453-.266.844-.266.531 0 .813.094.813.375v.86h.546c.11-.922.188-1.36.329-1.735zm0 0"/></svg><svg overflow="visible" x="14.222" y="9.396"><path d="M8.266-2.766a1.332 1.332 0 01-.047-.359c0-.11.015-.234.062-.484h-3.25v-3.266c-.25.063-.375.078-.484.078-.125 0-.25-.016-.5-.078v3.266H.78c.063.25.063.375.063.484 0 .125 0 .25-.063.5h3.266V.641c.25-.063.375-.079.5-.079.11 0 .234.016.484.079v-3.266h3.25zm0 0"/></svg><svg overflow="visible" x="25.962" y="9.396"><path d="M5.766-.094v-.484l-.704-.047c-.578-.031-.578-.063-.578-.781v-.75c.579 0 .829 0 1.282.062v-1L5.734-3s-.671-.188-1.062-.188h-.188v-1.53c0-2.126.016-3.157.094-3.72l-.281-.124-.984.343-3.438 5.64.203.423h3.125v.75c0 .718.016.765-.578.781l-.875.047v.625L3.813 0l1.953.047zM3.344-3.188H1l2.438-3.984-.235-.094v4.079zm0 0"/></svg><svg overflow="visible" x="31.94" y="9.396"><path d="M4.125-5.703c-.469-.219-.797-.328-1.203-.328-.61 0-1.453.39-2.031.968a1.63 1.63 0 00-.47 1.157c0 .672.516 1.187 1.298 1.344l.75.14c.531.094.578.156.578.64 0 .798-.406 1.173-1.25 1.173-.438 0-.703-.094-1-.344v-1.078H.234C.172-1.297.094-.875-.046-.25.453 0 .968.125 1.39.125c.578 0 1.234-.25 1.843-.719.61-.484.891-1.015.891-1.625 0-.64-.5-1.11-1.406-1.281l-.5-.094c-.719-.14-.813-.203-.813-.703 0-.625.39-.984 1.078-.984.485 0 .844.172 1 .422v.765h.532c.062-.547.109-.86.25-1.531zm0 0"/></svg><svg overflow="visible" x="36.59" y="9.396"><path d="M2.969-1.25l-.172-.297-.453.297c-.36.234-.5.313-.625.313-.078 0-.016.03-.016-.11 0-.11 0-.203.078-.469l.922-3.64c.047-.203.063-.313.063-.422 0-.203-.22-.453-.422-.453-.266 0-.797.281-1.703.922l-.407.296.188.485.547-.36c.344-.218.375-.234.484-.234.11 0 .047-.031.047.11 0 .109-.047.359-.094.53L.625-1.405c-.11.375-.156.672-.156.922 0 .28.265.593.5.593.312 0 .844-.296 2.078-1.218zm.344-6.406c0-.282-.313-.61-.563-.61-.36 0-.844.516-.844.922 0 .297.328.625.625.625.375 0 .781-.484.781-.937zm0 0"/></svg><svg overflow="visible" x="40.105" y="9.396"><path d="M6.234-1.25l-.171-.297-.454.297c-.343.219-.5.313-.625.313-.078 0-.03.03-.03-.11 0-.047.015-.187.03-.234l.782-3.297c.093-.344.14-.688.14-.89 0-.266-.265-.563-.5-.563-.5 0-1.437.5-2.14 1.156-.454.422-.797.828-1.407 1.703l.235.094.453-1.938c.047-.203.078-.343.078-.484 0-.25-.234-.531-.406-.531-.266 0-.828.312-1.703.922l-.391.296.172.485.547-.36c.437-.28.39-.265.469-.265.14 0 .078 0 .078.172 0 .61-.5 2.922-.985 4.656l.172.25c.36-.094.625-.172 1.016-.234.234-1.625.468-2.313 1-3.125.656-1.016 1.453-1.72 1.984-1.72.125 0 .063-.015.063.157 0 .219-.032.469-.141.86l-.61 2.53c-.109.438-.156.72-.156.907 0 .297.266.61.5.61.313 0 .829-.282 2.079-1.22zm0 0"/></svg><svg overflow="visible" x="46.752" y="9.396"><path d="M4.203-7.828a.735.735 0 01-.187-.14c-.063-.063-.11-.126-.22-.329-1.593 1.61-2.5 3.266-2.5 4.781v.797c0 1.516.907 3.172 2.5 4.781.11-.203.157-.265.22-.328.062-.062.125-.109.312-.203C2.875.063 2.281-1.344 2.281-2.719v-.797c0-1.39.594-2.78 2.047-4.25zm0 0"/></svg><svg overflow="visible" x="51.821" y="9.396"><path d="M6.031-5.969c.063-1.672-.468-2.797-1.453-2.797-.516 0-1.156.297-1.734.829C1.734-6.923.828-5.017.734-2.829.641-.922 1.141.125 2.141.125c.625 0 1.484-.469 2.078-1.188.86-1.046 1.718-3.109 1.812-4.906zM4.547-3.937C4.234-2.734 3.78-1.75 3.359-1.142c-.25.375-.484.563-.843.563-.704 0-.657-.797-.61-2.219.016-.375.063-.75.125-1.047.14-.062.469-.094 1.313-.094.812 0 1.047 0 1.187.063zm.281-1.782a6.748 6.748 0 01-.094.922c-.125.047-.484.094-1.28.094-.813 0-1.157-.047-1.22-.063.36-1.343.922-2.53 1.375-3.046.188-.172.36-.235.641-.235.766 0 .656.844.578 2.328zm0 0"/></svg><svg overflow="visible" x="58.05" y="9.396"><path d="M3.766-2.719v-.797c0-1.515-.907-3.171-2.516-4.78-.11.202-.156.265-.203.327-.063.063-.125.11-.313.203 1.438 1.47 2.032 2.86 2.032 4.25v.797c0 1.375-.594 2.781-2.032 4.25.188.094.25.14.313.203.047.063.094.125.203.329C2.86.452 3.766-1.204 3.766-2.72zm0 0"/></svg><svg overflow="visible" x="63.119" y="9.396"><path d="M3.766-2.719v-.797c0-1.515-.907-3.171-2.516-4.78-.11.202-.156.265-.203.327-.063.063-.125.11-.313.203 1.438 1.47 2.032 2.86 2.032 4.25v.797c0 1.375-.594 2.781-2.032 4.25.188.094.25.14.313.203.047.063.094.125.203.329C2.86.452 3.766-1.204 3.766-2.72zm0 0"/></svg><svg overflow="visible" x="70.842" y="9.396"><path d="M8.266-2.766a1.332 1.332 0 01-.047-.359c0-.11.015-.234.062-.484h-7.5c.063.25.063.375.063.484 0 .125 0 .25-.063.5h7.5zm0 0"/></svg><svg overflow="visible" x="82.582" y="9.396"><path d="M5.656-2.813c0-.562-.281-1.171-.703-1.468-.297-.219-.672-.344-.953-.407.734-.562 1.125-1.203 1.125-1.906 0-1.062-1.016-1.906-2.344-1.906-.812 0-1.453.266-2.047.86L.328-5.954h.64l.266-.797c.125-.406.75-.688 1.375-.688.766 0 1.266.5 1.266 1.25 0 .907-.563 1.532-1.406 1.532-.11 0-.469.187-.469.187l-.25-.093-.14.671.202.188C2.297-3.938 2.516-4 2.845-4c1 0 1.422.516 1.422 1.594 0 1.219-.579 1.89-1.704 1.89-.546 0-.937-.14-1.296-.468C.984-1.25.859-1.438.578-2.25l-.562.219C.28-1.234.375-.797.469-.11c.765.25 1.281.343 1.734.343.953 0 2.14-.562 2.813-1.375.406-.484.64-1.109.64-1.671zm0 0"/></svg><svg overflow="visible" x="88.559" y="9.396"><path d="M5.36-5.922a2.204 2.204 0 00-.563-.11c-.797 0-1.89.97-3.39 3.063l.25.094 1.28-5.938-.265-.234c-.75.375-1.063.438-2.047.531l-.094.5h.735c.28 0 .265-.046.265.157 0 .109-.015.203-.031.296L.937-4.358c-.156.89-.359 1.718-1 4.25l.204.234.968-.25.297-1.578c.11-.578.36-1.016.61-1.281C2.766-.844 3.28.109 3.578.109c.156 0 .547-.187 1.078-.562l.61-.438-.204-.453-.671.375c-.172.094-.141.078-.25.078-.11 0-.094-.03-.204-.234-.421-.766-.656-1.313-1.109-2.734l.125-.125c.735-.72 1.188-.985 1.781-.985.094 0 .22.016.516.094l.266-1zm0 0"/></svg><svg overflow="visible" x="96.928" y="9.396"><path d="M2.516-3.125c0-.422-.407-.844-.844-.844-.422 0-.86.422-.86.844 0 .438.438.86.86.86.437 0 .844-.422.844-.86zm0 0"/></svg><svg overflow="visible" x="102.93" y="9.396"><path d="M4.75-5.703c-.297-.188-.797-.328-1.25-.328-.531 0-1.484.468-2.172 1.062C.641-4.375.156-3.03.156-1.75.156-.61.796.125 1.75.125c.656 0 1.328-.266 1.984-.813l.657-.53-.204-.485-.343.219c-.86.578-1.203.75-1.625.75-.672 0-.875-.36-.875-1.297 0-1.266.36-2.406.937-2.875.25-.203.453-.266.844-.266.531 0 .813.094.813.375v.86h.546c.11-.922.188-1.36.329-1.735zm0 0"/></svg><svg overflow="visible" x="107.915" y="9.396"><path d="M5.047-4.094c0-1.125-.734-1.937-1.719-1.937-.515 0-1.187.25-1.719.625-.968.703-1.546 2-1.546 3.453C.063-.687.734.125 1.734.125c.657 0 1.47-.344 2-.844.75-.703 1.313-2.156 1.313-3.375zm-1.188.203C3.86-2.75 3.531-1.578 3-.937c-.219.25-.422.359-.781.359-.703 0-.969-.406-.969-1.36 0-1.343.422-2.718 1.016-3.203.156-.125.328-.171.609-.171.734 0 .984.406.984 1.421zm0 0"/></svg><svg overflow="visible" x="113.223" y="9.396"><path d="M4.125-5.703c-.469-.219-.797-.328-1.203-.328-.61 0-1.453.39-2.031.968a1.63 1.63 0 00-.47 1.157c0 .672.516 1.187 1.298 1.344l.75.14c.531.094.578.156.578.64 0 .798-.406 1.173-1.25 1.173-.438 0-.703-.094-1-.344v-1.078H.234C.172-1.297.094-.875-.046-.25.453 0 .968.125 1.39.125c.578 0 1.234-.25 1.843-.719.61-.484.891-1.015.891-1.625 0-.64-.5-1.11-1.406-1.281l-.5-.094c-.719-.14-.813-.203-.813-.703 0-.625.39-.984 1.078-.984.485 0 .844.172 1 .422v.765h.532c.062-.547.109-.86.25-1.531zm0 0"/></svg><svg overflow="visible" x="117.874" y="9.396"><path d="M4.203-7.828a.735.735 0 01-.187-.14c-.063-.063-.11-.126-.22-.329-1.593 1.61-2.5 3.266-2.5 4.781v.797c0 1.516.907 3.172 2.5 4.781.11-.203.157-.265.22-.328.062-.062.125-.109.312-.203C2.875.063 2.281-1.344 2.281-2.719v-.797c0-1.39.594-2.78 2.047-4.25zm0 0"/></svg><svg overflow="visible" x="122.943" y="9.396"><path d="M6.031-5.969c.063-1.672-.468-2.797-1.453-2.797-.516 0-1.156.297-1.734.829C1.734-6.923.828-5.017.734-2.829.641-.922 1.141.125 2.141.125c.625 0 1.484-.469 2.078-1.188.86-1.046 1.718-3.109 1.812-4.906zM4.547-3.937C4.234-2.734 3.78-1.75 3.359-1.142c-.25.375-.484.563-.843.563-.704 0-.657-.797-.61-2.219.016-.375.063-.75.125-1.047.14-.062.469-.094 1.313-.094.812 0 1.047 0 1.187.063zm.281-1.782a6.748 6.748 0 01-.094.922c-.125.047-.484.094-1.28.094-.813 0-1.157-.047-1.22-.063.36-1.343.922-2.53 1.375-3.046.188-.172.36-.235.641-.235.766 0 .656.844.578 2.328zm0 0"/></svg><svg overflow="visible" x="129.171" y="9.396"><path d="M3.766-2.719v-.797c0-1.515-.907-3.171-2.516-4.78-.11.202-.156.265-.203.327-.063.063-.125.11-.313.203 1.438 1.47 2.032 2.86 2.032 4.25v.797c0 1.375-.594 2.781-2.032 4.25.188.094.25.14.313.203.047.063.094.125.203.329C2.86.452 3.766-1.204 3.766-2.72zm0 0"/></svg><path d="M.605 15.016h133.641" fill="none" stroke-width=".717" stroke="#000" stroke-miterlimit="10"/><svg overflow="visible" x="64.436" y="25.967"><path d="M5.672-2.594c0-.953-.563-1.61-1.672-2.11.922-.624 1.344-1.218 1.344-1.937 0-1.03-.985-1.859-2.25-1.859-1.422 0-2.61 1.047-2.61 2.297 0 .812.36 1.36 1.25 1.937-.218.11-.53.266-.796.532a2.443 2.443 0 00-.72 1.703C.219-.797 1.345.234 2.704.234c1.547 0 2.969-1.343 2.969-2.828zm-1.219.5c0 1-.61 1.656-1.578 1.656-1.016 0-1.531-.578-1.531-1.687 0-.875.312-1.328 1.11-1.813l.937.407c.75.344 1.062.797 1.062 1.437zM4.25-6.516c0 .688-.25 1.047-.953 1.5l-.625-.296c-.766-.375-1.016-.72-1.016-1.329 0-.78.453-1.187 1.297-1.187.875 0 1.297.437 1.297 1.312zm0 0"/></svg><svg overflow="visible" x="138.762" y="18.004"><path d="M8.266-4.078a1.419 1.419 0 01-.047-.36c0-.109.015-.234.062-.484h-7.5c.063.25.063.375.063.484 0 .125 0 .235-.063.5h7.5zm0 2.625a1.332 1.332 0 01-.047-.36c0-.109.015-.234.062-.484h-7.5c.063.25.063.375.063.485 0 .125 0 .25-.063.5h7.5zm0 0"/></svg><svg overflow="visible" x="151.16" y="18.004"><path d="M4.125-5.703c-.469-.219-.797-.328-1.203-.328-.61 0-1.453.39-2.031.968a1.63 1.63 0 00-.47 1.157c0 .672.516 1.187 1.298 1.344l.75.14c.531.094.578.156.578.64 0 .798-.406 1.173-1.25 1.173-.438 0-.703-.094-1-.344v-1.078H.234C.172-1.297.094-.875-.046-.25.453 0 .968.125 1.39.125c.578 0 1.234-.25 1.843-.719.61-.484.891-1.015.891-1.625 0-.64-.5-1.11-1.406-1.281l-.5-.094c-.719-.14-.813-.203-.813-.703 0-.625.39-.984 1.078-.984.485 0 .844.172 1 .422v.765h.532c.062-.547.109-.86.25-1.531zm0 0"/></svg><svg overflow="visible" x="155.81" y="18.004"><path d="M2.969-1.25l-.172-.297-.453.297c-.36.234-.5.313-.625.313-.078 0-.016.03-.016-.11 0-.11 0-.203.078-.469l.922-3.64c.047-.203.063-.313.063-.422 0-.203-.22-.453-.422-.453-.266 0-.797.281-1.703.922l-.407.296.188.485.547-.36c.344-.218.375-.234.484-.234.11 0 .047-.031.047.11 0 .109-.047.359-.094.53L.625-1.405c-.11.375-.156.672-.156.922 0 .28.265.593.5.593.312 0 .844-.296 2.078-1.218zm.344-6.406c0-.282-.313-.61-.563-.61-.36 0-.844.516-.844.922 0 .297.328.625.625.625.375 0 .781-.484.781-.937zm0 0"/></svg><svg overflow="visible" x="159.325" y="18.004"><path d="M6.234-1.25l-.171-.297-.454.297c-.343.219-.5.313-.625.313-.078 0-.03.03-.03-.11 0-.047.015-.187.03-.234l.782-3.297c.093-.344.14-.688.14-.89 0-.266-.265-.563-.5-.563-.5 0-1.437.5-2.14 1.156-.454.422-.797.828-1.407 1.703l.235.094.453-1.938c.047-.203.078-.343.078-.484 0-.25-.234-.531-.406-.531-.266 0-.828.312-1.703.922l-.391.296.172.485.547-.36c.437-.28.39-.265.469-.265.14 0 .078 0 .078.172 0 .61-.5 2.922-.985 4.656l.172.25c.36-.094.625-.172 1.016-.234.234-1.625.468-2.313 1-3.125.656-1.016 1.453-1.72 1.984-1.72.125 0 .063-.015.063.157 0 .219-.032.469-.141.86l-.61 2.53c-.109.438-.156.72-.156.907 0 .297.266.61.5.61.313 0 .829-.282 2.079-1.22zm0 0"/></svg><svg overflow="visible" x="165.972" y="18.004"><path d="M4.203-7.828a.735.735 0 01-.187-.14c-.063-.063-.11-.126-.22-.329-1.593 1.61-2.5 3.266-2.5 4.781v.797c0 1.516.907 3.172 2.5 4.781.11-.203.157-.265.22-.328.062-.062.125-.109.312-.203C2.875.063 2.281-1.344 2.281-2.719v-.797c0-1.39.594-2.78 2.047-4.25zm0 0"/></svg><svg overflow="visible" x="172.246" y="9.396"><path d="M6.031-5.969c.063-1.672-.468-2.797-1.453-2.797-.516 0-1.156.297-1.734.829C1.734-6.923.828-5.017.734-2.829.641-.922 1.141.125 2.141.125c.625 0 1.484-.469 2.078-1.188.86-1.046 1.718-3.109 1.812-4.906zM4.547-3.937C4.234-2.734 3.78-1.75 3.359-1.142c-.25.375-.484.563-.843.563-.704 0-.657-.797-.61-2.219.016-.375.063-.75.125-1.047.14-.062.469-.094 1.313-.094.812 0 1.047 0 1.187.063zm.281-1.782a6.748 6.748 0 01-.094.922c-.125.047-.484.094-1.28.094-.813 0-1.157-.047-1.22-.063.36-1.343.922-2.53 1.375-3.046.188-.172.36-.235.641-.235.766 0 .656.844.578 2.328zm0 0"/></svg><path d="M172.246 15.016h6.23" fill="none" stroke-width=".717" stroke="#000" stroke-miterlimit="10"/><svg overflow="visible" x="172.371" y="25.967"><path d="M5.719-.094c-.016-.25-.016-.375-.016-.547 0-.14 0-.265.031-.671l-4.28.125.093.234 2.187-2.313C4.891-4.5 5.281-5.25 5.281-6.14 5.281-7.516 4.22-8.5 2.703-8.5c-.86 0-1.562.281-2.172.906L.312-5.766h.594l.188-.687c.203-.688.5-.86 1.297-.86 1.03 0 1.546.516 1.546 1.532 0 .89-.468 1.687-1.828 3.11L.047-.454v.5L2.859 0l2.875.047zm0 0"/></svg><svg overflow="visible" x="179.67" y="18.004"><path d="M3.766-2.719v-.797c0-1.515-.907-3.171-2.516-4.78-.11.202-.156.265-.203.327-.063.063-.125.11-.313.203 1.438 1.47 2.032 2.86 2.032 4.25v.797c0 1.375-.594 2.781-2.032 4.25.188.094.25.14.313.203.047.063.094.125.203.329C2.86.452 3.766-1.204 3.766-2.72zm0 0"/></svg><svg overflow="visible" x="1.083" y="47.622"><path d="M5.656-2.813c0-.562-.281-1.171-.703-1.468-.297-.219-.672-.344-.953-.407.734-.562 1.125-1.203 1.125-1.906 0-1.062-1.016-1.906-2.344-1.906-.812 0-1.453.266-2.047.86L.328-5.954h.64l.266-.797c.125-.406.75-.688 1.375-.688.766 0 1.266.5 1.266 1.25 0 .907-.563 1.532-1.406 1.532-.11 0-.469.187-.469.187l-.25-.093-.14.671.202.188C2.297-3.938 2.516-4 2.845-4c1 0 1.422.516 1.422 1.594 0 1.219-.579 1.89-1.704 1.89-.546 0-.937-.14-1.296-.468C.984-1.25.859-1.438.578-2.25l-.562.219C.28-1.234.375-.797.469-.11c.765.25 1.281.343 1.734.343.953 0 2.14-.562 2.813-1.375.406-.484.64-1.109.64-1.671zm0 0"/></svg><svg overflow="visible" x="7.061" y="47.622"><path d="M5.36-5.922a2.204 2.204 0 00-.563-.11c-.797 0-1.89.97-3.39 3.063l.25.094 1.28-5.938-.265-.234c-.75.375-1.063.438-2.047.531l-.094.5h.735c.28 0 .265-.046.265.157 0 .109-.015.203-.031.296L.937-4.358c-.156.89-.359 1.718-1 4.25l.204.234.968-.25.297-1.578c.11-.578.36-1.016.61-1.281C2.766-.844 3.28.109 3.578.109c.156 0 .547-.187 1.078-.562l.61-.438-.204-.453-.671.375c-.172.094-.141.078-.25.078-.11 0-.094-.03-.204-.234-.421-.766-.656-1.313-1.109-2.734l.125-.125c.735-.72 1.188-.985 1.781-.985.094 0 .22.016.516.094l.266-1zm0 0"/></svg><svg overflow="visible" x="15.417" y="47.622"><path d="M8.266-2.766a1.332 1.332 0 01-.047-.359c0-.11.015-.234.062-.484h-3.25v-3.266c-.25.063-.375.078-.484.078-.125 0-.25-.016-.5-.078v3.266H.78c.063.25.063.375.063.484 0 .125 0 .25-.063.5h3.266V.641c.25-.063.375-.079.5-.079.11 0 .234.016.484.079v-3.266h3.25zm0 0"/></svg><svg overflow="visible" x="27.157" y="47.622"><path d="M5.766-.094v-.484l-.704-.047c-.578-.031-.578-.063-.578-.781v-.75c.579 0 .829 0 1.282.062v-1L5.734-3s-.671-.188-1.062-.188h-.188v-1.53c0-2.126.016-3.157.094-3.72l-.281-.124-.984.343-3.438 5.64.203.423h3.125v.75c0 .718.016.765-.578.781l-.875.047v.625L3.813 0l1.953.047zM3.344-3.188H1l2.438-3.984-.235-.094v4.079zm0 0"/></svg><svg overflow="visible" x="33.135" y="47.622"><path d="M4.125-5.703c-.469-.219-.797-.328-1.203-.328-.61 0-1.453.39-2.031.968a1.63 1.63 0 00-.47 1.157c0 .672.516 1.187 1.298 1.344l.75.14c.531.094.578.156.578.64 0 .798-.406 1.173-1.25 1.173-.438 0-.703-.094-1-.344v-1.078H.234C.172-1.297.094-.875-.046-.25.453 0 .968.125 1.39.125c.578 0 1.234-.25 1.843-.719.61-.484.891-1.015.891-1.625 0-.64-.5-1.11-1.406-1.281l-.5-.094c-.719-.14-.813-.203-.813-.703 0-.625.39-.984 1.078-.984.485 0 .844.172 1 .422v.765h.532c.062-.547.109-.86.25-1.531zm0 0"/></svg><svg overflow="visible" x="37.785" y="47.622"><path d="M2.969-1.25l-.172-.297-.453.297c-.36.234-.5.313-.625.313-.078 0-.016.03-.016-.11 0-.11 0-.203.078-.469l.922-3.64c.047-.203.063-.313.063-.422 0-.203-.22-.453-.422-.453-.266 0-.797.281-1.703.922l-.407.296.188.485.547-.36c.344-.218.375-.234.484-.234.11 0 .047-.031.047.11 0 .109-.047.359-.094.53L.625-1.405c-.11.375-.156.672-.156.922 0 .28.265.593.5.593.312 0 .844-.296 2.078-1.218zm.344-6.406c0-.282-.313-.61-.563-.61-.36 0-.844.516-.844.922 0 .297.328.625.625.625.375 0 .781-.484.781-.937zm0 0"/></svg><svg overflow="visible" x="41.3" y="47.622"><path d="M6.234-1.25l-.171-.297-.454.297c-.343.219-.5.313-.625.313-.078 0-.03.03-.03-.11 0-.047.015-.187.03-.234l.782-3.297c.093-.344.14-.688.14-.89 0-.266-.265-.563-.5-.563-.5 0-1.437.5-2.14 1.156-.454.422-.797.828-1.407 1.703l.235.094.453-1.938c.047-.203.078-.343.078-.484 0-.25-.234-.531-.406-.531-.266 0-.828.312-1.703.922l-.391.296.172.485.547-.36c.437-.28.39-.265.469-.265.14 0 .078 0 .078.172 0 .61-.5 2.922-.985 4.656l.172.25c.36-.094.625-.172 1.016-.234.234-1.625.468-2.313 1-3.125.656-1.016 1.453-1.72 1.984-1.72.125 0 .063-.015.063.157 0 .219-.032.469-.141.86l-.61 2.53c-.109.438-.156.72-.156.907 0 .297.266.61.5.61.313 0 .829-.282 2.079-1.22zm0 0"/></svg><svg overflow="visible" x="47.947" y="47.622"><path d="M4.203-7.828a.735.735 0 01-.187-.14c-.063-.063-.11-.126-.22-.329-1.593 1.61-2.5 3.266-2.5 4.781v.797c0 1.516.907 3.172 2.5 4.781.11-.203.157-.265.22-.328.062-.062.125-.109.312-.203C2.875.063 2.281-1.344 2.281-2.719v-.797c0-1.39.594-2.78 2.047-4.25zm0 0"/></svg><svg overflow="visible" x="53.016" y="47.622"><path d="M6.031-5.969c.063-1.672-.468-2.797-1.453-2.797-.516 0-1.156.297-1.734.829C1.734-6.923.828-5.017.734-2.829.641-.922 1.141.125 2.141.125c.625 0 1.484-.469 2.078-1.188.86-1.046 1.718-3.109 1.812-4.906zM4.547-3.937C4.234-2.734 3.78-1.75 3.359-1.142c-.25.375-.484.563-.843.563-.704 0-.657-.797-.61-2.219.016-.375.063-.75.125-1.047.14-.062.469-.094 1.313-.094.812 0 1.047 0 1.187.063zm.281-1.782a6.748 6.748 0 01-.094.922c-.125.047-.484.094-1.28.094-.813 0-1.157-.047-1.22-.063.36-1.343.922-2.53 1.375-3.046.188-.172.36-.235.641-.235.766 0 .656.844.578 2.328zm0 0"/></svg><svg overflow="visible" x="59.245" y="47.622"><path d="M3.766-2.719v-.797c0-1.515-.907-3.171-2.516-4.78-.11.202-.156.265-.203.327-.063.063-.125.11-.313.203 1.438 1.47 2.032 2.86 2.032 4.25v.797c0 1.375-.594 2.781-2.032 4.25.188.094.25.14.313.203.047.063.094.125.203.329C2.86.452 3.766-1.204 3.766-2.72zm0 0"/></svg><svg overflow="visible" x="64.314" y="47.622"><path d="M3.766-2.719v-.797c0-1.515-.907-3.171-2.516-4.78-.11.202-.156.265-.203.327-.063.063-.125.11-.313.203 1.438 1.47 2.032 2.86 2.032 4.25v.797c0 1.375-.594 2.781-2.032 4.25.188.094.25.14.313.203.047.063.094.125.203.329C2.86.452 3.766-1.204 3.766-2.72zm0 0"/></svg><svg overflow="visible" x="72.037" y="47.622"><path d="M8.266-2.766a1.332 1.332 0 01-.047-.359c0-.11.015-.234.062-.484h-7.5c.063.25.063.375.063.484 0 .125 0 .25-.063.5h7.5zm0 0"/></svg><svg overflow="visible" x="83.777" y="47.622"><path d="M5.656-2.813c0-.562-.281-1.171-.703-1.468-.297-.219-.672-.344-.953-.407.734-.562 1.125-1.203 1.125-1.906 0-1.062-1.016-1.906-2.344-1.906-.812 0-1.453.266-2.047.86L.328-5.954h.64l.266-.797c.125-.406.75-.688 1.375-.688.766 0 1.266.5 1.266 1.25 0 .907-.563 1.532-1.406 1.532-.11 0-.469.187-.469.187l-.25-.093-.14.671.202.188C2.297-3.938 2.516-4 2.845-4c1 0 1.422.516 1.422 1.594 0 1.219-.579 1.89-1.704 1.89-.546 0-.937-.14-1.296-.468C.984-1.25.859-1.438.578-2.25l-.562.219C.28-1.234.375-.797.469-.11c.765.25 1.281.343 1.734.343.953 0 2.14-.562 2.813-1.375.406-.484.64-1.109.64-1.671zm0 0"/></svg><svg overflow="visible" x="89.755" y="47.622"><path d="M5.36-5.922a2.204 2.204 0 00-.563-.11c-.797 0-1.89.97-3.39 3.063l.25.094 1.28-5.938-.265-.234c-.75.375-1.063.438-2.047.531l-.094.5h.735c.28 0 .265-.046.265.157 0 .109-.015.203-.031.296L.937-4.358c-.156.89-.359 1.718-1 4.25l.204.234.968-.25.297-1.578c.11-.578.36-1.016.61-1.281C2.766-.844 3.28.109 3.578.109c.156 0 .547-.187 1.078-.562l.61-.438-.204-.453-.671.375c-.172.094-.141.078-.25.078-.11 0-.094-.03-.204-.234-.421-.766-.656-1.313-1.109-2.734l.125-.125c.735-.72 1.188-.985 1.781-.985.094 0 .22.016.516.094l.266-1zm0 0"/></svg><svg overflow="visible" x="98.123" y="47.622"><path d="M2.516-3.125c0-.422-.407-.844-.844-.844-.422 0-.86.422-.86.844 0 .438.438.86.86.86.437 0 .844-.422.844-.86zm0 0"/></svg><svg overflow="visible" x="104.125" y="47.622"><path d="M4.75-5.703c-.297-.188-.797-.328-1.25-.328-.531 0-1.484.468-2.172 1.062C.641-4.375.156-3.03.156-1.75.156-.61.796.125 1.75.125c.656 0 1.328-.266 1.984-.813l.657-.53-.204-.485-.343.219c-.86.578-1.203.75-1.625.75-.672 0-.875-.36-.875-1.297 0-1.266.36-2.406.937-2.875.25-.203.453-.266.844-.266.531 0 .813.094.813.375v.86h.546c.11-.922.188-1.36.329-1.735zm0 0"/></svg><svg overflow="visible" x="109.11" y="47.622"><path d="M5.047-4.094c0-1.125-.734-1.937-1.719-1.937-.515 0-1.187.25-1.719.625-.968.703-1.546 2-1.546 3.453C.063-.687.734.125 1.734.125c.657 0 1.47-.344 2-.844.75-.703 1.313-2.156 1.313-3.375zm-1.188.203C3.86-2.75 3.531-1.578 3-.937c-.219.25-.422.359-.781.359-.703 0-.969-.406-.969-1.36 0-1.343.422-2.718 1.016-3.203.156-.125.328-.171.609-.171.734 0 .984.406.984 1.421zm0 0"/></svg><svg overflow="visible" x="114.418" y="47.622"><path d="M4.125-5.703c-.469-.219-.797-.328-1.203-.328-.61 0-1.453.39-2.031.968a1.63 1.63 0 00-.47 1.157c0 .672.516 1.187 1.298 1.344l.75.14c.531.094.578.156.578.64 0 .798-.406 1.173-1.25 1.173-.438 0-.703-.094-1-.344v-1.078H.234C.172-1.297.094-.875-.046-.25.453 0 .968.125 1.39.125c.578 0 1.234-.25 1.843-.719.61-.484.891-1.015.891-1.625 0-.64-.5-1.11-1.406-1.281l-.5-.094c-.719-.14-.813-.203-.813-.703 0-.625.39-.984 1.078-.984.485 0 .844.172 1 .422v.765h.532c.062-.547.109-.86.25-1.531zm0 0"/></svg><svg overflow="visible" x="119.069" y="47.622"><path d="M4.203-7.828a.735.735 0 01-.187-.14c-.063-.063-.11-.126-.22-.329-1.593 1.61-2.5 3.266-2.5 4.781v.797c0 1.516.907 3.172 2.5 4.781.11-.203.157-.265.22-.328.062-.062.125-.109.312-.203C2.875.063 2.281-1.344 2.281-2.719v-.797c0-1.39.594-2.78 2.047-4.25zm0 0"/></svg><svg overflow="visible" x="124.138" y="47.622"><path d="M6.031-5.969c.063-1.672-.468-2.797-1.453-2.797-.516 0-1.156.297-1.734.829C1.734-6.923.828-5.017.734-2.829.641-.922 1.141.125 2.141.125c.625 0 1.484-.469 2.078-1.188.86-1.046 1.718-3.109 1.812-4.906zM4.547-3.937C4.234-2.734 3.78-1.75 3.359-1.142c-.25.375-.484.563-.843.563-.704 0-.657-.797-.61-2.219.016-.375.063-.75.125-1.047.14-.062.469-.094 1.313-.094.812 0 1.047 0 1.187.063zm.281-1.782a6.748 6.748 0 01-.094.922c-.125.047-.484.094-1.28.094-.813 0-1.157-.047-1.22-.063.36-1.343.922-2.53 1.375-3.046.188-.172.36-.235.641-.235.766 0 .656.844.578 2.328zm0 0"/></svg><svg overflow="visible" x="130.367" y="47.622"><path d="M3.766-2.719v-.797c0-1.515-.907-3.171-2.516-4.78-.11.202-.156.265-.203.327-.063.063-.125.11-.313.203 1.438 1.47 2.032 2.86 2.032 4.25v.797c0 1.375-.594 2.781-2.032 4.25.188.094.25.14.313.203.047.063.094.125.203.329C2.86.452 3.766-1.204 3.766-2.72zm0 0"/></svg><svg overflow="visible" x="138.759" y="47.622"><path d="M8.266-4.078a1.419 1.419 0 01-.047-.36c0-.109.015-.234.062-.484h-7.5c.063.25.063.375.063.484 0 .125 0 .235-.063.5h7.5zm0 2.625a1.332 1.332 0 01-.047-.36c0-.109.015-.234.062-.484h-7.5c.063.25.063.375.063.485 0 .125 0 .25-.063.5h7.5zm0 0"/></svg><svg overflow="visible" x="151.169" y="47.622"><path d="M5.672-2.594c0-.953-.563-1.61-1.672-2.11.922-.624 1.344-1.218 1.344-1.937 0-1.03-.985-1.859-2.25-1.859-1.422 0-2.61 1.047-2.61 2.297 0 .812.36 1.36 1.25 1.937-.218.11-.53.266-.796.532a2.443 2.443 0 00-.72 1.703C.219-.797 1.345.234 2.704.234c1.547 0 2.969-1.343 2.969-2.828zm-1.219.5c0 1-.61 1.656-1.578 1.656-1.016 0-1.531-.578-1.531-1.687 0-.875.312-1.328 1.11-1.813l.937.407c.75.344 1.062.797 1.062 1.437zM4.25-6.516c0 .688-.25 1.047-.953 1.5l-.625-.296c-.766-.375-1.016-.72-1.016-1.329 0-.78.453-1.187 1.297-1.187.875 0 1.297.437 1.297 1.312zm0 0"/></svg><svg overflow="visible" x="157.146" y="47.622"><path d="M4.125-5.703c-.469-.219-.797-.328-1.203-.328-.61 0-1.453.39-2.031.968a1.63 1.63 0 00-.47 1.157c0 .672.516 1.187 1.298 1.344l.75.14c.531.094.578.156.578.64 0 .798-.406 1.173-1.25 1.173-.438 0-.703-.094-1-.344v-1.078H.234C.172-1.297.094-.875-.046-.25.453 0 .968.125 1.39.125c.578 0 1.234-.25 1.843-.719.61-.484.891-1.015.891-1.625 0-.64-.5-1.11-1.406-1.281l-.5-.094c-.719-.14-.813-.203-.813-.703 0-.625.39-.984 1.078-.984.485 0 .844.172 1 .422v.765h.532c.062-.547.109-.86.25-1.531zm0 0"/></svg><svg overflow="visible" x="161.797" y="47.622"><path d="M2.969-1.25l-.172-.297-.453.297c-.36.234-.5.313-.625.313-.078 0-.016.03-.016-.11 0-.11 0-.203.078-.469l.922-3.64c.047-.203.063-.313.063-.422 0-.203-.22-.453-.422-.453-.266 0-.797.281-1.703.922l-.407.296.188.485.547-.36c.344-.218.375-.234.484-.234.11 0 .047-.031.047.11 0 .109-.047.359-.094.53L.625-1.405c-.11.375-.156.672-.156.922 0 .28.265.593.5.593.312 0 .844-.296 2.078-1.218zm.344-6.406c0-.282-.313-.61-.563-.61-.36 0-.844.516-.844.922 0 .297.328.625.625.625.375 0 .781-.484.781-.937zm0 0"/></svg><svg overflow="visible" x="165.312" y="47.622"><path d="M6.234-1.25l-.171-.297-.454.297c-.343.219-.5.313-.625.313-.078 0-.03.03-.03-.11 0-.047.015-.187.03-.234l.782-3.297c.093-.344.14-.688.14-.89 0-.266-.265-.563-.5-.563-.5 0-1.437.5-2.14 1.156-.454.422-.797.828-1.407 1.703l.235.094.453-1.938c.047-.203.078-.343.078-.484 0-.25-.234-.531-.406-.531-.266 0-.828.312-1.703.922l-.391.296.172.485.547-.36c.437-.28.39-.265.469-.265.14 0 .078 0 .078.172 0 .61-.5 2.922-.985 4.656l.172.25c.36-.094.625-.172 1.016-.234.234-1.625.468-2.313 1-3.125.656-1.016 1.453-1.72 1.984-1.72.125 0 .063-.015.063.157 0 .219-.032.469-.141.86l-.61 2.53c-.109.438-.156.72-.156.907 0 .297.266.61.5.61.313 0 .829-.282 2.079-1.22zm0 0"/></svg><svg overflow="visible" x="173.943" y="47.622"><path d="M7.063-17.313c-.063-.046-.125-.093-.188-.156-.063-.047-.11-.11-.219-.312C3.47-14.594 1.563-10.328 1.563-5.5v4.766c0 4.828 1.906 9.093 5.093 12.28.11-.202.157-.265.219-.327.063-.047.125-.11.313-.203C4.14 7.953 2.796 3.89 2.796-.734V-5.5c0-4.64 1.344-8.688 4.39-11.766zm0 0"/></svg><svg overflow="visible" x="183.265" y="39.014"><path d="M6.031-5.969c.063-1.672-.468-2.797-1.453-2.797-.516 0-1.156.297-1.734.829C1.734-6.923.828-5.017.734-2.829.641-.922 1.141.125 2.141.125c.625 0 1.484-.469 2.078-1.188.86-1.046 1.718-3.109 1.812-4.906zM4.547-3.937C4.234-2.734 3.78-1.75 3.359-1.142c-.25.375-.484.563-.843.563-.704 0-.657-.797-.61-2.219.016-.375.063-.75.125-1.047.14-.062.469-.094 1.313-.094.812 0 1.047 0 1.187.063zm.281-1.782a6.748 6.748 0 01-.094.922c-.125.047-.484.094-1.28.094-.813 0-1.157-.047-1.22-.063.36-1.343.922-2.53 1.375-3.046.188-.172.36-.235.641-.235.766 0 .656.844.578 2.328zm0 0"/></svg><path d="M183.266 44.633h6.226" fill="none" stroke-width=".717" stroke="#000" stroke-miterlimit="10"/><svg overflow="visible" x="183.39" y="55.585"><path d="M5.719-.094c-.016-.25-.016-.375-.016-.547 0-.14 0-.265.031-.671l-4.28.125.093.234 2.187-2.313C4.891-4.5 5.281-5.25 5.281-6.14 5.281-7.516 4.22-8.5 2.703-8.5c-.86 0-1.562.281-2.172.906L.312-5.766h.594l.188-.687c.203-.688.5-.86 1.297-.86 1.03 0 1.546.516 1.546 1.532 0 .89-.468 1.687-1.828 3.11L.047-.454v.5L2.859 0l2.875.047zm0 0"/></svg><svg overflow="visible" x="190.689" y="47.622"><path d="M6.531-.734V-5.5c0-4.828-1.875-9.094-5.078-12.281-.11.203-.156.265-.219.312-.062.063-.125.11-.312.203 3.062 3.078 4.39 7.125 4.39 11.766v4.766c0 4.625-1.328 8.687-4.39 11.75.187.093.25.156.312.203.063.062.11.125.22.328C4.655 8.359 6.53 4.094 6.53-.734zm0 0"/></svg><svg overflow="visible" x="57.708" y="80.491"><path d="M5.656-2.813c0-.562-.281-1.171-.703-1.468-.297-.219-.672-.344-.953-.407.734-.562 1.125-1.203 1.125-1.906 0-1.062-1.016-1.906-2.344-1.906-.812 0-1.453.266-2.047.86L.328-5.954h.64l.266-.797c.125-.406.75-.688 1.375-.688.766 0 1.266.5 1.266 1.25 0 .907-.563 1.532-1.406 1.532-.11 0-.469.187-.469.187l-.25-.093-.14.671.202.188C2.297-3.938 2.516-4 2.845-4c1 0 1.422.516 1.422 1.594 0 1.219-.579 1.89-1.704 1.89-.546 0-.937-.14-1.296-.468C.984-1.25.859-1.438.578-2.25l-.562.219C.28-1.234.375-.797.469-.11c.765.25 1.281.343 1.734.343.953 0 2.14-.562 2.813-1.375.406-.484.64-1.109.64-1.671zm0 0"/></svg><svg overflow="visible" x="63.686" y="80.491"><path d="M5.36-5.922a2.204 2.204 0 00-.563-.11c-.797 0-1.89.97-3.39 3.063l.25.094 1.28-5.938-.265-.234c-.75.375-1.063.438-2.047.531l-.094.5h.735c.28 0 .265-.046.265.157 0 .109-.015.203-.031.296L.937-4.358c-.156.89-.359 1.718-1 4.25l.204.234.968-.25.297-1.578c.11-.578.36-1.016.61-1.281C2.766-.844 3.28.109 3.578.109c.156 0 .547-.187 1.078-.562l.61-.438-.204-.453-.671.375c-.172.094-.141.078-.25.078-.11 0-.094-.03-.204-.234-.421-.766-.656-1.313-1.109-2.734l.125-.125c.735-.72 1.188-.985 1.781-.985.094 0 .22.016.516.094l.266-1zm0 0"/></svg><svg overflow="visible" x="72.042" y="80.491"><path d="M8.266-2.766a1.332 1.332 0 01-.047-.359c0-.11.015-.234.062-.484h-7.5c.063.25.063.375.063.484 0 .125 0 .25-.063.5h7.5zm0 0"/></svg><svg overflow="visible" x="83.782" y="80.491"><path d="M5.656-2.813c0-.562-.281-1.171-.703-1.468-.297-.219-.672-.344-.953-.407.734-.562 1.125-1.203 1.125-1.906 0-1.062-1.016-1.906-2.344-1.906-.812 0-1.453.266-2.047.86L.328-5.954h.64l.266-.797c.125-.406.75-.688 1.375-.688.766 0 1.266.5 1.266 1.25 0 .907-.563 1.532-1.406 1.532-.11 0-.469.187-.469.187l-.25-.093-.14.671.202.188C2.297-3.938 2.516-4 2.845-4c1 0 1.422.516 1.422 1.594 0 1.219-.579 1.89-1.704 1.89-.546 0-.937-.14-1.296-.468C.984-1.25.859-1.438.578-2.25l-.562.219C.28-1.234.375-.797.469-.11c.765.25 1.281.343 1.734.343.953 0 2.14-.562 2.813-1.375.406-.484.64-1.109.64-1.671zm0 0"/></svg><svg overflow="visible" x="89.76" y="80.491"><path d="M5.36-5.922a2.204 2.204 0 00-.563-.11c-.797 0-1.89.97-3.39 3.063l.25.094 1.28-5.938-.265-.234c-.75.375-1.063.438-2.047.531l-.094.5h.735c.28 0 .265-.046.265.157 0 .109-.015.203-.031.296L.937-4.358c-.156.89-.359 1.718-1 4.25l.204.234.968-.25.297-1.578c.11-.578.36-1.016.61-1.281C2.766-.844 3.28.109 3.578.109c.156 0 .547-.187 1.078-.562l.61-.438-.204-.453-.671.375c-.172.094-.141.078-.25.078-.11 0-.094-.03-.204-.234-.421-.766-.656-1.313-1.109-2.734l.125-.125c.735-.72 1.188-.985 1.781-.985.094 0 .22.016.516.094l.266-1zm0 0"/></svg><svg overflow="visible" x="98.117" y="80.491"><path d="M2.516-3.125c0-.422-.407-.844-.844-.844-.422 0-.86.422-.86.844 0 .438.438.86.86.86.437 0 .844-.422.844-.86zm0 0"/></svg><svg overflow="visible" x="104.13" y="80.491"><path d="M4.75-5.703c-.297-.188-.797-.328-1.25-.328-.531 0-1.484.468-2.172 1.062C.641-4.375.156-3.03.156-1.75.156-.61.796.125 1.75.125c.656 0 1.328-.266 1.984-.813l.657-.53-.204-.485-.343.219c-.86.578-1.203.75-1.625.75-.672 0-.875-.36-.875-1.297 0-1.266.36-2.406.937-2.875.25-.203.453-.266.844-.266.531 0 .813.094.813.375v.86h.546c.11-.922.188-1.36.329-1.735zm0 0"/></svg><svg overflow="visible" x="109.115" y="80.491"><path d="M5.047-4.094c0-1.125-.734-1.937-1.719-1.937-.515 0-1.187.25-1.719.625-.968.703-1.546 2-1.546 3.453C.063-.687.734.125 1.734.125c.657 0 1.47-.344 2-.844.75-.703 1.313-2.156 1.313-3.375zm-1.188.203C3.86-2.75 3.531-1.578 3-.937c-.219.25-.422.359-.781.359-.703 0-.969-.406-.969-1.36 0-1.343.422-2.718 1.016-3.203.156-.125.328-.171.609-.171.734 0 .984.406.984 1.421zm0 0"/></svg><svg overflow="visible" x="114.423" y="80.491"><path d="M4.125-5.703c-.469-.219-.797-.328-1.203-.328-.61 0-1.453.39-2.031.968a1.63 1.63 0 00-.47 1.157c0 .672.516 1.187 1.298 1.344l.75.14c.531.094.578.156.578.64 0 .798-.406 1.173-1.25 1.173-.438 0-.703-.094-1-.344v-1.078H.234C.172-1.297.094-.875-.046-.25.453 0 .968.125 1.39.125c.578 0 1.234-.25 1.843-.719.61-.484.891-1.015.891-1.625 0-.64-.5-1.11-1.406-1.281l-.5-.094c-.719-.14-.813-.203-.813-.703 0-.625.39-.984 1.078-.984.485 0 .844.172 1 .422v.765h.532c.062-.547.109-.86.25-1.531zm0 0"/></svg><svg overflow="visible" x="119.074" y="80.491"><path d="M4.203-7.828a.735.735 0 01-.187-.14c-.063-.063-.11-.126-.22-.329-1.593 1.61-2.5 3.266-2.5 4.781v.797c0 1.516.907 3.172 2.5 4.781.11-.203.157-.265.22-.328.062-.062.125-.109.312-.203C2.875.063 2.281-1.344 2.281-2.719v-.797c0-1.39.594-2.78 2.047-4.25zm0 0"/></svg><svg overflow="visible" x="124.143" y="80.491"><path d="M6.031-5.969c.063-1.672-.468-2.797-1.453-2.797-.516 0-1.156.297-1.734.829C1.734-6.923.828-5.017.734-2.829.641-.922 1.141.125 2.141.125c.625 0 1.484-.469 2.078-1.188.86-1.046 1.718-3.109 1.812-4.906zM4.547-3.937C4.234-2.734 3.78-1.75 3.359-1.142c-.25.375-.484.563-.843.563-.704 0-.657-.797-.61-2.219.016-.375.063-.75.125-1.047.14-.062.469-.094 1.313-.094.812 0 1.047 0 1.187.063zm.281-1.782a6.748 6.748 0 01-.094.922c-.125.047-.484.094-1.28.094-.813 0-1.157-.047-1.22-.063.36-1.343.922-2.53 1.375-3.046.188-.172.36-.235.641-.235.766 0 .656.844.578 2.328zm0 0"/></svg><svg overflow="visible" x="130.372" y="80.491"><path d="M3.766-2.719v-.797c0-1.515-.907-3.171-2.516-4.78-.11.202-.156.265-.203.327-.063.063-.125.11-.313.203 1.438 1.47 2.032 2.86 2.032 4.25v.797c0 1.375-.594 2.781-2.032 4.25.188.094.25.14.313.203.047.063.094.125.203.329C2.86.452 3.766-1.204 3.766-2.72zm0 0"/></svg><svg overflow="visible" x="138.752" y="80.491"><path d="M8.266-4.078a1.419 1.419 0 01-.047-.36c0-.109.015-.234.062-.484h-7.5c.063.25.063.375.063.484 0 .125 0 .235-.063.5h7.5zm0 2.625a1.332 1.332 0 01-.047-.36c0-.109.015-.234.062-.484h-7.5c.063.25.063.375.063.485 0 .125 0 .25-.063.5h7.5zm0 0"/></svg><svg overflow="visible" x="151.162" y="80.491"><path d="M5.672-2.594c0-.953-.563-1.61-1.672-2.11.922-.624 1.344-1.218 1.344-1.937 0-1.03-.985-1.859-2.25-1.859-1.422 0-2.61 1.047-2.61 2.297 0 .812.36 1.36 1.25 1.937-.218.11-.53.266-.796.532a2.443 2.443 0 00-.72 1.703C.219-.797 1.345.234 2.704.234c1.547 0 2.969-1.343 2.969-2.828zm-1.219.5c0 1-.61 1.656-1.578 1.656-1.016 0-1.531-.578-1.531-1.687 0-.875.312-1.328 1.11-1.813l.937.407c.75.344 1.062.797 1.062 1.437zM4.25-6.516c0 .688-.25 1.047-.953 1.5l-.625-.296c-.766-.375-1.016-.72-1.016-1.329 0-.78.453-1.187 1.297-1.187.875 0 1.297.437 1.297 1.312zm0 0"/></svg><svg overflow="visible" x="157.139" y="80.491"><path d="M4.125-5.703c-.469-.219-.797-.328-1.203-.328-.61 0-1.453.39-2.031.968a1.63 1.63 0 00-.47 1.157c0 .672.516 1.187 1.298 1.344l.75.14c.531.094.578.156.578.64 0 .798-.406 1.173-1.25 1.173-.438 0-.703-.094-1-.344v-1.078H.234C.172-1.297.094-.875-.046-.25.453 0 .968.125 1.39.125c.578 0 1.234-.25 1.843-.719.61-.484.891-1.015.891-1.625 0-.64-.5-1.11-1.406-1.281l-.5-.094c-.719-.14-.813-.203-.813-.703 0-.625.39-.984 1.078-.984.485 0 .844.172 1 .422v.765h.532c.062-.547.109-.86.25-1.531zm0 0"/></svg><svg overflow="visible" x="161.79" y="80.491"><path d="M2.969-1.25l-.172-.297-.453.297c-.36.234-.5.313-.625.313-.078 0-.016.03-.016-.11 0-.11 0-.203.078-.469l.922-3.64c.047-.203.063-.313.063-.422 0-.203-.22-.453-.422-.453-.266 0-.797.281-1.703.922l-.407.296.188.485.547-.36c.344-.218.375-.234.484-.234.11 0 .047-.031.047.11 0 .109-.047.359-.094.53L.625-1.405c-.11.375-.156.672-.156.922 0 .28.265.593.5.593.312 0 .844-.296 2.078-1.218zm.344-6.406c0-.282-.313-.61-.563-.61-.36 0-.844.516-.844.922 0 .297.328.625.625.625.375 0 .781-.484.781-.937zm0 0"/></svg><svg overflow="visible" x="165.305" y="80.491"><path d="M6.234-1.25l-.171-.297-.454.297c-.343.219-.5.313-.625.313-.078 0-.03.03-.03-.11 0-.047.015-.187.03-.234l.782-3.297c.093-.344.14-.688.14-.89 0-.266-.265-.563-.5-.563-.5 0-1.437.5-2.14 1.156-.454.422-.797.828-1.407 1.703l.235.094.453-1.938c.047-.203.078-.343.078-.484 0-.25-.234-.531-.406-.531-.266 0-.828.312-1.703.922l-.391.296.172.485.547-.36c.437-.28.39-.265.469-.265.14 0 .078 0 .078.172 0 .61-.5 2.922-.985 4.656l.172.25c.36-.094.625-.172 1.016-.234.234-1.625.468-2.313 1-3.125.656-1.016 1.453-1.72 1.984-1.72.125 0 .063-.015.063.157 0 .219-.032.469-.141.86l-.61 2.53c-.109.438-.156.72-.156.907 0 .297.266.61.5.61.313 0 .829-.282 2.079-1.22zm0 0"/></svg><svg overflow="visible" x="173.948" y="80.491"><path d="M7.063-17.313c-.063-.046-.125-.093-.188-.156-.063-.047-.11-.11-.219-.312C3.47-14.594 1.563-10.328 1.563-5.5v4.766c0 4.828 1.906 9.093 5.093 12.28.11-.202.157-.265.219-.327.063-.047.125-.11.313-.203C4.14 7.953 2.796 3.89 2.796-.734V-5.5c0-4.64 1.344-8.688 4.39-11.766zm0 0"/></svg><svg overflow="visible" x="183.265" y="71.882"><path d="M6.031-5.969c.063-1.672-.468-2.797-1.453-2.797-.516 0-1.156.297-1.734.829C1.734-6.923.828-5.017.734-2.829.641-.922 1.141.125 2.141.125c.625 0 1.484-.469 2.078-1.188.86-1.046 1.718-3.109 1.812-4.906zM4.547-3.937C4.234-2.734 3.78-1.75 3.359-1.142c-.25.375-.484.563-.843.563-.704 0-.657-.797-.61-2.219.016-.375.063-.75.125-1.047.14-.062.469-.094 1.313-.094.812 0 1.047 0 1.187.063zm.281-1.782a6.748 6.748 0 01-.094.922c-.125.047-.484.094-1.28.094-.813 0-1.157-.047-1.22-.063.36-1.343.922-2.53 1.375-3.046.188-.172.36-.235.641-.235.766 0 .656.844.578 2.328zm0 0"/></svg><path d="M183.266 77.504h6.226" fill="none" stroke-width=".717" stroke="#000" stroke-miterlimit="10"/><svg overflow="visible" x="183.39" y="88.454"><path d="M5.719-.094c-.016-.25-.016-.375-.016-.547 0-.14 0-.265.031-.671l-4.28.125.093.234 2.187-2.313C4.891-4.5 5.281-5.25 5.281-6.14 5.281-7.516 4.22-8.5 2.703-8.5c-.86 0-1.562.281-2.172.906L.312-5.766h.594l.188-.687c.203-.688.5-.86 1.297-.86 1.03 0 1.546.516 1.546 1.532 0 .89-.468 1.687-1.828 3.11L.047-.454v.5L2.859 0l2.875.047zm0 0"/></svg><svg overflow="visible" x="190.689" y="80.491"><path d="M6.531-.734V-5.5c0-4.828-1.875-9.094-5.078-12.281-.11.203-.156.265-.219.312-.062.063-.125.11-.312.203 3.062 3.078 4.39 7.125 4.39 11.766v4.766c0 4.625-1.328 8.687-4.39 11.75.187.093.25.156.312.203.063.062.11.125.22.328C4.655 8.359 6.53 4.094 6.53-.734zm0 0"/></svg><svg overflow="visible" x="201.461" y="80.491"><path d="M8.266-2.766a1.332 1.332 0 01-.047-.359c0-.11.015-.234.062-.484h-7.5c.063.25.063.375.063.484 0 .125 0 .25-.063.5h7.5zm0 0"/></svg><svg overflow="visible" x="213.201" y="80.491"><path d="M5.766-.094v-.484l-.704-.047c-.578-.031-.578-.063-.578-.781v-.75c.579 0 .829 0 1.282.062v-1L5.734-3s-.671-.188-1.062-.188h-.188v-1.53c0-2.126.016-3.157.094-3.72l-.281-.124-.984.343-3.438 5.64.203.423h3.125v.75c0 .718.016.765-.578.781l-.875.047v.625L3.813 0l1.953.047zM3.344-3.188H1l2.438-3.984-.235-.094v4.079zm0 0"/></svg><svg overflow="visible" x="219.178" y="80.491"><path d="M4.125-5.703c-.469-.219-.797-.328-1.203-.328-.61 0-1.453.39-2.031.968a1.63 1.63 0 00-.47 1.157c0 .672.516 1.187 1.298 1.344l.75.14c.531.094.578.156.578.64 0 .798-.406 1.173-1.25 1.173-.438 0-.703-.094-1-.344v-1.078H.234C.172-1.297.094-.875-.046-.25.453 0 .968.125 1.39.125c.578 0 1.234-.25 1.843-.719.61-.484.891-1.015.891-1.625 0-.64-.5-1.11-1.406-1.281l-.5-.094c-.719-.14-.813-.203-.813-.703 0-.625.39-.984 1.078-.984.485 0 .844.172 1 .422v.765h.532c.062-.547.109-.86.25-1.531zm0 0"/></svg><svg overflow="visible" x="223.829" y="80.491"><path d="M2.969-1.25l-.172-.297-.453.297c-.36.234-.5.313-.625.313-.078 0-.016.03-.016-.11 0-.11 0-.203.078-.469l.922-3.64c.047-.203.063-.313.063-.422 0-.203-.22-.453-.422-.453-.266 0-.797.281-1.703.922l-.407.296.188.485.547-.36c.344-.218.375-.234.484-.234.11 0 .047-.031.047.11 0 .109-.047.359-.094.53L.625-1.405c-.11.375-.156.672-.156.922 0 .28.265.593.5.593.312 0 .844-.296 2.078-1.218zm.344-6.406c0-.282-.313-.61-.563-.61-.36 0-.844.516-.844.922 0 .297.328.625.625.625.375 0 .781-.484.781-.937zm0 0"/></svg><svg overflow="visible" x="227.344" y="80.491"><path d="M6.234-1.25l-.171-.297-.454.297c-.343.219-.5.313-.625.313-.078 0-.03.03-.03-.11 0-.047.015-.187.03-.234l.782-3.297c.093-.344.14-.688.14-.89 0-.266-.265-.563-.5-.563-.5 0-1.437.5-2.14 1.156-.454.422-.797.828-1.407 1.703l.235.094.453-1.938c.047-.203.078-.343.078-.484 0-.25-.234-.531-.406-.531-.266 0-.828.312-1.703.922l-.391.296.172.485.547-.36c.437-.28.39-.265.469-.265.14 0 .078 0 .078.172 0 .61-.5 2.922-.985 4.656l.172.25c.36-.094.625-.172 1.016-.234.234-1.625.468-2.313 1-3.125.656-1.016 1.453-1.72 1.984-1.72.125 0 .063-.015.063.157 0 .219-.032.469-.141.86l-.61 2.53c-.109.438-.156.72-.156.907 0 .297.266.61.5.61.313 0 .829-.282 2.079-1.22zm0 0"/></svg><svg overflow="visible" x="233.991" y="80.491"><path d="M4.203-7.828a.735.735 0 01-.187-.14c-.063-.063-.11-.126-.22-.329-1.593 1.61-2.5 3.266-2.5 4.781v.797c0 1.516.907 3.172 2.5 4.781.11-.203.157-.265.22-.328.062-.062.125-.109.312-.203C2.875.063 2.281-1.344 2.281-2.719v-.797c0-1.39.594-2.78 2.047-4.25zm0 0"/></svg><svg overflow="visible" x="239.06" y="80.491"><path d="M6.031-5.969c.063-1.672-.468-2.797-1.453-2.797-.516 0-1.156.297-1.734.829C1.734-6.923.828-5.017.734-2.829.641-.922 1.141.125 2.141.125c.625 0 1.484-.469 2.078-1.188.86-1.046 1.718-3.109 1.812-4.906zM4.547-3.937C4.234-2.734 3.78-1.75 3.359-1.142c-.25.375-.484.563-.843.563-.704 0-.657-.797-.61-2.219.016-.375.063-.75.125-1.047.14-.062.469-.094 1.313-.094.812 0 1.047 0 1.187.063zm.281-1.782a6.748 6.748 0 01-.094.922c-.125.047-.484.094-1.28.094-.813 0-1.157-.047-1.22-.063.36-1.343.922-2.53 1.375-3.046.188-.172.36-.235.641-.235.766 0 .656.844.578 2.328zm0 0"/></svg><svg overflow="visible" x="245.288" y="80.491"><path d="M3.766-2.719v-.797c0-1.515-.907-3.171-2.516-4.78-.11.202-.156.265-.203.327-.063.063-.125.11-.313.203 1.438 1.47 2.032 2.86 2.032 4.25v.797c0 1.375-.594 2.781-2.032 4.25.188.094.25.14.313.203.047.063.094.125.203.329C2.86.452 3.766-1.204 3.766-2.72zm0 0"/></svg><svg overflow="visible" x="61.934" y="113.36"><path d="M5.656-2.813c0-.562-.281-1.171-.703-1.468-.297-.219-.672-.344-.953-.407.734-.562 1.125-1.203 1.125-1.906 0-1.062-1.016-1.906-2.344-1.906-.812 0-1.453.266-2.047.86L.328-5.954h.64l.266-.797c.125-.406.75-.688 1.375-.688.766 0 1.266.5 1.266 1.25 0 .907-.563 1.532-1.406 1.532-.11 0-.469.187-.469.187l-.25-.093-.14.671.202.188C2.297-3.938 2.516-4 2.845-4c1 0 1.422.516 1.422 1.594 0 1.219-.579 1.89-1.704 1.89-.546 0-.937-.14-1.296-.468C.984-1.25.859-1.438.578-2.25l-.562.219C.28-1.234.375-.797.469-.11c.765.25 1.281.343 1.734.343.953 0 2.14-.562 2.813-1.375.406-.484.64-1.109.64-1.671zm0 0"/></svg><svg overflow="visible" x="67.912" y="113.36"><path d="M5.36-5.922a2.204 2.204 0 00-.563-.11c-.797 0-1.89.97-3.39 3.063l.25.094 1.28-5.938-.265-.234c-.75.375-1.063.438-2.047.531l-.094.5h.735c.28 0 .265-.046.265.157 0 .109-.015.203-.031.296L.937-4.358c-.156.89-.359 1.718-1 4.25l.204.234.968-.25.297-1.578c.11-.578.36-1.016.61-1.281C2.766-.844 3.28.109 3.578.109c.156 0 .547-.187 1.078-.562l.61-.438-.204-.453-.671.375c-.172.094-.141.078-.25.078-.11 0-.094-.03-.204-.234-.421-.766-.656-1.313-1.109-2.734l.125-.125c.735-.72 1.188-.985 1.781-.985.094 0 .22.016.516.094l.266-1zm0 0"/></svg><svg overflow="visible" x="73.614" y="113.36"><path d="M4.203-7.828a.735.735 0 01-.187-.14c-.063-.063-.11-.126-.22-.329-1.593 1.61-2.5 3.266-2.5 4.781v.797c0 1.516.907 3.172 2.5 4.781.11-.203.157-.265.22-.328.062-.062.125-.109.312-.203C2.875.063 2.281-1.344 2.281-2.719v-.797c0-1.39.594-2.78 2.047-4.25zm0 0"/></svg><svg overflow="visible" x="78.683" y="113.36"><path d="M5.125-.094v-.484l-.75-.047c-.656-.031-.64-.031-.64-.656v-7.172l-.313-.125c-.875.469-1.61.781-2.86 1.219l.125.718h.235l1.547-.687.031-.016c.063 0-.047-.015-.047.266v5.797c0 .625.016.625-.64.656L1-.578v.625L3.125 0l2 .047zm0 0"/></svg><svg overflow="visible" x="87.315" y="113.36"><path d="M8.266-2.766a1.332 1.332 0 01-.047-.359c0-.11.015-.234.062-.484h-7.5c.063.25.063.375.063.484 0 .125 0 .25-.063.5h7.5zm0 0"/></svg><svg overflow="visible" x="99.055" y="113.36"><path d="M4.75-5.703c-.297-.188-.797-.328-1.25-.328-.531 0-1.484.468-2.172 1.062C.641-4.375.156-3.03.156-1.75.156-.61.796.125 1.75.125c.656 0 1.328-.266 1.984-.813l.657-.53-.204-.485-.343.219c-.86.578-1.203.75-1.625.75-.672 0-.875-.36-.875-1.297 0-1.266.36-2.406.937-2.875.25-.203.453-.266.844-.266.531 0 .813.094.813.375v.86h.546c.11-.922.188-1.36.329-1.735zm0 0"/></svg><svg overflow="visible" x="104.04" y="113.36"><path d="M5.047-4.094c0-1.125-.734-1.937-1.719-1.937-.515 0-1.187.25-1.719.625-.968.703-1.546 2-1.546 3.453C.063-.687.734.125 1.734.125c.657 0 1.47-.344 2-.844.75-.703 1.313-2.156 1.313-3.375zm-1.188.203C3.86-2.75 3.531-1.578 3-.937c-.219.25-.422.359-.781.359-.703 0-.969-.406-.969-1.36 0-1.343.422-2.718 1.016-3.203.156-.125.328-.171.609-.171.734 0 .984.406.984 1.421zm0 0"/></svg><svg overflow="visible" x="109.348" y="113.36"><path d="M4.125-5.703c-.469-.219-.797-.328-1.203-.328-.61 0-1.453.39-2.031.968a1.63 1.63 0 00-.47 1.157c0 .672.516 1.187 1.298 1.344l.75.14c.531.094.578.156.578.64 0 .798-.406 1.173-1.25 1.173-.438 0-.703-.094-1-.344v-1.078H.234C.172-1.297.094-.875-.046-.25.453 0 .968.125 1.39.125c.578 0 1.234-.25 1.843-.719.61-.484.891-1.015.891-1.625 0-.64-.5-1.11-1.406-1.281l-.5-.094c-.719-.14-.813-.203-.813-.703 0-.625.39-.984 1.078-.984.485 0 .844.172 1 .422v.765h.532c.062-.547.109-.86.25-1.531zm0 0"/></svg><svg overflow="visible" x="113.999" y="113.36"><path d="M4.203-7.828a.735.735 0 01-.187-.14c-.063-.063-.11-.126-.22-.329-1.593 1.61-2.5 3.266-2.5 4.781v.797c0 1.516.907 3.172 2.5 4.781.11-.203.157-.265.22-.328.062-.062.125-.109.312-.203C2.875.063 2.281-1.344 2.281-2.719v-.797c0-1.39.594-2.78 2.047-4.25zm0 0"/></svg><svg overflow="visible" x="119.068" y="113.36"><path d="M6.031-5.969c.063-1.672-.468-2.797-1.453-2.797-.516 0-1.156.297-1.734.829C1.734-6.923.828-5.017.734-2.829.641-.922 1.141.125 2.141.125c.625 0 1.484-.469 2.078-1.188.86-1.046 1.718-3.109 1.812-4.906zM4.547-3.937C4.234-2.734 3.78-1.75 3.359-1.142c-.25.375-.484.563-.843.563-.704 0-.657-.797-.61-2.219.016-.375.063-.75.125-1.047.14-.062.469-.094 1.313-.094.812 0 1.047 0 1.187.063zm.281-1.782a6.748 6.748 0 01-.094.922c-.125.047-.484.094-1.28.094-.813 0-1.157-.047-1.22-.063.36-1.343.922-2.53 1.375-3.046.188-.172.36-.235.641-.235.766 0 .656.844.578 2.328zm0 0"/></svg><svg overflow="visible" x="125.297" y="113.36"><path d="M3.766-2.719v-.797c0-1.515-.907-3.171-2.516-4.78-.11.202-.156.265-.203.327-.063.063-.125.11-.313.203 1.438 1.47 2.032 2.86 2.032 4.25v.797c0 1.375-.594 2.781-2.032 4.25.188.094.25.14.313.203.047.063.094.125.203.329C2.86.452 3.766-1.204 3.766-2.72zm0 0"/></svg><svg overflow="visible" x="130.366" y="113.36"><path d="M3.766-2.719v-.797c0-1.515-.907-3.171-2.516-4.78-.11.202-.156.265-.203.327-.063.063-.125.11-.313.203 1.438 1.47 2.032 2.86 2.032 4.25v.797c0 1.375-.594 2.781-2.032 4.25.188.094.25.14.313.203.047.063.094.125.203.329C2.86.452 3.766-1.204 3.766-2.72zm0 0"/></svg><svg overflow="visible" x="138.758" y="113.36"><path d="M8.266-4.078a1.419 1.419 0 01-.047-.36c0-.109.015-.234.062-.484h-7.5c.063.25.063.375.063.484 0 .125 0 .235-.063.5h7.5zm0 2.625a1.332 1.332 0 01-.047-.36c0-.109.015-.234.062-.484h-7.5c.063.25.063.375.063.485 0 .125 0 .25-.063.5h7.5zm0 0"/></svg><svg overflow="visible" x="151.168" y="113.36"><path d="M5.766-.094v-.484l-.704-.047c-.578-.031-.578-.063-.578-.781v-.75c.579 0 .829 0 1.282.062v-1L5.734-3s-.671-.188-1.062-.188h-.188v-1.53c0-2.126.016-3.157.094-3.72l-.281-.124-.984.343-3.438 5.64.203.423h3.125v.75c0 .718.016.765-.578.781l-.875.047v.625L3.813 0l1.953.047zM3.344-3.188H1l2.438-3.984-.235-.094v4.079zm0 0"/></svg><svg overflow="visible" x="159.13" y="113.36"><path d="M7.063-17.313c-.063-.046-.125-.093-.188-.156-.063-.047-.11-.11-.219-.312C3.47-14.594 1.563-10.328 1.563-5.5v4.766c0 4.828 1.906 9.093 5.093 12.28.11-.202.157-.265.219-.327.063-.047.125-.11.313-.203C4.14 7.953 2.796 3.89 2.796-.734V-5.5c0-4.64 1.344-8.688 4.39-11.766zm0 0"/></svg><svg overflow="visible" x="167.247" y="113.36"><path d="M5.719-.094c-.016-.25-.016-.375-.016-.547 0-.14 0-.265.031-.671l-4.28.125.093.234 2.187-2.313C4.891-4.5 5.281-5.25 5.281-6.14 5.281-7.516 4.22-8.5 2.703-8.5c-.86 0-1.562.281-2.172.906L.312-5.766h.594l.188-.687c.203-.688.5-.86 1.297-.86 1.03 0 1.546.516 1.546 1.532 0 .89-.468 1.687-1.828 3.11L.047-.454v.5L2.859 0l2.875.047zm0 0"/></svg><svg overflow="visible" x="173.225" y="113.36"><path d="M4.125-5.703c-.469-.219-.797-.328-1.203-.328-.61 0-1.453.39-2.031.968a1.63 1.63 0 00-.47 1.157c0 .672.516 1.187 1.298 1.344l.75.14c.531.094.578.156.578.64 0 .798-.406 1.173-1.25 1.173-.438 0-.703-.094-1-.344v-1.078H.234C.172-1.297.094-.875-.046-.25.453 0 .968.125 1.39.125c.578 0 1.234-.25 1.843-.719.61-.484.891-1.015.891-1.625 0-.64-.5-1.11-1.406-1.281l-.5-.094c-.719-.14-.813-.203-.813-.703 0-.625.39-.984 1.078-.984.485 0 .844.172 1 .422v.765h.532c.062-.547.109-.86.25-1.531zm0 0"/></svg><svg overflow="visible" x="177.876" y="113.36"><path d="M2.969-1.25l-.172-.297-.453.297c-.36.234-.5.313-.625.313-.078 0-.016.03-.016-.11 0-.11 0-.203.078-.469l.922-3.64c.047-.203.063-.313.063-.422 0-.203-.22-.453-.422-.453-.266 0-.797.281-1.703.922l-.407.296.188.485.547-.36c.344-.218.375-.234.484-.234.11 0 .047-.031.047.11 0 .109-.047.359-.094.53L.625-1.405c-.11.375-.156.672-.156.922 0 .28.265.593.5.593.312 0 .844-.296 2.078-1.218zm.344-6.406c0-.282-.313-.61-.563-.61-.36 0-.844.516-.844.922 0 .297.328.625.625.625.375 0 .781-.484.781-.937zm0 0"/></svg><svg overflow="visible" x="181.39" y="113.36"><path d="M6.234-1.25l-.171-.297-.454.297c-.343.219-.5.313-.625.313-.078 0-.03.03-.03-.11 0-.047.015-.187.03-.234l.782-3.297c.093-.344.14-.688.14-.89 0-.266-.265-.563-.5-.563-.5 0-1.437.5-2.14 1.156-.454.422-.797.828-1.407 1.703l.235.094.453-1.938c.047-.203.078-.343.078-.484 0-.25-.234-.531-.406-.531-.266 0-.828.312-1.703.922l-.391.296.172.485.547-.36c.437-.28.39-.265.469-.265.14 0 .078 0 .078.172 0 .61-.5 2.922-.985 4.656l.172.25c.36-.094.625-.172 1.016-.234.234-1.625.468-2.313 1-3.125.656-1.016 1.453-1.72 1.984-1.72.125 0 .063-.015.063.157 0 .219-.032.469-.141.86l-.61 2.53c-.109.438-.156.72-.156.907 0 .297.266.61.5.61.313 0 .829-.282 2.079-1.22zm0 0"/></svg><svg overflow="visible" x="190.034" y="113.36"><path d="M7.063-17.313c-.063-.046-.125-.093-.188-.156-.063-.047-.11-.11-.219-.312C3.47-14.594 1.563-10.328 1.563-5.5v4.766c0 4.828 1.906 9.093 5.093 12.28.11-.202.157-.265.219-.327.063-.047.125-.11.313-.203C4.14 7.953 2.796 3.89 2.796-.734V-5.5c0-4.64 1.344-8.688 4.39-11.766zm0 0"/></svg><svg overflow="visible" x="199.353" y="104.751"><path d="M6.031-5.969c.063-1.672-.468-2.797-1.453-2.797-.516 0-1.156.297-1.734.829C1.734-6.923.828-5.017.734-2.829.641-.922 1.141.125 2.141.125c.625 0 1.484-.469 2.078-1.188.86-1.046 1.718-3.109 1.812-4.906zM4.547-3.937C4.234-2.734 3.78-1.75 3.359-1.142c-.25.375-.484.563-.843.563-.704 0-.657-.797-.61-2.219.016-.375.063-.75.125-1.047.14-.062.469-.094 1.313-.094.812 0 1.047 0 1.187.063zm.281-1.782a6.748 6.748 0 01-.094.922c-.125.047-.484.094-1.28.094-.813 0-1.157-.047-1.22-.063.36-1.343.922-2.53 1.375-3.046.188-.172.36-.235.641-.235.766 0 .656.844.578 2.328zm0 0"/></svg><path d="M199.352 110.371h6.23" fill="none" stroke-width=".717" stroke="#000" stroke-miterlimit="10"/><svg overflow="visible" x="199.478" y="121.323"><path d="M5.719-.094c-.016-.25-.016-.375-.016-.547 0-.14 0-.265.031-.671l-4.28.125.093.234 2.187-2.313C4.891-4.5 5.281-5.25 5.281-6.14 5.281-7.516 4.22-8.5 2.703-8.5c-.86 0-1.562.281-2.172.906L.312-5.766h.594l.188-.687c.203-.688.5-.86 1.297-.86 1.03 0 1.546.516 1.546 1.532 0 .89-.468 1.687-1.828 3.11L.047-.454v.5L2.859 0l2.875.047zm0 0"/></svg><svg overflow="visible" x="206.777" y="113.36"><path d="M6.531-.734V-5.5c0-4.828-1.875-9.094-5.078-12.281-.11.203-.156.265-.219.312-.062.063-.125.11-.312.203 3.062 3.078 4.39 7.125 4.39 11.766v4.766c0 4.625-1.328 8.687-4.39 11.75.187.093.25.156.312.203.063.062.11.125.22.328C4.655 8.359 6.53 4.094 6.53-.734zm0 0"/></svg><svg overflow="visible" x="217.549" y="113.36"><path d="M8.266-2.766a1.332 1.332 0 01-.047-.359c0-.11.015-.234.062-.484h-7.5c.063.25.063.375.063.484 0 .125 0 .25-.063.5h7.5zm0 0"/></svg><svg overflow="visible" x="229.289" y="113.36"><path d="M4.125-5.703c-.469-.219-.797-.328-1.203-.328-.61 0-1.453.39-2.031.968a1.63 1.63 0 00-.47 1.157c0 .672.516 1.187 1.298 1.344l.75.14c.531.094.578.156.578.64 0 .798-.406 1.173-1.25 1.173-.438 0-.703-.094-1-.344v-1.078H.234C.172-1.297.094-.875-.046-.25.453 0 .968.125 1.39.125c.578 0 1.234-.25 1.843-.719.61-.484.891-1.015.891-1.625 0-.64-.5-1.11-1.406-1.281l-.5-.094c-.719-.14-.813-.203-.813-.703 0-.625.39-.984 1.078-.984.485 0 .844.172 1 .422v.765h.532c.062-.547.109-.86.25-1.531zm0 0"/></svg><svg overflow="visible" x="233.939" y="113.36"><path d="M2.969-1.25l-.172-.297-.453.297c-.36.234-.5.313-.625.313-.078 0-.016.03-.016-.11 0-.11 0-.203.078-.469l.922-3.64c.047-.203.063-.313.063-.422 0-.203-.22-.453-.422-.453-.266 0-.797.281-1.703.922l-.407.296.188.485.547-.36c.344-.218.375-.234.484-.234.11 0 .047-.031.047.11 0 .109-.047.359-.094.53L.625-1.405c-.11.375-.156.672-.156.922 0 .28.265.593.5.593.312 0 .844-.296 2.078-1.218zm.344-6.406c0-.282-.313-.61-.563-.61-.36 0-.844.516-.844.922 0 .297.328.625.625.625.375 0 .781-.484.781-.937zm0 0"/></svg><g><svg overflow="visible" x="237.454" y="113.36"><path d="M6.234-1.25l-.171-.297-.454.297c-.343.219-.5.313-.625.313-.078 0-.03.03-.03-.11 0-.047.015-.187.03-.234l.782-3.297c.093-.344.14-.688.14-.89 0-.266-.265-.563-.5-.563-.5 0-1.437.5-2.14 1.156-.454.422-.797.828-1.407 1.703l.235.094.453-1.938c.047-.203.078-.343.078-.484 0-.25-.234-.531-.406-.531-.266 0-.828.312-1.703.922l-.391.296.172.485.547-.36c.437-.28.39-.265.469-.265.14 0 .078 0 .078.172 0 .61-.5 2.922-.985 4.656l.172.25c.36-.094.625-.172 1.016-.234.234-1.625.468-2.313 1-3.125.656-1.016 1.453-1.72 1.984-1.72.125 0 .063-.015.063.157 0 .219-.032.469-.141.86l-.61 2.53c-.109.438-.156.72-.156.907 0 .297.266.61.5.61.313 0 .829-.282 2.079-1.22zm0 0"/></svg><svg overflow="visible" x="244.101" y="113.36"><path d="M4.203-7.828a.735.735 0 01-.187-.14c-.063-.063-.11-.126-.22-.329-1.593 1.61-2.5 3.266-2.5 4.781v.797c0 1.516.907 3.172 2.5 4.781.11-.203.157-.265.22-.328.062-.062.125-.109.312-.203C2.875.063 2.281-1.344 2.281-2.719v-.797c0-1.39.594-2.78 2.047-4.25zm0 0"/></svg><svg overflow="visible" x="249.17" y="113.36"><path d="M6.031-5.969c.063-1.672-.468-2.797-1.453-2.797-.516 0-1.156.297-1.734.829C1.734-6.923.828-5.017.734-2.829.641-.922 1.141.125 2.141.125c.625 0 1.484-.469 2.078-1.188.86-1.046 1.718-3.109 1.812-4.906zM4.547-3.937C4.234-2.734 3.78-1.75 3.359-1.142c-.25.375-.484.563-.843.563-.704 0-.657-.797-.61-2.219.016-.375.063-.75.125-1.047.14-.062.469-.094 1.313-.094.812 0 1.047 0 1.187.063zm.281-1.782a6.748 6.748 0 01-.094.922c-.125.047-.484.094-1.28.094-.813 0-1.157-.047-1.22-.063.36-1.343.922-2.53 1.375-3.046.188-.172.36-.235.641-.235.766 0 .656.844.578 2.328zm0 0"/></svg></g><g><svg overflow="visible" x="255.399" y="113.36"><path d="M3.766-2.719v-.797c0-1.515-.907-3.171-2.516-4.78-.11.202-.156.265-.203.327-.063.063-.125.11-.313.203 1.438 1.47 2.032 2.86 2.032 4.25v.797c0 1.375-.594 2.781-2.032 4.25.188.094.25.14.313.203.047.063.094.125.203.329C2.86.452 3.766-1.204 3.766-2.72zm0 0"/></svg><svg overflow="visible" x="260.468" y="113.36"><path d="M6.531-.734V-5.5c0-4.828-1.875-9.094-5.078-12.281-.11.203-.156.265-.219.312-.062.063-.125.11-.312.203 3.062 3.078 4.39 7.125 4.39 11.766v4.766c0 4.625-1.328 8.687-4.39 11.75.187.093.25.156.312.203.063.062.11.125.22.328C4.655 8.359 6.53 4.094 6.53-.734zm0 0"/></svg></g><g><svg overflow="visible" x="123.76" y="150.509"><path d="M5.656-2.813c0-.562-.281-1.171-.703-1.468-.297-.219-.672-.344-.953-.407.734-.562 1.125-1.203 1.125-1.906 0-1.062-1.016-1.906-2.344-1.906-.812 0-1.453.266-2.047.86L.328-5.954h.64l.266-.797c.125-.406.75-.688 1.375-.688.766 0 1.266.5 1.266 1.25 0 .907-.563 1.532-1.406 1.532-.11 0-.469.187-.469.187l-.25-.093-.14.671.202.188C2.297-3.938 2.516-4 2.845-4c1 0 1.422.516 1.422 1.594 0 1.219-.579 1.89-1.704 1.89-.546 0-.937-.14-1.296-.468C.984-1.25.859-1.438.578-2.25l-.562.219C.28-1.234.375-.797.469-.11c.765.25 1.281.343 1.734.343.953 0 2.14-.562 2.813-1.375.406-.484.64-1.109.64-1.671zm0 0"/></svg><svg overflow="visible" x="129.738" y="150.509"><path d="M5.36-5.922a2.204 2.204 0 00-.563-.11c-.797 0-1.89.97-3.39 3.063l.25.094 1.28-5.938-.265-.234c-.75.375-1.063.438-2.047.531l-.094.5h.735c.28 0 .265-.046.265.157 0 .109-.015.203-.031.296L.937-4.358c-.156.89-.359 1.718-1 4.25l.204.234.968-.25.297-1.578c.11-.578.36-1.016.61-1.281C2.766-.844 3.28.109 3.578.109c.156 0 .547-.187 1.078-.562l.61-.438-.204-.453-.671.375c-.172.094-.141.078-.25.078-.11 0-.094-.03-.204-.234-.421-.766-.656-1.313-1.109-2.734l.125-.125c.735-.72 1.188-.985 1.781-.985.094 0 .22.016.516.094l.266-1zm0 0"/></svg></g><g><svg overflow="visible" x="138.752" y="150.509"><path d="M8.266-4.078a1.419 1.419 0 01-.047-.36c0-.109.015-.234.062-.484h-7.5c.063.25.063.375.063.484 0 .125 0 .235-.063.5h7.5zm0 2.625a1.332 1.332 0 01-.047-.36c0-.109.015-.234.062-.484h-7.5c.063.25.063.375.063.485 0 .125 0 .25-.063.5h7.5zm0 0"/></svg></g><g><svg overflow="visible" x="151.161" y="150.509"><path d="M5.766-.094v-.484l-.704-.047c-.578-.031-.578-.063-.578-.781v-.75c.579 0 .829 0 1.282.062v-1L5.734-3s-.671-.188-1.062-.188h-.188v-1.53c0-2.126.016-3.157.094-3.72l-.281-.124-.984.343-3.438 5.64.203.423h3.125v.75c0 .718.016.765-.578.781l-.875.047v.625L3.813 0l1.953.047zM3.344-3.188H1l2.438-3.984-.235-.094v4.079zm0 0"/></svg></g><g><svg overflow="visible" x="159.793" y="150.509"><path d="M2.516-3.125c0-.422-.407-.844-.844-.844-.422 0-.86.422-.86.844 0 .438.438.86.86.86.437 0 .844-.422.844-.86zm0 0"/></svg></g><g><svg overflow="visible" x="167.003" y="140.695"><path d="M5.719-.094c-.016-.25-.016-.375-.016-.547 0-.14 0-.265.031-.671l-4.28.125.093.234 2.187-2.313C4.891-4.5 5.281-5.25 5.281-6.14 5.281-7.516 4.22-8.5 2.703-8.5c-.86 0-1.562.281-2.172.906L.312-5.766h.594l.188-.687c.203-.688.5-.86 1.297-.86 1.03 0 1.546.516 1.546 1.532 0 .89-.468 1.687-1.828 3.11L.047-.454v.5L2.859 0l2.875.047zm0 0"/></svg><svg overflow="visible" x="172.981" y="140.695"><path d="M4.125-5.703c-.469-.219-.797-.328-1.203-.328-.61 0-1.453.39-2.031.968a1.63 1.63 0 00-.47 1.157c0 .672.516 1.187 1.298 1.344l.75.14c.531.094.578.156.578.64 0 .798-.406 1.173-1.25 1.173-.438 0-.703-.094-1-.344v-1.078H.234C.172-1.297.094-.875-.046-.25.453 0 .968.125 1.39.125c.578 0 1.234-.25 1.843-.719.61-.484.891-1.015.891-1.625 0-.64-.5-1.11-1.406-1.281l-.5-.094c-.719-.14-.813-.203-.813-.703 0-.625.39-.984 1.078-.984.485 0 .844.172 1 .422v.765h.532c.062-.547.109-.86.25-1.531zm0 0"/></svg><svg overflow="visible" x="177.631" y="140.695"><path d="M2.969-1.25l-.172-.297-.453.297c-.36.234-.5.313-.625.313-.078 0-.016.03-.016-.11 0-.11 0-.203.078-.469l.922-3.64c.047-.203.063-.313.063-.422 0-.203-.22-.453-.422-.453-.266 0-.797.281-1.703.922l-.407.296.188.485.547-.36c.344-.218.375-.234.484-.234.11 0 .047-.031.047.11 0 .109-.047.359-.094.53L.625-1.405c-.11.375-.156.672-.156.922 0 .28.265.593.5.593.312 0 .844-.296 2.078-1.218zm.344-6.406c0-.282-.313-.61-.563-.61-.36 0-.844.516-.844.922 0 .297.328.625.625.625.375 0 .781-.484.781-.937zm0 0"/></svg></g><g><svg overflow="visible" x="181.146" y="140.695"><path d="M6.234-1.25l-.171-.297-.454.297c-.343.219-.5.313-.625.313-.078 0-.03.03-.03-.11 0-.047.015-.187.03-.234l.782-3.297c.093-.344.14-.688.14-.89 0-.266-.265-.563-.5-.563-.5 0-1.437.5-2.14 1.156-.454.422-.797.828-1.407 1.703l.235.094.453-1.938c.047-.203.078-.343.078-.484 0-.25-.234-.531-.406-.531-.266 0-.828.312-1.703.922l-.391.296.172.485.547-.36c.437-.28.39-.265.469-.265.14 0 .078 0 .078.172 0 .61-.5 2.922-.985 4.656l.172.25c.36-.094.625-.172 1.016-.234.234-1.625.468-2.313 1-3.125.656-1.016 1.453-1.72 1.984-1.72.125 0 .063-.015.063.157 0 .219-.032.469-.141.86l-.61 2.53c-.109.438-.156.72-.156.907 0 .297.266.61.5.61.313 0 .829-.282 2.079-1.22zm0 0"/></svg><svg overflow="visible" x="187.793" y="140.695"><path d="M4.203-7.828a.735.735 0 01-.187-.14c-.063-.063-.11-.126-.22-.329-1.593 1.61-2.5 3.266-2.5 4.781v.797c0 1.516.907 3.172 2.5 4.781.11-.203.157-.265.22-.328.062-.062.125-.109.312-.203C2.875.063 2.281-1.344 2.281-2.719v-.797c0-1.39.594-2.78 2.047-4.25zm0 0"/></svg></g><g><svg overflow="visible" x="194.058" y="135.088"><path d="M4.984-4.453c.063-1.234-.406-2.094-1.203-2.094-.406 0-.953.219-1.422.61C1.453-5.188.72-3.75.641-2.126.562-.719 1 .094 1.812.094c.5 0 1.235-.36 1.704-.89.687-.766 1.406-2.329 1.468-3.657zm-1.265 1.5c-.266.89-.61 1.594-.938 2.047-.219.281-.36.406-.656.406-.578 0-.5-.547-.453-1.61.016-.265.047-.546.094-.75.078-.03.343-.062 1.015-.062.656 0 .938.031.922.031zm.219-1.313c-.016.25-.032.5-.079.657-.046.03-.343.046-.984.046-.656 0-.938-.015-.938-.015.282-.969.735-1.828 1.094-2.203.14-.14.266-.172.5-.172.594 0 .469.594.406 1.687zm0 0"/></svg></g><path d="M194.059 137.707h5.093" fill="none" stroke-width=".717" stroke="#000" stroke-miterlimit="10"/><g><svg overflow="visible" x="194.107" y="145.222"><path d="M4.75-.11c-.016-.187-.016-.265-.016-.39s0-.203.032-.547l-3.141.094 1.5-1.469c.938-.906 1.266-1.5 1.266-2.156 0-1.016-.891-1.781-2.125-1.781-.688 0-1.282.218-1.782.687L.297-4.266h.547l.172-.546c.156-.516.359-.594 1-.594.828 0 1.203.343 1.203 1.093 0 .657-.36 1.22-1.453 2.282L.078-.391v.422L2.391 0l2.375.031zm0 0"/></svg></g><g><svg overflow="visible" x="200.349" y="140.695"><path d="M3.766-2.719v-.797c0-1.515-.907-3.171-2.516-4.78-.11.202-.156.265-.203.327-.063.063-.125.11-.313.203 1.438 1.47 2.032 2.86 2.032 4.25v.797c0 1.375-.594 2.781-2.032 4.25.188.094.25.14.313.203.047.063.094.125.203.329C2.86.452 3.766-1.204 3.766-2.72zm0 0"/></svg></g><g><svg overflow="visible" x="208.072" y="140.695"><path d="M8.266-2.766a1.332 1.332 0 01-.047-.359c0-.11.015-.234.062-.484h-7.5c.063.25.063.375.063.484 0 .125 0 .25-.063.5h7.5zm0 0"/></svg></g><g><svg overflow="visible" x="219.812" y="140.695"><path d="M4.125-5.703c-.469-.219-.797-.328-1.203-.328-.61 0-1.453.39-2.031.968a1.63 1.63 0 00-.47 1.157c0 .672.516 1.187 1.298 1.344l.75.14c.531.094.578.156.578.64 0 .798-.406 1.173-1.25 1.173-.438 0-.703-.094-1-.344v-1.078H.234C.172-1.297.094-.875-.046-.25.453 0 .968.125 1.39.125c.578 0 1.234-.25 1.843-.719.61-.484.891-1.015.891-1.625 0-.64-.5-1.11-1.406-1.281l-.5-.094c-.719-.14-.813-.203-.813-.703 0-.625.39-.984 1.078-.984.485 0 .844.172 1 .422v.765h.532c.062-.547.109-.86.25-1.531zm0 0"/></svg><svg overflow="visible" x="224.463" y="140.695"><path d="M2.969-1.25l-.172-.297-.453.297c-.36.234-.5.313-.625.313-.078 0-.016.03-.016-.11 0-.11 0-.203.078-.469l.922-3.64c.047-.203.063-.313.063-.422 0-.203-.22-.453-.422-.453-.266 0-.797.281-1.703.922l-.407.296.188.485.547-.36c.344-.218.375-.234.484-.234.11 0 .047-.031.047.11 0 .109-.047.359-.094.53L.625-1.405c-.11.375-.156.672-.156.922 0 .28.265.593.5.593.312 0 .844-.296 2.078-1.218zm.344-6.406c0-.282-.313-.61-.563-.61-.36 0-.844.516-.844.922 0 .297.328.625.625.625.375 0 .781-.484.781-.937zm0 0"/></svg></g><g><svg overflow="visible" x="227.977" y="140.695"><path d="M6.234-1.25l-.171-.297-.454.297c-.343.219-.5.313-.625.313-.078 0-.03.03-.03-.11 0-.047.015-.187.03-.234l.782-3.297c.093-.344.14-.688.14-.89 0-.266-.265-.563-.5-.563-.5 0-1.437.5-2.14 1.156-.454.422-.797.828-1.407 1.703l.235.094.453-1.938c.047-.203.078-.343.078-.484 0-.25-.234-.531-.406-.531-.266 0-.828.312-1.703.922l-.391.296.172.485.547-.36c.437-.28.39-.265.469-.265.14 0 .078 0 .078.172 0 .61-.5 2.922-.985 4.656l.172.25c.36-.094.625-.172 1.016-.234.234-1.625.468-2.313 1-3.125.656-1.016 1.453-1.72 1.984-1.72.125 0 .063-.015.063.157 0 .219-.032.469-.141.86l-.61 2.53c-.109.438-.156.72-.156.907 0 .297.266.61.5.61.313 0 .829-.282 2.079-1.22zm0 0"/></svg><svg overflow="visible" x="234.625" y="140.695"><path d="M4.203-7.828a.735.735 0 01-.187-.14c-.063-.063-.11-.126-.22-.329-1.593 1.61-2.5 3.266-2.5 4.781v.797c0 1.516.907 3.172 2.5 4.781.11-.203.157-.265.22-.328.062-.062.125-.109.312-.203C2.875.063 2.281-1.344 2.281-2.719v-.797c0-1.39.594-2.78 2.047-4.25zm0 0"/></svg><svg overflow="visible" x="239.694" y="140.695"><path d="M6.031-5.969c.063-1.672-.468-2.797-1.453-2.797-.516 0-1.156.297-1.734.829C1.734-6.923.828-5.017.734-2.829.641-.922 1.141.125 2.141.125c.625 0 1.484-.469 2.078-1.188.86-1.046 1.718-3.109 1.812-4.906zM4.547-3.937C4.234-2.734 3.78-1.75 3.359-1.142c-.25.375-.484.563-.843.563-.704 0-.657-.797-.61-2.219.016-.375.063-.75.125-1.047.14-.062.469-.094 1.313-.094.812 0 1.047 0 1.187.063zm.281-1.782a6.748 6.748 0 01-.094.922c-.125.047-.484.094-1.28.094-.813 0-1.157-.047-1.22-.063.36-1.343.922-2.53 1.375-3.046.188-.172.36-.235.641-.235.766 0 .656.844.578 2.328zm0 0"/></svg></g><g><svg overflow="visible" x="245.922" y="140.695"><path d="M3.766-2.719v-.797c0-1.515-.907-3.171-2.516-4.78-.11.202-.156.265-.203.327-.063.063-.125.11-.313.203 1.438 1.47 2.032 2.86 2.032 4.25v.797c0 1.375-.594 2.781-2.032 4.25.188.094.25.14.313.203.047.063.094.125.203.329C2.86.452 3.766-1.204 3.766-2.72zm0 0"/></svg></g><path d="M167.004 147.52h83.992" fill="none" stroke-width=".717" stroke="#000" stroke-miterlimit="10"/><g><svg overflow="visible" x="183.156" y="158.472"><path d="M5.125-.094v-.484l-.75-.047c-.656-.031-.64-.031-.64-.656v-7.172l-.313-.125c-.875.469-1.61.781-2.86 1.219l.125.718h.235l1.547-.687.031-.016c.063 0-.047-.015-.047.266v5.797c0 .625.016.625-.64.656L1-.578v.625L3.125 0l2 .047zm0 0"/></svg></g><g><svg overflow="visible" x="191.788" y="158.472"><path d="M8.266-2.766a1.332 1.332 0 01-.047-.359c0-.11.015-.234.062-.484h-7.5c.063.25.063.375.063.484 0 .125 0 .25-.063.5h7.5zm0 0"/></svg></g><g><svg overflow="visible" x="203.528" y="158.472"><path d="M4.75-5.703c-.297-.188-.797-.328-1.25-.328-.531 0-1.484.468-2.172 1.062C.641-4.375.156-3.03.156-1.75.156-.61.796.125 1.75.125c.656 0 1.328-.266 1.984-.813l.657-.53-.204-.485-.343.219c-.86.578-1.203.75-1.625.75-.672 0-.875-.36-.875-1.297 0-1.266.36-2.406.937-2.875.25-.203.453-.266.844-.266.531 0 .813.094.813.375v.86h.546c.11-.922.188-1.36.329-1.735zm0 0"/></svg></g><g><svg overflow="visible" x="208.513" y="158.472"><path d="M5.047-4.094c0-1.125-.734-1.937-1.719-1.937-.515 0-1.187.25-1.719.625-.968.703-1.546 2-1.546 3.453C.063-.687.734.125 1.734.125c.657 0 1.47-.344 2-.844.75-.703 1.313-2.156 1.313-3.375zm-1.188.203C3.86-2.75 3.531-1.578 3-.937c-.219.25-.422.359-.781.359-.703 0-.969-.406-.969-1.36 0-1.343.422-2.718 1.016-3.203.156-.125.328-.171.609-.171.734 0 .984.406.984 1.421zm0 0"/></svg><svg overflow="visible" x="213.821" y="158.472"><path d="M4.125-5.703c-.469-.219-.797-.328-1.203-.328-.61 0-1.453.39-2.031.968a1.63 1.63 0 00-.47 1.157c0 .672.516 1.187 1.298 1.344l.75.14c.531.094.578.156.578.64 0 .798-.406 1.173-1.25 1.173-.438 0-.703-.094-1-.344v-1.078H.234C.172-1.297.094-.875-.046-.25.453 0 .968.125 1.39.125c.578 0 1.234-.25 1.843-.719.61-.484.891-1.015.891-1.625 0-.64-.5-1.11-1.406-1.281l-.5-.094c-.719-.14-.813-.203-.813-.703 0-.625.39-.984 1.078-.984.485 0 .844.172 1 .422v.765h.532c.062-.547.109-.86.25-1.531zm0 0"/></svg><svg overflow="visible" x="218.472" y="158.472"><path d="M4.203-7.828a.735.735 0 01-.187-.14c-.063-.063-.11-.126-.22-.329-1.593 1.61-2.5 3.266-2.5 4.781v.797c0 1.516.907 3.172 2.5 4.781.11-.203.157-.265.22-.328.062-.062.125-.109.312-.203C2.875.063 2.281-1.344 2.281-2.719v-.797c0-1.39.594-2.78 2.047-4.25zm0 0"/></svg><svg overflow="visible" x="223.541" y="158.472"><path d="M6.031-5.969c.063-1.672-.468-2.797-1.453-2.797-.516 0-1.156.297-1.734.829C1.734-6.923.828-5.017.734-2.829.641-.922 1.141.125 2.141.125c.625 0 1.484-.469 2.078-1.188.86-1.046 1.718-3.109 1.812-4.906zM4.547-3.937C4.234-2.734 3.78-1.75 3.359-1.142c-.25.375-.484.563-.843.563-.704 0-.657-.797-.61-2.219.016-.375.063-.75.125-1.047.14-.062.469-.094 1.313-.094.812 0 1.047 0 1.187.063zm.281-1.782a6.748 6.748 0 01-.094.922c-.125.047-.484.094-1.28.094-.813 0-1.157-.047-1.22-.063.36-1.343.922-2.53 1.375-3.046.188-.172.36-.235.641-.235.766 0 .656.844.578 2.328zm0 0"/></svg></g><g><svg overflow="visible" x="229.769" y="158.472"><path d="M3.766-2.719v-.797c0-1.515-.907-3.171-2.516-4.78-.11.202-.156.265-.203.327-.063.063-.125.11-.313.203 1.438 1.47 2.032 2.86 2.032 4.25v.797c0 1.375-.594 2.781-2.032 4.25.188.094.25.14.313.203.047.063.094.125.203.329C2.86.452 3.766-1.204 3.766-2.72zm0 0"/></svg></g><g><svg overflow="visible" x="129.738" y="187.015"><path d="M5.36-5.922a2.204 2.204 0 00-.563-.11c-.797 0-1.89.97-3.39 3.063l.25.094 1.28-5.938-.265-.234c-.75.375-1.063.438-2.047.531l-.094.5h.735c.28 0 .265-.046.265.157 0 .109-.015.203-.031.296L.937-4.358c-.156.89-.359 1.718-1 4.25l.204.234.968-.25.297-1.578c.11-.578.36-1.016.61-1.281C2.766-.844 3.28.109 3.578.109c.156 0 .547-.187 1.078-.562l.61-.438-.204-.453-.671.375c-.172.094-.141.078-.25.078-.11 0-.094-.03-.204-.234-.421-.766-.656-1.313-1.109-2.734l.125-.125c.735-.72 1.188-.985 1.781-.985.094 0 .22.016.516.094l.266-1zm0 0"/></svg></g><g><svg overflow="visible" x="138.752" y="187.015"><path d="M8.266-4.078a1.419 1.419 0 01-.047-.36c0-.109.015-.234.062-.484h-7.5c.063.25.063.375.063.484 0 .125 0 .235-.063.5h7.5zm0 2.625a1.332 1.332 0 01-.047-.36c0-.109.015-.234.062-.484h-7.5c.063.25.063.375.063.485 0 .125 0 .25-.063.5h7.5zm0 0"/></svg></g><g><svg overflow="visible" x="152.364" y="178.407"><path d="M5.766-.094v-.484l-.704-.047c-.578-.031-.578-.063-.578-.781v-.75c.579 0 .829 0 1.282.062v-1L5.734-3s-.671-.188-1.062-.188h-.188v-1.53c0-2.126.016-3.157.094-3.72l-.281-.124-.984.343-3.438 5.64.203.423h3.125v.75c0 .718.016.765-.578.781l-.875.047v.625L3.813 0l1.953.047zM3.344-3.188H1l2.438-3.984-.235-.094v4.079zm0 0"/></svg></g><path d="M152.363 184.027h5.98" fill="none" stroke-width=".717" stroke="#000" stroke-miterlimit="10"/><g><svg overflow="visible" x="152.364" y="194.978"><path d="M5.656-2.813c0-.562-.281-1.171-.703-1.468-.297-.219-.672-.344-.953-.407.734-.562 1.125-1.203 1.125-1.906 0-1.062-1.016-1.906-2.344-1.906-.812 0-1.453.266-2.047.86L.328-5.954h.64l.266-.797c.125-.406.75-.688 1.375-.688.766 0 1.266.5 1.266 1.25 0 .907-.563 1.532-1.406 1.532-.11 0-.469.187-.469.187l-.25-.093-.14.671.202.188C2.297-3.938 2.516-4 2.845-4c1 0 1.422.516 1.422 1.594 0 1.219-.579 1.89-1.704 1.89-.546 0-.937-.14-1.296-.468C.984-1.25.859-1.438.578-2.25l-.562.219C.28-1.234.375-.797.469-.11c.765.25 1.281.343 1.734.343.953 0 2.14-.562 2.813-1.375.406-.484.64-1.109.64-1.671zm0 0"/></svg></g><g><svg overflow="visible" x="162.195" y="187.015"><path d="M2.516-3.125c0-.422-.407-.844-.844-.844-.422 0-.86.422-.86.844 0 .438.438.86.86.86.437 0 .844-.422.844-.86zm0 0"/></svg></g><g><svg overflow="visible" x="169.394" y="176.315"><path d="M5.719-.094c-.016-.25-.016-.375-.016-.547 0-.14 0-.265.031-.671l-4.28.125.093.234 2.187-2.313C4.891-4.5 5.281-5.25 5.281-6.14 5.281-7.516 4.22-8.5 2.703-8.5c-.86 0-1.562.281-2.172.906L.312-5.766h.594l.188-.687c.203-.688.5-.86 1.297-.86 1.03 0 1.546.516 1.546 1.532 0 .89-.468 1.687-1.828 3.11L.047-.454v.5L2.859 0l2.875.047zm0 0"/></svg><svg overflow="visible" x="175.372" y="176.315"><path d="M4.125-5.703c-.469-.219-.797-.328-1.203-.328-.61 0-1.453.39-2.031.968a1.63 1.63 0 00-.47 1.157c0 .672.516 1.187 1.298 1.344l.75.14c.531.094.578.156.578.64 0 .798-.406 1.173-1.25 1.173-.438 0-.703-.094-1-.344v-1.078H.234C.172-1.297.094-.875-.046-.25.453 0 .968.125 1.39.125c.578 0 1.234-.25 1.843-.719.61-.484.891-1.015.891-1.625 0-.64-.5-1.11-1.406-1.281l-.5-.094c-.719-.14-.813-.203-.813-.703 0-.625.39-.984 1.078-.984.485 0 .844.172 1 .422v.765h.532c.062-.547.109-.86.25-1.531zm0 0"/></svg><svg overflow="visible" x="180.022" y="176.315"><path d="M2.969-1.25l-.172-.297-.453.297c-.36.234-.5.313-.625.313-.078 0-.016.03-.016-.11 0-.11 0-.203.078-.469l.922-3.64c.047-.203.063-.313.063-.422 0-.203-.22-.453-.422-.453-.266 0-.797.281-1.703.922l-.407.296.188.485.547-.36c.344-.218.375-.234.484-.234.11 0 .047-.031.047.11 0 .109-.047.359-.094.53L.625-1.405c-.11.375-.156.672-.156.922 0 .28.265.593.5.593.312 0 .844-.296 2.078-1.218zm.344-6.406c0-.282-.313-.61-.563-.61-.36 0-.844.516-.844.922 0 .297.328.625.625.625.375 0 .781-.484.781-.937zm0 0"/></svg></g><g><svg overflow="visible" x="183.537" y="176.315"><path d="M6.234-1.25l-.171-.297-.454.297c-.343.219-.5.313-.625.313-.078 0-.03.03-.03-.11 0-.047.015-.187.03-.234l.782-3.297c.093-.344.14-.688.14-.89 0-.266-.265-.563-.5-.563-.5 0-1.437.5-2.14 1.156-.454.422-.797.828-1.407 1.703l.235.094.453-1.938c.047-.203.078-.343.078-.484 0-.25-.234-.531-.406-.531-.266 0-.828.312-1.703.922l-.391.296.172.485.547-.36c.437-.28.39-.265.469-.265.14 0 .078 0 .078.172 0 .61-.5 2.922-.985 4.656l.172.25c.36-.094.625-.172 1.016-.234.234-1.625.468-2.313 1-3.125.656-1.016 1.453-1.72 1.984-1.72.125 0 .063-.015.063.157 0 .219-.032.469-.141.86l-.61 2.53c-.109.438-.156.72-.156.907 0 .297.266.61.5.61.313 0 .829-.282 2.079-1.22zm0 0"/></svg></g><g><svg overflow="visible" x="192.169" y="176.315"><path d="M5.406-11.313a.427.427 0 01-.187-.14c-.063-.063-.11-.125-.219-.328-2.25 2.25-3.578 4.89-3.578 7.64v2.047C1.422.641 2.75 3.281 5 5.531c.11-.203.156-.265.219-.312.047-.063.11-.11.297-.203C3.422 2.89 2.53.484 2.53-2.094V-4.14c0-2.578.89-4.984 2.985-7.109zm0 0"/></svg></g><g><svg overflow="visible" x="199.721" y="170.708"><path d="M4.984-4.453c.063-1.234-.406-2.094-1.203-2.094-.406 0-.953.219-1.422.61C1.453-5.188.72-3.75.641-2.126.562-.719 1 .094 1.812.094c.5 0 1.235-.36 1.704-.89.687-.766 1.406-2.329 1.468-3.657zm-1.265 1.5c-.266.89-.61 1.594-.938 2.047-.219.281-.36.406-.656.406-.578 0-.5-.547-.453-1.61.016-.265.047-.546.094-.75.078-.03.343-.062 1.015-.062.656 0 .938.031.922.031zm.219-1.313c-.016.25-.032.5-.079.657-.046.03-.343.046-.984.046-.656 0-.938-.015-.938-.015.282-.969.735-1.828 1.094-2.203.14-.14.266-.172.5-.172.594 0 .469.594.406 1.687zm0 0"/></svg></g><path d="M199.723 173.324h5.093" fill="none" stroke-width=".717" stroke="#000" stroke-miterlimit="10"/><g><svg overflow="visible" x="199.77" y="180.842"><path d="M4.75-.11c-.016-.187-.016-.265-.016-.39s0-.203.032-.547l-3.141.094 1.5-1.469c.938-.906 1.266-1.5 1.266-2.156 0-1.016-.891-1.781-2.125-1.781-.688 0-1.282.218-1.782.687L.297-4.266h.547l.172-.546c.156-.516.359-.594 1-.594.828 0 1.203.343 1.203 1.093 0 .657-.36 1.22-1.453 2.282L.078-.391v.422L2.391 0l2.375.031zm0 0"/></svg></g><g><svg overflow="visible" x="206.012" y="176.315"><path d="M4.906-2.094V-4.14c0-2.75-1.328-5.39-3.562-7.64-.11.203-.157.265-.219.328-.063.062-.125.11-.313.203 2.11 2.125 2.985 4.531 2.985 7.11v2.046c0 2.578-.875 4.985-2.985 7.11.188.093.25.14.313.203.063.047.11.11.219.312 2.234-2.25 3.562-4.89 3.562-7.625zm0 0"/></svg></g><g><svg overflow="visible" x="215.014" y="176.315"><path d="M8.266-2.766a1.332 1.332 0 01-.047-.359c0-.11.015-.234.062-.484h-7.5c.063.25.063.375.063.484 0 .125 0 .25-.063.5h7.5zm0 0"/></svg></g><g><svg overflow="visible" x="226.754" y="176.315"><path d="M4.125-5.703c-.469-.219-.797-.328-1.203-.328-.61 0-1.453.39-2.031.968a1.63 1.63 0 00-.47 1.157c0 .672.516 1.187 1.298 1.344l.75.14c.531.094.578.156.578.64 0 .798-.406 1.173-1.25 1.173-.438 0-.703-.094-1-.344v-1.078H.234C.172-1.297.094-.875-.046-.25.453 0 .968.125 1.39.125c.578 0 1.234-.25 1.843-.719.61-.484.891-1.015.891-1.625 0-.64-.5-1.11-1.406-1.281l-.5-.094c-.719-.14-.813-.203-.813-.703 0-.625.39-.984 1.078-.984.485 0 .844.172 1 .422v.765h.532c.062-.547.109-.86.25-1.531zm0 0"/></svg><svg overflow="visible" x="231.405" y="176.315"><path d="M2.969-1.25l-.172-.297-.453.297c-.36.234-.5.313-.625.313-.078 0-.016.03-.016-.11 0-.11 0-.203.078-.469l.922-3.64c.047-.203.063-.313.063-.422 0-.203-.22-.453-.422-.453-.266 0-.797.281-1.703.922l-.407.296.188.485.547-.36c.344-.218.375-.234.484-.234.11 0 .047-.031.047.11 0 .109-.047.359-.094.53L.625-1.405c-.11.375-.156.672-.156.922 0 .28.265.593.5.593.312 0 .844-.296 2.078-1.218zm.344-6.406c0-.282-.313-.61-.563-.61-.36 0-.844.516-.844.922 0 .297.328.625.625.625.375 0 .781-.484.781-.937zm0 0"/></svg></g><g><svg overflow="visible" x="234.92" y="176.315"><path d="M6.234-1.25l-.171-.297-.454.297c-.343.219-.5.313-.625.313-.078 0-.03.03-.03-.11 0-.047.015-.187.03-.234l.782-3.297c.093-.344.14-.688.14-.89 0-.266-.265-.563-.5-.563-.5 0-1.437.5-2.14 1.156-.454.422-.797.828-1.407 1.703l.235.094.453-1.938c.047-.203.078-.343.078-.484 0-.25-.234-.531-.406-.531-.266 0-.828.312-1.703.922l-.391.296.172.485.547-.36c.437-.28.39-.265.469-.265.14 0 .078 0 .078.172 0 .61-.5 2.922-.985 4.656l.172.25c.36-.094.625-.172 1.016-.234.234-1.625.468-2.313 1-3.125.656-1.016 1.453-1.72 1.984-1.72.125 0 .063-.015.063.157 0 .219-.032.469-.141.86l-.61 2.53c-.109.438-.156.72-.156.907 0 .297.266.61.5.61.313 0 .829-.282 2.079-1.22zm0 0"/></svg><svg overflow="visible" x="241.567" y="176.315"><path d="M4.203-7.828a.735.735 0 01-.187-.14c-.063-.063-.11-.126-.22-.329-1.593 1.61-2.5 3.266-2.5 4.781v.797c0 1.516.907 3.172 2.5 4.781.11-.203.157-.265.22-.328.062-.062.125-.109.312-.203C2.875.063 2.281-1.344 2.281-2.719v-.797c0-1.39.594-2.78 2.047-4.25zm0 0"/></svg><svg overflow="visible" x="246.636" y="176.315"><path d="M6.031-5.969c.063-1.672-.468-2.797-1.453-2.797-.516 0-1.156.297-1.734.829C1.734-6.923.828-5.017.734-2.829.641-.922 1.141.125 2.141.125c.625 0 1.484-.469 2.078-1.188.86-1.046 1.718-3.109 1.812-4.906zM4.547-3.937C4.234-2.734 3.78-1.75 3.359-1.142c-.25.375-.484.563-.843.563-.704 0-.657-.797-.61-2.219.016-.375.063-.75.125-1.047.14-.062.469-.094 1.313-.094.812 0 1.047 0 1.187.063zm.281-1.782a6.748 6.748 0 01-.094.922c-.125.047-.484.094-1.28.094-.813 0-1.157-.047-1.22-.063.36-1.343.922-2.53 1.375-3.046.188-.172.36-.235.641-.235.766 0 .656.844.578 2.328zm0 0"/></svg></g><g><svg overflow="visible" x="252.864" y="176.315"><path d="M3.766-2.719v-.797c0-1.515-.907-3.171-2.516-4.78-.11.202-.156.265-.203.327-.063.063-.125.11-.313.203 1.438 1.47 2.032 2.86 2.032 4.25v.797c0 1.375-.594 2.781-2.032 4.25.188.094.25.14.313.203.047.063.094.125.203.329C2.86.452 3.766-1.204 3.766-2.72zm0 0"/></svg></g><path d="M169.395 184.027h88.542" fill="none" stroke-width=".717" stroke="#000" stroke-miterlimit="10"/><g><svg overflow="visible" x="187.823" y="194.978"><path d="M5.125-.094v-.484l-.75-.047c-.656-.031-.64-.031-.64-.656v-7.172l-.313-.125c-.875.469-1.61.781-2.86 1.219l.125.718h.235l1.547-.687.031-.016c.063 0-.047-.015-.047.266v5.797c0 .625.016.625-.64.656L1-.578v.625L3.125 0l2 .047zm0 0"/></svg></g><g><svg overflow="visible" x="196.455" y="194.978"><path d="M8.266-2.766a1.332 1.332 0 01-.047-.359c0-.11.015-.234.062-.484h-7.5c.063.25.063.375.063.484 0 .125 0 .25-.063.5h7.5zm0 0"/></svg></g><g><svg overflow="visible" x="208.195" y="194.978"><path d="M4.75-5.703c-.297-.188-.797-.328-1.25-.328-.531 0-1.484.468-2.172 1.062C.641-4.375.156-3.03.156-1.75.156-.61.796.125 1.75.125c.656 0 1.328-.266 1.984-.813l.657-.53-.204-.485-.343.219c-.86.578-1.203.75-1.625.75-.672 0-.875-.36-.875-1.297 0-1.266.36-2.406.937-2.875.25-.203.453-.266.844-.266.531 0 .813.094.813.375v.86h.546c.11-.922.188-1.36.329-1.735zm0 0"/></svg></g><g><svg overflow="visible" x="213.18" y="194.978"><path d="M5.047-4.094c0-1.125-.734-1.937-1.719-1.937-.515 0-1.187.25-1.719.625-.968.703-1.546 2-1.546 3.453C.063-.687.734.125 1.734.125c.657 0 1.47-.344 2-.844.75-.703 1.313-2.156 1.313-3.375zm-1.188.203C3.86-2.75 3.531-1.578 3-.937c-.219.25-.422.359-.781.359-.703 0-.969-.406-.969-1.36 0-1.343.422-2.718 1.016-3.203.156-.125.328-.171.609-.171.734 0 .984.406.984 1.421zm0 0"/></svg><svg overflow="visible" x="218.488" y="194.978"><path d="M4.125-5.703c-.469-.219-.797-.328-1.203-.328-.61 0-1.453.39-2.031.968a1.63 1.63 0 00-.47 1.157c0 .672.516 1.187 1.298 1.344l.75.14c.531.094.578.156.578.64 0 .798-.406 1.173-1.25 1.173-.438 0-.703-.094-1-.344v-1.078H.234C.172-1.297.094-.875-.046-.25.453 0 .968.125 1.39.125c.578 0 1.234-.25 1.843-.719.61-.484.891-1.015.891-1.625 0-.64-.5-1.11-1.406-1.281l-.5-.094c-.719-.14-.813-.203-.813-.703 0-.625.39-.984 1.078-.984.485 0 .844.172 1 .422v.765h.532c.062-.547.109-.86.25-1.531zm0 0"/></svg><svg overflow="visible" x="223.139" y="194.978"><path d="M4.203-7.828a.735.735 0 01-.187-.14c-.063-.063-.11-.126-.22-.329-1.593 1.61-2.5 3.266-2.5 4.781v.797c0 1.516.907 3.172 2.5 4.781.11-.203.157-.265.22-.328.062-.062.125-.109.312-.203C2.875.063 2.281-1.344 2.281-2.719v-.797c0-1.39.594-2.78 2.047-4.25zm0 0"/></svg><svg overflow="visible" x="228.208" y="194.978"><path d="M6.031-5.969c.063-1.672-.468-2.797-1.453-2.797-.516 0-1.156.297-1.734.829C1.734-6.923.828-5.017.734-2.829.641-.922 1.141.125 2.141.125c.625 0 1.484-.469 2.078-1.188.86-1.046 1.718-3.109 1.812-4.906zM4.547-3.937C4.234-2.734 3.78-1.75 3.359-1.142c-.25.375-.484.563-.843.563-.704 0-.657-.797-.61-2.219.016-.375.063-.75.125-1.047.14-.062.469-.094 1.313-.094.812 0 1.047 0 1.187.063zm.281-1.782a6.748 6.748 0 01-.094.922c-.125.047-.484.094-1.28.094-.813 0-1.157-.047-1.22-.063.36-1.343.922-2.53 1.375-3.046.188-.172.36-.235.641-.235.766 0 .656.844.578 2.328zm0 0"/></svg></g><g><svg overflow="visible" x="234.436" y="194.978"><path d="M3.766-2.719v-.797c0-1.515-.907-3.171-2.516-4.78-.11.202-.156.265-.203.327-.063.063-.125.11-.313.203 1.438 1.47 2.032 2.86 2.032 4.25v.797c0 1.375-.594 2.781-2.032 4.25.188.094.25.14.313.203.047.063.094.125.203.329C2.86.452 3.766-1.204 3.766-2.72zm0 0"/></svg></g></svg>